  0
SECTION
  2
HEADER
  9
$ANGBASE
  50
0.0
  9
$ANGDIR
  70
1
  9
$MEASUREMENT
  70
1
  0
ENDSEC
  0
SECTION
  2
TABLES
  0
TABLE
  2
LTYPE
  70
4
  0
LTYPE
  5
40F
  2
CONTINUOUS
  70
0
  3
Solid line
  72
65
  73
0
  40
0.0
  0
LTYPE
  5
410
  2
DASHDOT
 70
0
  3
Dash Dot ____ _ ____ _
 72
65
 73
4
 40
2.0
 49
1.25
 49
-0.25
 49
0.25
 49
-0.25
  0
LTYPE
  5
411
  2
DASHED
 70
0
  3
Dashed __ __ __ __ __
 72
65
 73
2
 40
0.75
 49
0.5
 49
-0.25
  0
LTYPE
  5
43B
  2
DOTTED
 70
0
  3
Dotted .  .  .  .
 72
65
 73
2
 40
0.2
 49
0.0
 49
-0.2
  0
ENDTAB
  0
TABLE
  2
STYLE
  70
4
  0
STYLE
  2
KICAD
  70
0
  40
0
  41
1
  42
1
  50
0
  71
0
  3
isocp.shx
  0
STYLE
  2
KICADB
  70
0
  40
0
  41
1
  42
1
  50
0
  71
0
  3
isocp.shx
  0
STYLE
  2
KICADI
  70
0
  40
0
  41
1
  42
1
  50
15
  71
0
  3
isocp.shx
  0
STYLE
  2
KICADBI
  70
0
  40
0
  41
1
  42
1
  50
15
  71
0
  3
isocp.shx
  0
ENDTAB
  0
TABLE
  2
LAYER
  70
1
  0
LAYER
  2
BLACK
  70
0
  62
7
  6
CONTINUOUS
  0
ENDTAB
  0
ENDSEC
  0
SECTION
  2
ENTITIES
0
LINE
8
BLACK
6
CONTINUOUS
10
145.633
20
-119.723
11
145.666
21
-119.763
0
LINE
8
BLACK
6
CONTINUOUS
10
145.666
20
-119.763
11
145.833
21
-120.232
0
LINE
8
BLACK
6
CONTINUOUS
10
145.833
20
-120.232
11
146.001
21
-119.763
0
LINE
8
BLACK
6
CONTINUOUS
10
146.001
20
-119.763
11
146.014
21
-119.74
0
LINE
8
BLACK
6
CONTINUOUS
10
146.014
20
-119.74
11
146.058
21
-119.714
0
LINE
8
BLACK
6
CONTINUOUS
10
146.058
20
-119.714
11
146.109
21
-119.723
0
LINE
8
BLACK
6
CONTINUOUS
10
146.109
20
-119.723
11
146.142
21
-119.762
0
LINE
8
BLACK
6
CONTINUOUS
10
146.142
20
-119.762
11
146.142
21
-119.813
0
LINE
8
BLACK
6
CONTINUOUS
10
146.142
20
-119.813
11
145.914
21
-120.453
0
LINE
8
BLACK
6
CONTINUOUS
10
145.914
20
-120.453
11
145.992
21
-120.651
0
LINE
8
BLACK
6
CONTINUOUS
10
145.992
20
-120.651
11
146.021
21
-120.679
0
LINE
8
BLACK
6
CONTINUOUS
10
146.021
20
-120.679
11
146.105
21
-120.721
0
LINE
8
BLACK
6
CONTINUOUS
10
146.105
20
-120.721
11
146.126
21
-120.737
0
LINE
8
BLACK
6
CONTINUOUS
10
146.126
20
-120.737
11
146.146
21
-120.784
0
LINE
8
BLACK
6
CONTINUOUS
10
146.146
20
-120.784
11
146.132
21
-120.833
0
LINE
8
BLACK
6
CONTINUOUS
10
146.132
20
-120.833
11
146.089
21
-120.861
0
LINE
8
BLACK
6
CONTINUOUS
10
146.089
20
-120.861
11
146.038
21
-120.855
0
LINE
8
BLACK
6
CONTINUOUS
10
146.038
20
-120.855
11
145.943
21
-120.808
0
LINE
8
BLACK
6
CONTINUOUS
10
145.943
20
-120.808
11
145.925
21
-120.794
0
LINE
8
BLACK
6
CONTINUOUS
10
145.925
20
-120.794
11
145.923
21
-120.794
0
LINE
8
BLACK
6
CONTINUOUS
10
145.923
20
-120.794
11
145.876
21
-120.746
0
LINE
8
BLACK
6
CONTINUOUS
10
145.876
20
-120.746
11
145.861
21
-120.725
0
LINE
8
BLACK
6
CONTINUOUS
10
145.861
20
-120.725
11
145.86
21
-120.722
0
LINE
8
BLACK
6
CONTINUOUS
10
145.86
20
-120.722
11
145.859
21
-120.721
0
LINE
8
BLACK
6
CONTINUOUS
10
145.859
20
-120.721
11
145.764
21
-120.483
0
LINE
8
BLACK
6
CONTINUOUS
10
145.764
20
-120.483
11
145.763
21
-120.481
0
LINE
8
BLACK
6
CONTINUOUS
10
145.763
20
-120.481
11
145.763
21
-120.481
0
LINE
8
BLACK
6
CONTINUOUS
10
145.763
20
-120.481
11
145.763
21
-120.48
0
LINE
8
BLACK
6
CONTINUOUS
10
145.763
20
-120.48
11
145.763
21
-120.48
0
LINE
8
BLACK
6
CONTINUOUS
10
145.763
20
-120.48
11
145.525
21
-119.813
0
LINE
8
BLACK
6
CONTINUOUS
10
145.525
20
-119.813
11
145.52
21
-119.788
0
LINE
8
BLACK
6
CONTINUOUS
10
145.52
20
-119.788
11
145.538
21
-119.74
0
LINE
8
BLACK
6
CONTINUOUS
10
145.538
20
-119.74
11
145.583
21
-119.714
0
LINE
8
BLACK
6
CONTINUOUS
10
145.583
20
-119.714
11
145.633
21
-119.723
0
LINE
8
BLACK
6
CONTINUOUS
10
161.43
20
-119.575
11
161.434
21
-119.578
0
LINE
8
BLACK
6
CONTINUOUS
10
161.434
20
-119.578
11
161.438
21
-119.578
0
LINE
8
BLACK
6
CONTINUOUS
10
161.438
20
-119.578
11
161.534
21
-119.626
0
LINE
8
BLACK
6
CONTINUOUS
10
161.534
20
-119.626
11
161.552
21
-119.639
0
LINE
8
BLACK
6
CONTINUOUS
10
161.552
20
-119.639
11
161.553
21
-119.64
0
LINE
8
BLACK
6
CONTINUOUS
10
161.553
20
-119.64
11
161.648
21
-119.735
0
LINE
8
BLACK
6
CONTINUOUS
10
161.648
20
-119.735
11
161.661
21
-119.753
0
LINE
8
BLACK
6
CONTINUOUS
10
161.661
20
-119.753
11
161.662
21
-119.755
0
LINE
8
BLACK
6
CONTINUOUS
10
161.662
20
-119.755
11
161.71
21
-119.85
0
LINE
8
BLACK
6
CONTINUOUS
10
161.71
20
-119.85
11
161.717
21
-119.875
0
LINE
8
BLACK
6
CONTINUOUS
10
161.717
20
-119.875
11
161.716
21
-119.879
0
LINE
8
BLACK
6
CONTINUOUS
10
161.716
20
-119.879
11
161.718
21
-119.883
0
LINE
8
BLACK
6
CONTINUOUS
10
161.718
20
-119.883
11
161.718
21
-120.074
0
LINE
8
BLACK
6
CONTINUOUS
10
161.718
20
-120.074
11
161.713
21
-120.1
0
LINE
8
BLACK
6
CONTINUOUS
10
161.713
20
-120.1
11
161.71
21
-120.103
0
LINE
8
BLACK
6
CONTINUOUS
10
161.71
20
-120.103
11
161.71
21
-120.107
0
LINE
8
BLACK
6
CONTINUOUS
10
161.71
20
-120.107
11
161.662
21
-120.203
0
LINE
8
BLACK
6
CONTINUOUS
10
161.662
20
-120.203
11
161.649
21
-120.221
0
LINE
8
BLACK
6
CONTINUOUS
10
161.649
20
-120.221
11
161.648
21
-120.222
0
LINE
8
BLACK
6
CONTINUOUS
10
161.648
20
-120.222
11
161.553
21
-120.317
0
LINE
8
BLACK
6
CONTINUOUS
10
161.553
20
-120.317
11
161.535
21
-120.33
0
LINE
8
BLACK
6
CONTINUOUS
10
161.535
20
-120.33
11
161.534
21
-120.331
0
LINE
8
BLACK
6
CONTINUOUS
10
161.534
20
-120.331
11
161.438
21
-120.379
0
LINE
8
BLACK
6
CONTINUOUS
10
161.438
20
-120.379
11
161.413
21
-120.386
0
LINE
8
BLACK
6
CONTINUOUS
10
161.413
20
-120.386
11
161.409
21
-120.385
0
LINE
8
BLACK
6
CONTINUOUS
10
161.409
20
-120.385
11
161.405
21
-120.387
0
LINE
8
BLACK
6
CONTINUOUS
10
161.405
20
-120.387
11
161.214
21
-120.387
0
LINE
8
BLACK
6
CONTINUOUS
10
161.214
20
-120.387
11
161.189
21
-120.382
0
LINE
8
BLACK
6
CONTINUOUS
10
161.189
20
-120.382
11
161.185
21
-120.38
0
LINE
8
BLACK
6
CONTINUOUS
10
161.185
20
-120.38
11
161.181
21
-120.379
0
LINE
8
BLACK
6
CONTINUOUS
10
161.181
20
-120.379
11
161.086
21
-120.331
0
LINE
8
BLACK
6
CONTINUOUS
10
161.086
20
-120.331
11
161.065
21
-120.316
0
LINE
8
BLACK
6
CONTINUOUS
10
161.065
20
-120.316
11
161.044
21
-120.269
0
LINE
8
BLACK
6
CONTINUOUS
10
161.044
20
-120.269
11
161.059
21
-120.22
0
LINE
8
BLACK
6
CONTINUOUS
10
161.059
20
-120.22
11
161.102
21
-120.191
0
LINE
8
BLACK
6
CONTINUOUS
10
161.102
20
-120.191
11
161.153
21
-120.197
0
LINE
8
BLACK
6
CONTINUOUS
10
161.153
20
-120.197
11
161.232
21
-120.237
0
LINE
8
BLACK
6
CONTINUOUS
10
161.232
20
-120.237
11
161.387
21
-120.237
0
LINE
8
BLACK
6
CONTINUOUS
10
161.387
20
-120.237
11
161.456
21
-120.203
0
LINE
8
BLACK
6
CONTINUOUS
10
161.456
20
-120.203
11
161.534
21
-120.125
0
LINE
8
BLACK
6
CONTINUOUS
10
161.534
20
-120.125
11
161.568
21
-120.056
0
LINE
8
BLACK
6
CONTINUOUS
10
161.568
20
-120.056
11
161.568
21
-119.901
0
LINE
8
BLACK
6
CONTINUOUS
10
161.568
20
-119.901
11
161.534
21
-119.833
0
LINE
8
BLACK
6
CONTINUOUS
10
161.534
20
-119.833
11
161.456
21
-119.755
0
LINE
8
BLACK
6
CONTINUOUS
10
161.456
20
-119.755
11
161.387
21
-119.72
0
LINE
8
BLACK
6
CONTINUOUS
10
161.387
20
-119.72
11
161.232
21
-119.72
0
LINE
8
BLACK
6
CONTINUOUS
10
161.232
20
-119.72
11
161.153
21
-119.76
0
LINE
8
BLACK
6
CONTINUOUS
10
161.153
20
-119.76
11
161.128
21
-119.767
0
LINE
8
BLACK
6
CONTINUOUS
10
161.128
20
-119.767
11
161.078
21
-119.756
0
LINE
8
BLACK
6
CONTINUOUS
10
161.078
20
-119.756
11
161.047
21
-119.714
0
LINE
8
BLACK
6
CONTINUOUS
10
161.047
20
-119.714
11
161.05
21
-119.663
0
LINE
8
BLACK
6
CONTINUOUS
10
161.05
20
-119.663
11
161.086
21
-119.626
0
LINE
8
BLACK
6
CONTINUOUS
10
161.086
20
-119.626
11
161.181
21
-119.578
0
LINE
8
BLACK
6
CONTINUOUS
10
161.181
20
-119.578
11
161.206
21
-119.571
0
LINE
8
BLACK
6
CONTINUOUS
10
161.206
20
-119.571
11
161.21
21
-119.572
0
LINE
8
BLACK
6
CONTINUOUS
10
161.21
20
-119.572
11
161.214
21
-119.57
0
LINE
8
BLACK
6
CONTINUOUS
10
161.214
20
-119.57
11
161.405
21
-119.57
0
LINE
8
BLACK
6
CONTINUOUS
10
161.405
20
-119.57
11
161.43
21
-119.575
0
LINE
8
BLACK
6
CONTINUOUS
10
161.322
20
-119.239
11
161.324
21
-119.238
0
LINE
8
BLACK
6
CONTINUOUS
10
161.324
20
-119.238
11
161.562
21
-119.286
0
LINE
8
BLACK
6
CONTINUOUS
10
161.562
20
-119.286
11
161.586
21
-119.295
0
LINE
8
BLACK
6
CONTINUOUS
10
161.586
20
-119.295
11
161.586
21
-119.295
0
LINE
8
BLACK
6
CONTINUOUS
10
161.586
20
-119.295
11
161.824
21
-119.438
0
LINE
8
BLACK
6
CONTINUOUS
10
161.824
20
-119.438
11
161.844
21
-119.455
0
LINE
8
BLACK
6
CONTINUOUS
10
161.844
20
-119.455
11
161.846
21
-119.46
0
LINE
8
BLACK
6
CONTINUOUS
10
161.846
20
-119.46
11
161.85
21
-119.464
0
LINE
8
BLACK
6
CONTINUOUS
10
161.85
20
-119.464
11
161.993
21
-119.702
0
LINE
8
BLACK
6
CONTINUOUS
10
161.993
20
-119.702
11
162.002
21
-119.725
0
LINE
8
BLACK
6
CONTINUOUS
10
162.002
20
-119.725
11
162.002
21
-119.726
0
LINE
8
BLACK
6
CONTINUOUS
10
162.002
20
-119.726
11
162.05
21
-119.964
0
LINE
8
BLACK
6
CONTINUOUS
10
162.05
20
-119.964
11
162.05
21
-119.99
0
LINE
8
BLACK
6
CONTINUOUS
10
162.05
20
-119.99
11
162.049
21
-119.992
0
LINE
8
BLACK
6
CONTINUOUS
10
162.049
20
-119.992
11
162.05
21
-119.993
0
LINE
8
BLACK
6
CONTINUOUS
10
162.05
20
-119.993
11
162.002
21
-120.231
0
LINE
8
BLACK
6
CONTINUOUS
10
162.002
20
-120.231
11
161.993
21
-120.255
0
LINE
8
BLACK
6
CONTINUOUS
10
161.993
20
-120.255
11
161.993
21
-120.255
0
LINE
8
BLACK
6
CONTINUOUS
10
161.993
20
-120.255
11
161.85
21
-120.493
0
LINE
8
BLACK
6
CONTINUOUS
10
161.85
20
-120.493
11
161.833
21
-120.513
0
LINE
8
BLACK
6
CONTINUOUS
10
161.833
20
-120.513
11
161.828
21
-120.515
0
LINE
8
BLACK
6
CONTINUOUS
10
161.828
20
-120.515
11
161.824
21
-120.519
0
LINE
8
BLACK
6
CONTINUOUS
10
161.824
20
-120.519
11
161.586
21
-120.662
0
LINE
8
BLACK
6
CONTINUOUS
10
161.586
20
-120.662
11
161.563
21
-120.671
0
LINE
8
BLACK
6
CONTINUOUS
10
161.563
20
-120.671
11
161.562
21
-120.671
0
LINE
8
BLACK
6
CONTINUOUS
10
161.562
20
-120.671
11
161.324
21
-120.719
0
LINE
8
BLACK
6
CONTINUOUS
10
161.324
20
-120.719
11
161.298
21
-120.719
0
LINE
8
BLACK
6
CONTINUOUS
10
161.298
20
-120.719
11
161.297
21
-120.719
0
LINE
8
BLACK
6
CONTINUOUS
10
161.297
20
-120.719
11
161.295
21
-120.719
0
LINE
8
BLACK
6
CONTINUOUS
10
161.295
20
-120.719
11
161.057
21
-120.671
0
LINE
8
BLACK
6
CONTINUOUS
10
161.057
20
-120.671
11
161.033
21
-120.662
0
LINE
8
BLACK
6
CONTINUOUS
10
161.033
20
-120.662
11
161.033
21
-120.662
0
LINE
8
BLACK
6
CONTINUOUS
10
161.033
20
-120.662
11
160.795
21
-120.519
0
LINE
8
BLACK
6
CONTINUOUS
10
160.795
20
-120.519
11
160.775
21
-120.502
0
LINE
8
BLACK
6
CONTINUOUS
10
160.775
20
-120.502
11
160.773
21
-120.497
0
LINE
8
BLACK
6
CONTINUOUS
10
160.773
20
-120.497
11
160.769
21
-120.493
0
LINE
8
BLACK
6
CONTINUOUS
10
160.769
20
-120.493
11
160.626
21
-120.255
0
LINE
8
BLACK
6
CONTINUOUS
10
160.626
20
-120.255
11
160.617
21
-120.232
0
LINE
8
BLACK
6
CONTINUOUS
10
160.617
20
-120.232
11
160.617
21
-120.231
0
LINE
8
BLACK
6
CONTINUOUS
10
160.617
20
-120.231
11
160.569
21
-119.993
0
LINE
8
BLACK
6
CONTINUOUS
10
160.569
20
-119.993
11
160.569
21
-119.967
0
LINE
8
BLACK
6
CONTINUOUS
10
160.569
20
-119.967
11
160.57
21
-119.966
0
LINE
8
BLACK
6
CONTINUOUS
10
160.57
20
-119.966
11
160.569
21
-119.964
0
LINE
8
BLACK
6
CONTINUOUS
10
160.569
20
-119.964
11
160.617
21
-119.726
0
LINE
8
BLACK
6
CONTINUOUS
10
160.617
20
-119.726
11
160.626
21
-119.702
0
LINE
8
BLACK
6
CONTINUOUS
10
160.626
20
-119.702
11
160.626
21
-119.702
0
LINE
8
BLACK
6
CONTINUOUS
10
160.626
20
-119.702
11
160.769
21
-119.464
0
LINE
8
BLACK
6
CONTINUOUS
10
160.769
20
-119.464
11
160.786
21
-119.444
0
LINE
8
BLACK
6
CONTINUOUS
10
160.786
20
-119.444
11
160.791
21
-119.442
0
LINE
8
BLACK
6
CONTINUOUS
10
160.791
20
-119.442
11
160.795
21
-119.438
0
LINE
8
BLACK
6
CONTINUOUS
10
160.795
20
-119.438
11
161.033
21
-119.295
0
LINE
8
BLACK
6
CONTINUOUS
10
161.033
20
-119.295
11
161.056
21
-119.286
0
LINE
8
BLACK
6
CONTINUOUS
10
161.056
20
-119.286
11
161.057
21
-119.286
0
LINE
8
BLACK
6
CONTINUOUS
10
161.057
20
-119.286
11
161.295
21
-119.238
0
LINE
8
BLACK
6
CONTINUOUS
10
161.295
20
-119.238
11
161.321
21
-119.238
0
LINE
8
BLACK
6
CONTINUOUS
10
161.321
20
-119.238
11
161.322
21
-119.239
0
LINE
8
BLACK
6
CONTINUOUS
10
161.099
20
-119.431
11
160.888
21
-119.557
0
LINE
8
BLACK
6
CONTINUOUS
10
160.888
20
-119.557
11
160.761
21
-119.768
0
LINE
8
BLACK
6
CONTINUOUS
10
160.761
20
-119.768
11
160.719
21
-119.979
0
LINE
8
BLACK
6
CONTINUOUS
10
160.719
20
-119.979
11
160.761
21
-120.189
0
LINE
8
BLACK
6
CONTINUOUS
10
160.761
20
-120.189
11
160.888
21
-120.4
0
LINE
8
BLACK
6
CONTINUOUS
10
160.888
20
-120.4
11
161.099
21
-120.527
0
LINE
8
BLACK
6
CONTINUOUS
10
161.099
20
-120.527
11
161.31
21
-120.569
0
LINE
8
BLACK
6
CONTINUOUS
10
161.31
20
-120.569
11
161.52
21
-120.527
0
LINE
8
BLACK
6
CONTINUOUS
10
161.52
20
-120.527
11
161.731
21
-120.4
0
LINE
8
BLACK
6
CONTINUOUS
10
161.731
20
-120.4
11
161.858
21
-120.189
0
LINE
8
BLACK
6
CONTINUOUS
10
161.858
20
-120.189
11
161.9
21
-119.979
0
LINE
8
BLACK
6
CONTINUOUS
10
161.9
20
-119.979
11
161.858
21
-119.768
0
LINE
8
BLACK
6
CONTINUOUS
10
161.858
20
-119.768
11
161.731
21
-119.557
0
LINE
8
BLACK
6
CONTINUOUS
10
161.731
20
-119.557
11
161.52
21
-119.431
0
LINE
8
BLACK
6
CONTINUOUS
10
161.52
20
-119.431
11
161.31
21
-119.388
0
LINE
8
BLACK
6
CONTINUOUS
10
161.31
20
-119.388
11
161.099
21
-119.431
0
LINE
8
BLACK
6
CONTINUOUS
10
138.335
20
-119.718
11
138.339
21
-119.721
0
LINE
8
BLACK
6
CONTINUOUS
10
138.339
20
-119.721
11
138.343
21
-119.721
0
LINE
8
BLACK
6
CONTINUOUS
10
138.343
20
-119.721
11
138.438
21
-119.769
0
LINE
8
BLACK
6
CONTINUOUS
10
138.438
20
-119.769
11
138.459
21
-119.784
0
LINE
8
BLACK
6
CONTINUOUS
10
138.459
20
-119.784
11
138.464
21
-119.795
0
LINE
8
BLACK
6
CONTINUOUS
10
138.464
20
-119.795
11
138.472
21
-119.802
0
LINE
8
BLACK
6
CONTINUOUS
10
138.472
20
-119.802
11
138.519
21
-119.897
0
LINE
8
BLACK
6
CONTINUOUS
10
138.519
20
-119.897
11
138.527
21
-119.922
0
LINE
8
BLACK
6
CONTINUOUS
10
138.527
20
-119.922
11
138.526
21
-119.927
0
LINE
8
BLACK
6
CONTINUOUS
10
138.526
20
-119.927
11
138.527
21
-119.931
0
LINE
8
BLACK
6
CONTINUOUS
10
138.527
20
-119.931
11
138.527
21
-119.979
0
LINE
8
BLACK
6
CONTINUOUS
10
138.527
20
-119.979
11
138.523
21
-120.004
0
LINE
8
BLACK
6
CONTINUOUS
10
138.523
20
-120.004
11
138.52
21
-120.008
0
LINE
8
BLACK
6
CONTINUOUS
10
138.52
20
-120.008
11
138.519
21
-120.012
0
LINE
8
BLACK
6
CONTINUOUS
10
138.519
20
-120.012
11
138.472
21
-120.107
0
LINE
8
BLACK
6
CONTINUOUS
10
138.472
20
-120.107
11
138.456
21
-120.128
0
LINE
8
BLACK
6
CONTINUOUS
10
138.456
20
-120.128
11
138.446
21
-120.133
0
LINE
8
BLACK
6
CONTINUOUS
10
138.446
20
-120.133
11
138.438
21
-120.141
0
LINE
8
BLACK
6
CONTINUOUS
10
138.438
20
-120.141
11
138.343
21
-120.189
0
LINE
8
BLACK
6
CONTINUOUS
10
138.343
20
-120.189
11
138.318
21
-120.196
0
LINE
8
BLACK
6
CONTINUOUS
10
138.318
20
-120.196
11
138.314
21
-120.195
0
LINE
8
BLACK
6
CONTINUOUS
10
138.314
20
-120.195
11
138.31
21
-120.196
0
LINE
8
BLACK
6
CONTINUOUS
10
138.31
20
-120.196
11
138.184
21
-120.196
0
LINE
8
BLACK
6
CONTINUOUS
10
138.184
20
-120.196
11
138.127
21
-120.225
0
LINE
8
BLACK
6
CONTINUOUS
10
138.127
20
-120.225
11
138.099
21
-120.282
0
LINE
8
BLACK
6
CONTINUOUS
10
138.099
20
-120.282
11
138.099
21
-120.294
0
LINE
8
BLACK
6
CONTINUOUS
10
138.099
20
-120.294
11
138.127
21
-120.351
0
LINE
8
BLACK
6
CONTINUOUS
10
138.127
20
-120.351
11
138.184
21
-120.38
0
LINE
8
BLACK
6
CONTINUOUS
10
138.184
20
-120.38
11
138.339
21
-120.38
0
LINE
8
BLACK
6
CONTINUOUS
10
138.339
20
-120.38
11
138.419
21
-120.34
0
LINE
8
BLACK
6
CONTINUOUS
10
138.419
20
-120.34
11
138.444
21
-120.333
0
LINE
8
BLACK
6
CONTINUOUS
10
138.444
20
-120.333
11
138.494
21
-120.345
0
LINE
8
BLACK
6
CONTINUOUS
10
138.494
20
-120.345
11
138.524
21
-120.386
0
LINE
8
BLACK
6
CONTINUOUS
10
138.524
20
-120.386
11
138.521
21
-120.437
0
LINE
8
BLACK
6
CONTINUOUS
10
138.521
20
-120.437
11
138.486
21
-120.474
0
LINE
8
BLACK
6
CONTINUOUS
10
138.486
20
-120.474
11
138.391
21
-120.522
0
LINE
8
BLACK
6
CONTINUOUS
10
138.391
20
-120.522
11
138.366
21
-120.529
0
LINE
8
BLACK
6
CONTINUOUS
10
138.366
20
-120.529
11
138.361
21
-120.528
0
LINE
8
BLACK
6
CONTINUOUS
10
138.361
20
-120.528
11
138.357
21
-120.53
0
LINE
8
BLACK
6
CONTINUOUS
10
138.357
20
-120.53
11
138.167
21
-120.53
0
LINE
8
BLACK
6
CONTINUOUS
10
138.167
20
-120.53
11
138.141
21
-120.525
0
LINE
8
BLACK
6
CONTINUOUS
10
138.141
20
-120.525
11
138.138
21
-120.522
0
LINE
8
BLACK
6
CONTINUOUS
10
138.138
20
-120.522
11
138.133
21
-120.522
0
LINE
8
BLACK
6
CONTINUOUS
10
138.133
20
-120.522
11
138.038
21
-120.474
0
LINE
8
BLACK
6
CONTINUOUS
10
138.038
20
-120.474
11
138.017
21
-120.459
0
LINE
8
BLACK
6
CONTINUOUS
10
138.017
20
-120.459
11
138.012
21
-120.448
0
LINE
8
BLACK
6
CONTINUOUS
10
138.012
20
-120.448
11
138.004
21
-120.441
0
LINE
8
BLACK
6
CONTINUOUS
10
138.004
20
-120.441
11
137.957
21
-120.346
0
LINE
8
BLACK
6
CONTINUOUS
10
137.957
20
-120.346
11
137.949
21
-120.321
0
LINE
8
BLACK
6
CONTINUOUS
10
137.949
20
-120.321
11
137.95
21
-120.316
0
LINE
8
BLACK
6
CONTINUOUS
10
137.95
20
-120.316
11
137.949
21
-120.312
0
LINE
8
BLACK
6
CONTINUOUS
10
137.949
20
-120.312
11
137.949
21
-120.264
0
LINE
8
BLACK
6
CONTINUOUS
10
137.949
20
-120.264
11
137.953
21
-120.239
0
LINE
8
BLACK
6
CONTINUOUS
10
137.953
20
-120.239
11
137.956
21
-120.235
0
LINE
8
BLACK
6
CONTINUOUS
10
137.956
20
-120.235
11
137.957
21
-120.231
0
LINE
8
BLACK
6
CONTINUOUS
10
137.957
20
-120.231
11
138.004
21
-120.136
0
LINE
8
BLACK
6
CONTINUOUS
10
138.004
20
-120.136
11
138.02
21
-120.115
0
LINE
8
BLACK
6
CONTINUOUS
10
138.02
20
-120.115
11
138.03
21
-120.11
0
LINE
8
BLACK
6
CONTINUOUS
10
138.03
20
-120.11
11
138.038
21
-120.102
0
LINE
8
BLACK
6
CONTINUOUS
10
138.038
20
-120.102
11
138.133
21
-120.054
0
LINE
8
BLACK
6
CONTINUOUS
10
138.133
20
-120.054
11
138.158
21
-120.047
0
LINE
8
BLACK
6
CONTINUOUS
10
138.158
20
-120.047
11
138.162
21
-120.048
0
LINE
8
BLACK
6
CONTINUOUS
10
138.162
20
-120.048
11
138.167
21
-120.046
0
LINE
8
BLACK
6
CONTINUOUS
10
138.167
20
-120.046
11
138.292
21
-120.046
0
LINE
8
BLACK
6
CONTINUOUS
10
138.292
20
-120.046
11
138.349
21
-120.018
0
LINE
8
BLACK
6
CONTINUOUS
10
138.349
20
-120.018
11
138.377
21
-119.961
0
LINE
8
BLACK
6
CONTINUOUS
10
138.377
20
-119.961
11
138.377
21
-119.949
0
LINE
8
BLACK
6
CONTINUOUS
10
138.377
20
-119.949
11
138.349
21
-119.892
0
LINE
8
BLACK
6
CONTINUOUS
10
138.349
20
-119.892
11
138.292
21
-119.863
0
LINE
8
BLACK
6
CONTINUOUS
10
138.292
20
-119.863
11
138.184
21
-119.863
0
LINE
8
BLACK
6
CONTINUOUS
10
138.184
20
-119.863
11
138.105
21
-119.903
0
LINE
8
BLACK
6
CONTINUOUS
10
138.105
20
-119.903
11
138.08
21
-119.91
0
LINE
8
BLACK
6
CONTINUOUS
10
138.08
20
-119.91
11
138.03
21
-119.898
0
LINE
8
BLACK
6
CONTINUOUS
10
138.03
20
-119.898
11
138
21
-119.857
0
LINE
8
BLACK
6
CONTINUOUS
10
138
20
-119.857
11
138.003
21
-119.806
0
LINE
8
BLACK
6
CONTINUOUS
10
138.003
20
-119.806
11
138.038
21
-119.769
0
LINE
8
BLACK
6
CONTINUOUS
10
138.038
20
-119.769
11
138.133
21
-119.721
0
LINE
8
BLACK
6
CONTINUOUS
10
138.133
20
-119.721
11
138.158
21
-119.714
0
LINE
8
BLACK
6
CONTINUOUS
10
138.158
20
-119.714
11
138.162
21
-119.715
0
LINE
8
BLACK
6
CONTINUOUS
10
138.162
20
-119.715
11
138.167
21
-119.713
0
LINE
8
BLACK
6
CONTINUOUS
10
138.167
20
-119.713
11
138.31
21
-119.713
0
LINE
8
BLACK
6
CONTINUOUS
10
138.31
20
-119.713
11
138.335
21
-119.718
0
LINE
8
BLACK
6
CONTINUOUS
10
139.811
20
-119.718
11
139.815
21
-119.721
0
LINE
8
BLACK
6
CONTINUOUS
10
139.815
20
-119.721
11
139.819
21
-119.721
0
LINE
8
BLACK
6
CONTINUOUS
10
139.819
20
-119.721
11
139.914
21
-119.769
0
LINE
8
BLACK
6
CONTINUOUS
10
139.914
20
-119.769
11
139.935
21
-119.784
0
LINE
8
BLACK
6
CONTINUOUS
10
139.935
20
-119.784
11
139.94
21
-119.795
0
LINE
8
BLACK
6
CONTINUOUS
10
139.94
20
-119.795
11
139.948
21
-119.802
0
LINE
8
BLACK
6
CONTINUOUS
10
139.948
20
-119.802
11
139.996
21
-119.897
0
LINE
8
BLACK
6
CONTINUOUS
10
139.996
20
-119.897
11
140.003
21
-119.922
0
LINE
8
BLACK
6
CONTINUOUS
10
140.003
20
-119.922
11
140.002
21
-119.927
0
LINE
8
BLACK
6
CONTINUOUS
10
140.002
20
-119.927
11
140.004
21
-119.931
0
LINE
8
BLACK
6
CONTINUOUS
10
140.004
20
-119.931
11
140.004
21
-120.312
0
LINE
8
BLACK
6
CONTINUOUS
10
140.004
20
-120.312
11
139.999
21
-120.338
0
LINE
8
BLACK
6
CONTINUOUS
10
139.999
20
-120.338
11
139.996
21
-120.341
0
LINE
8
BLACK
6
CONTINUOUS
10
139.996
20
-120.341
11
139.996
21
-120.346
0
LINE
8
BLACK
6
CONTINUOUS
10
139.996
20
-120.346
11
139.948
21
-120.441
0
LINE
8
BLACK
6
CONTINUOUS
10
139.948
20
-120.441
11
139.933
21
-120.462
0
LINE
8
BLACK
6
CONTINUOUS
10
139.933
20
-120.462
11
139.922
21
-120.466
0
LINE
8
BLACK
6
CONTINUOUS
10
139.922
20
-120.466
11
139.914
21
-120.474
0
LINE
8
BLACK
6
CONTINUOUS
10
139.914
20
-120.474
11
139.819
21
-120.522
0
LINE
8
BLACK
6
CONTINUOUS
10
139.819
20
-120.522
11
139.794
21
-120.529
0
LINE
8
BLACK
6
CONTINUOUS
10
139.794
20
-120.529
11
139.79
21
-120.528
0
LINE
8
BLACK
6
CONTINUOUS
10
139.79
20
-120.528
11
139.786
21
-120.53
0
LINE
8
BLACK
6
CONTINUOUS
10
139.786
20
-120.53
11
139.595
21
-120.53
0
LINE
8
BLACK
6
CONTINUOUS
10
139.595
20
-120.53
11
139.57
21
-120.525
0
LINE
8
BLACK
6
CONTINUOUS
10
139.57
20
-120.525
11
139.566
21
-120.522
0
LINE
8
BLACK
6
CONTINUOUS
10
139.566
20
-120.522
11
139.562
21
-120.522
0
LINE
8
BLACK
6
CONTINUOUS
10
139.562
20
-120.522
11
139.466
21
-120.474
0
LINE
8
BLACK
6
CONTINUOUS
10
139.466
20
-120.474
11
139.446
21
-120.459
0
LINE
8
BLACK
6
CONTINUOUS
10
139.446
20
-120.459
11
139.425
21
-120.412
0
LINE
8
BLACK
6
CONTINUOUS
10
139.425
20
-120.412
11
139.44
21
-120.363
0
LINE
8
BLACK
6
CONTINUOUS
10
139.44
20
-120.363
11
139.483
21
-120.334
0
LINE
8
BLACK
6
CONTINUOUS
10
139.483
20
-120.334
11
139.534
21
-120.34
0
LINE
8
BLACK
6
CONTINUOUS
10
139.534
20
-120.34
11
139.613
21
-120.38
0
LINE
8
BLACK
6
CONTINUOUS
10
139.613
20
-120.38
11
139.768
21
-120.38
0
LINE
8
BLACK
6
CONTINUOUS
10
139.768
20
-120.38
11
139.825
21
-120.351
0
LINE
8
BLACK
6
CONTINUOUS
10
139.825
20
-120.351
11
139.854
21
-120.294
0
LINE
8
BLACK
6
CONTINUOUS
10
139.854
20
-120.294
11
139.854
21
-120.183
0
LINE
8
BLACK
6
CONTINUOUS
10
139.854
20
-120.183
11
139.438
21
-120.1
0
LINE
8
BLACK
6
CONTINUOUS
10
139.438
20
-120.1
11
139.413
21
-120.09
0
LINE
8
BLACK
6
CONTINUOUS
10
139.413
20
-120.09
11
139.406
21
-120.081
0
LINE
8
BLACK
6
CONTINUOUS
10
139.406
20
-120.081
11
139.395
21
-120.074
0
LINE
8
BLACK
6
CONTINUOUS
10
139.395
20
-120.074
11
139.39
21
-120.061
0
LINE
8
BLACK
6
CONTINUOUS
10
139.39
20
-120.061
11
139.381
21
-120.05
0
LINE
8
BLACK
6
CONTINUOUS
10
139.381
20
-120.05
11
139.382
21
-120.038
0
LINE
8
BLACK
6
CONTINUOUS
10
139.382
20
-120.038
11
139.377
21
-120.026
0
LINE
8
BLACK
6
CONTINUOUS
10
139.377
20
-120.026
11
139.377
21
-119.931
0
LINE
8
BLACK
6
CONTINUOUS
10
139.377
20
-119.931
11
139.382
21
-119.905
0
LINE
8
BLACK
6
CONTINUOUS
10
139.382
20
-119.905
11
139.385
21
-119.902
0
LINE
8
BLACK
6
CONTINUOUS
10
139.385
20
-119.902
11
139.385
21
-119.897
0
LINE
8
BLACK
6
CONTINUOUS
10
139.385
20
-119.897
11
139.433
21
-119.802
0
LINE
8
BLACK
6
CONTINUOUS
10
139.433
20
-119.802
11
139.448
21
-119.781
0
LINE
8
BLACK
6
CONTINUOUS
10
139.448
20
-119.781
11
139.459
21
-119.777
0
LINE
8
BLACK
6
CONTINUOUS
10
139.459
20
-119.777
11
139.466
21
-119.769
0
LINE
8
BLACK
6
CONTINUOUS
10
139.466
20
-119.769
11
139.562
21
-119.721
0
LINE
8
BLACK
6
CONTINUOUS
10
139.562
20
-119.721
11
139.587
21
-119.714
0
LINE
8
BLACK
6
CONTINUOUS
10
139.587
20
-119.714
11
139.591
21
-119.715
0
LINE
8
BLACK
6
CONTINUOUS
10
139.591
20
-119.715
11
139.595
21
-119.713
0
LINE
8
BLACK
6
CONTINUOUS
10
139.595
20
-119.713
11
139.786
21
-119.713
0
LINE
8
BLACK
6
CONTINUOUS
10
139.786
20
-119.713
11
139.811
21
-119.718
0
LINE
8
BLACK
6
CONTINUOUS
10
139.556
20
-119.892
11
139.527
21
-119.949
0
LINE
8
BLACK
6
CONTINUOUS
10
139.527
20
-119.949
11
139.527
21
-119.965
0
LINE
8
BLACK
6
CONTINUOUS
10
139.527
20
-119.965
11
139.854
21
-120.03
0
LINE
8
BLACK
6
CONTINUOUS
10
139.854
20
-120.03
11
139.854
21
-119.949
0
LINE
8
BLACK
6
CONTINUOUS
10
139.854
20
-119.949
11
139.825
21
-119.892
0
LINE
8
BLACK
6
CONTINUOUS
10
139.825
20
-119.892
11
139.768
21
-119.863
0
LINE
8
BLACK
6
CONTINUOUS
10
139.768
20
-119.863
11
139.613
21
-119.863
0
LINE
8
BLACK
6
CONTINUOUS
10
139.613
20
-119.863
11
139.556
21
-119.892
0
LINE
8
BLACK
6
CONTINUOUS
10
140.811
20
-119.718
11
140.851
21
-119.751
0
LINE
8
BLACK
6
CONTINUOUS
10
140.851
20
-119.751
11
140.86
21
-119.801
0
LINE
8
BLACK
6
CONTINUOUS
10
140.86
20
-119.801
11
140.834
21
-119.846
0
LINE
8
BLACK
6
CONTINUOUS
10
140.834
20
-119.846
11
140.786
21
-119.863
0
LINE
8
BLACK
6
CONTINUOUS
10
140.786
20
-119.863
11
140.416
21
-119.863
0
LINE
8
BLACK
6
CONTINUOUS
10
140.416
20
-119.863
11
140.845
21
-120.408
0
LINE
8
BLACK
6
CONTINUOUS
10
140.845
20
-120.408
11
140.848
21
-120.415
0
LINE
8
BLACK
6
CONTINUOUS
10
140.848
20
-120.415
11
140.851
21
-120.417
0
LINE
8
BLACK
6
CONTINUOUS
10
140.851
20
-120.417
11
140.851
21
-120.421
0
LINE
8
BLACK
6
CONTINUOUS
10
140.851
20
-120.421
11
140.857
21
-120.431
0
LINE
8
BLACK
6
CONTINUOUS
10
140.857
20
-120.431
11
140.856
21
-120.45
0
LINE
8
BLACK
6
CONTINUOUS
10
140.856
20
-120.45
11
140.86
21
-120.468
0
LINE
8
BLACK
6
CONTINUOUS
10
140.86
20
-120.468
11
140.856
21
-120.475
0
LINE
8
BLACK
6
CONTINUOUS
10
140.856
20
-120.475
11
140.855
21
-120.483
0
LINE
8
BLACK
6
CONTINUOUS
10
140.855
20
-120.483
11
140.843
21
-120.496
0
LINE
8
BLACK
6
CONTINUOUS
10
140.843
20
-120.496
11
140.834
21
-120.512
0
LINE
8
BLACK
6
CONTINUOUS
10
140.834
20
-120.512
11
140.826
21
-120.515
0
LINE
8
BLACK
6
CONTINUOUS
10
140.826
20
-120.515
11
140.821
21
-120.521
0
LINE
8
BLACK
6
CONTINUOUS
10
140.821
20
-120.521
11
140.803
21
-120.524
0
LINE
8
BLACK
6
CONTINUOUS
10
140.803
20
-120.524
11
140.786
21
-120.53
0
LINE
8
BLACK
6
CONTINUOUS
10
140.786
20
-120.53
11
140.262
21
-120.53
0
LINE
8
BLACK
6
CONTINUOUS
10
140.262
20
-120.53
11
140.236
21
-120.525
0
LINE
8
BLACK
6
CONTINUOUS
10
140.236
20
-120.525
11
140.197
21
-120.492
0
LINE
8
BLACK
6
CONTINUOUS
10
140.197
20
-120.492
11
140.188
21
-120.442
0
LINE
8
BLACK
6
CONTINUOUS
10
140.188
20
-120.442
11
140.214
21
-120.397
0
LINE
8
BLACK
6
CONTINUOUS
10
140.214
20
-120.397
11
140.262
21
-120.38
0
LINE
8
BLACK
6
CONTINUOUS
10
140.262
20
-120.38
11
140.631
21
-120.38
0
LINE
8
BLACK
6
CONTINUOUS
10
140.631
20
-120.38
11
140.203
21
-119.834
0
LINE
8
BLACK
6
CONTINUOUS
10
140.203
20
-119.834
11
140.199
21
-119.828
0
LINE
8
BLACK
6
CONTINUOUS
10
140.199
20
-119.828
11
140.197
21
-119.826
0
LINE
8
BLACK
6
CONTINUOUS
10
140.197
20
-119.826
11
140.196
21
-119.822
0
LINE
8
BLACK
6
CONTINUOUS
10
140.196
20
-119.822
11
140.191
21
-119.812
0
LINE
8
BLACK
6
CONTINUOUS
10
140.191
20
-119.812
11
140.191
21
-119.793
0
LINE
8
BLACK
6
CONTINUOUS
10
140.191
20
-119.793
11
140.188
21
-119.775
0
LINE
8
BLACK
6
CONTINUOUS
10
140.188
20
-119.775
11
140.192
21
-119.768
0
LINE
8
BLACK
6
CONTINUOUS
10
140.192
20
-119.768
11
140.192
21
-119.76
0
LINE
8
BLACK
6
CONTINUOUS
10
140.192
20
-119.76
11
140.205
21
-119.747
0
LINE
8
BLACK
6
CONTINUOUS
10
140.205
20
-119.747
11
140.214
21
-119.731
0
LINE
8
BLACK
6
CONTINUOUS
10
140.214
20
-119.731
11
140.221
21
-119.728
0
LINE
8
BLACK
6
CONTINUOUS
10
140.221
20
-119.728
11
140.227
21
-119.722
0
LINE
8
BLACK
6
CONTINUOUS
10
140.227
20
-119.722
11
140.245
21
-119.719
0
LINE
8
BLACK
6
CONTINUOUS
10
140.245
20
-119.719
11
140.262
21
-119.713
0
LINE
8
BLACK
6
CONTINUOUS
10
140.262
20
-119.713
11
140.786
21
-119.713
0
LINE
8
BLACK
6
CONTINUOUS
10
140.786
20
-119.713
11
140.811
21
-119.718
0
LINE
8
BLACK
6
CONTINUOUS
10
141.907
20
-119.718
11
141.91
21
-119.721
0
LINE
8
BLACK
6
CONTINUOUS
10
141.91
20
-119.721
11
141.914
21
-119.721
0
LINE
8
BLACK
6
CONTINUOUS
10
141.914
20
-119.721
11
142.01
21
-119.769
0
LINE
8
BLACK
6
CONTINUOUS
10
142.01
20
-119.769
11
142.031
21
-119.784
0
LINE
8
BLACK
6
CONTINUOUS
10
142.031
20
-119.784
11
142.035
21
-119.795
0
LINE
8
BLACK
6
CONTINUOUS
10
142.035
20
-119.795
11
142.043
21
-119.802
0
LINE
8
BLACK
6
CONTINUOUS
10
142.043
20
-119.802
11
142.091
21
-119.897
0
LINE
8
BLACK
6
CONTINUOUS
10
142.091
20
-119.897
11
142.098
21
-119.922
0
LINE
8
BLACK
6
CONTINUOUS
10
142.098
20
-119.922
11
142.097
21
-119.927
0
LINE
8
BLACK
6
CONTINUOUS
10
142.097
20
-119.927
11
142.099
21
-119.931
0
LINE
8
BLACK
6
CONTINUOUS
10
142.099
20
-119.931
11
142.099
21
-119.979
0
LINE
8
BLACK
6
CONTINUOUS
10
142.099
20
-119.979
11
142.094
21
-120.004
0
LINE
8
BLACK
6
CONTINUOUS
10
142.094
20
-120.004
11
142.091
21
-120.008
0
LINE
8
BLACK
6
CONTINUOUS
10
142.091
20
-120.008
11
142.091
21
-120.012
0
LINE
8
BLACK
6
CONTINUOUS
10
142.091
20
-120.012
11
142.043
21
-120.107
0
LINE
8
BLACK
6
CONTINUOUS
10
142.043
20
-120.107
11
142.028
21
-120.128
0
LINE
8
BLACK
6
CONTINUOUS
10
142.028
20
-120.128
11
142.017
21
-120.133
0
LINE
8
BLACK
6
CONTINUOUS
10
142.017
20
-120.133
11
142.01
21
-120.141
0
LINE
8
BLACK
6
CONTINUOUS
10
142.01
20
-120.141
11
141.914
21
-120.189
0
LINE
8
BLACK
6
CONTINUOUS
10
141.914
20
-120.189
11
141.89
21
-120.196
0
LINE
8
BLACK
6
CONTINUOUS
10
141.89
20
-120.196
11
141.885
21
-120.195
0
LINE
8
BLACK
6
CONTINUOUS
10
141.885
20
-120.195
11
141.881
21
-120.196
0
LINE
8
BLACK
6
CONTINUOUS
10
141.881
20
-120.196
11
141.756
21
-120.196
0
LINE
8
BLACK
6
CONTINUOUS
10
141.756
20
-120.196
11
141.699
21
-120.225
0
LINE
8
BLACK
6
CONTINUOUS
10
141.699
20
-120.225
11
141.67
21
-120.282
0
LINE
8
BLACK
6
CONTINUOUS
10
141.67
20
-120.282
11
141.67
21
-120.294
0
LINE
8
BLACK
6
CONTINUOUS
10
141.67
20
-120.294
11
141.699
21
-120.351
0
LINE
8
BLACK
6
CONTINUOUS
10
141.699
20
-120.351
11
141.756
21
-120.38
0
LINE
8
BLACK
6
CONTINUOUS
10
141.756
20
-120.38
11
141.911
21
-120.38
0
LINE
8
BLACK
6
CONTINUOUS
10
141.911
20
-120.38
11
141.99
21
-120.34
0
LINE
8
BLACK
6
CONTINUOUS
10
141.99
20
-120.34
11
142.015
21
-120.333
0
LINE
8
BLACK
6
CONTINUOUS
10
142.015
20
-120.333
11
142.065
21
-120.345
0
LINE
8
BLACK
6
CONTINUOUS
10
142.065
20
-120.345
11
142.096
21
-120.386
0
LINE
8
BLACK
6
CONTINUOUS
10
142.096
20
-120.386
11
142.093
21
-120.437
0
LINE
8
BLACK
6
CONTINUOUS
10
142.093
20
-120.437
11
142.057
21
-120.474
0
LINE
8
BLACK
6
CONTINUOUS
10
142.057
20
-120.474
11
141.962
21
-120.522
0
LINE
8
BLACK
6
CONTINUOUS
10
141.962
20
-120.522
11
141.937
21
-120.529
0
LINE
8
BLACK
6
CONTINUOUS
10
141.937
20
-120.529
11
141.933
21
-120.528
0
LINE
8
BLACK
6
CONTINUOUS
10
141.933
20
-120.528
11
141.929
21
-120.53
0
LINE
8
BLACK
6
CONTINUOUS
10
141.929
20
-120.53
11
141.738
21
-120.53
0
LINE
8
BLACK
6
CONTINUOUS
10
141.738
20
-120.53
11
141.712
21
-120.525
0
LINE
8
BLACK
6
CONTINUOUS
10
141.712
20
-120.525
11
141.709
21
-120.522
0
LINE
8
BLACK
6
CONTINUOUS
10
141.709
20
-120.522
11
141.705
21
-120.522
0
LINE
8
BLACK
6
CONTINUOUS
10
141.705
20
-120.522
11
141.609
21
-120.474
0
LINE
8
BLACK
6
CONTINUOUS
10
141.609
20
-120.474
11
141.588
21
-120.459
0
LINE
8
BLACK
6
CONTINUOUS
10
141.588
20
-120.459
11
141.584
21
-120.448
0
LINE
8
BLACK
6
CONTINUOUS
10
141.584
20
-120.448
11
141.576
21
-120.441
0
LINE
8
BLACK
6
CONTINUOUS
10
141.576
20
-120.441
11
141.528
21
-120.346
0
LINE
8
BLACK
6
CONTINUOUS
10
141.528
20
-120.346
11
141.521
21
-120.321
0
LINE
8
BLACK
6
CONTINUOUS
10
141.521
20
-120.321
11
141.522
21
-120.316
0
LINE
8
BLACK
6
CONTINUOUS
10
141.522
20
-120.316
11
141.52
21
-120.312
0
LINE
8
BLACK
6
CONTINUOUS
10
141.52
20
-120.312
11
141.52
21
-120.264
0
LINE
8
BLACK
6
CONTINUOUS
10
141.52
20
-120.264
11
141.525
21
-120.239
0
LINE
8
BLACK
6
CONTINUOUS
10
141.525
20
-120.239
11
141.528
21
-120.235
0
LINE
8
BLACK
6
CONTINUOUS
10
141.528
20
-120.235
11
141.528
21
-120.231
0
LINE
8
BLACK
6
CONTINUOUS
10
141.528
20
-120.231
11
141.576
21
-120.136
0
LINE
8
BLACK
6
CONTINUOUS
10
141.576
20
-120.136
11
141.591
21
-120.115
0
LINE
8
BLACK
6
CONTINUOUS
10
141.591
20
-120.115
11
141.602
21
-120.11
0
LINE
8
BLACK
6
CONTINUOUS
10
141.602
20
-120.11
11
141.609
21
-120.102
0
LINE
8
BLACK
6
CONTINUOUS
10
141.609
20
-120.102
11
141.705
21
-120.054
0
LINE
8
BLACK
6
CONTINUOUS
10
141.705
20
-120.054
11
141.73
21
-120.047
0
LINE
8
BLACK
6
CONTINUOUS
10
141.73
20
-120.047
11
141.734
21
-120.048
0
LINE
8
BLACK
6
CONTINUOUS
10
141.734
20
-120.048
11
141.738
21
-120.046
0
LINE
8
BLACK
6
CONTINUOUS
10
141.738
20
-120.046
11
141.863
21
-120.046
0
LINE
8
BLACK
6
CONTINUOUS
10
141.863
20
-120.046
11
141.92
21
-120.018
0
LINE
8
BLACK
6
CONTINUOUS
10
141.92
20
-120.018
11
141.949
21
-119.961
0
LINE
8
BLACK
6
CONTINUOUS
10
141.949
20
-119.961
11
141.949
21
-119.949
0
LINE
8
BLACK
6
CONTINUOUS
10
141.949
20
-119.949
11
141.92
21
-119.892
0
LINE
8
BLACK
6
CONTINUOUS
10
141.92
20
-119.892
11
141.863
21
-119.863
0
LINE
8
BLACK
6
CONTINUOUS
10
141.863
20
-119.863
11
141.756
21
-119.863
0
LINE
8
BLACK
6
CONTINUOUS
10
141.756
20
-119.863
11
141.676
21
-119.903
0
LINE
8
BLACK
6
CONTINUOUS
10
141.676
20
-119.903
11
141.651
21
-119.91
0
LINE
8
BLACK
6
CONTINUOUS
10
141.651
20
-119.91
11
141.602
21
-119.898
0
LINE
8
BLACK
6
CONTINUOUS
10
141.602
20
-119.898
11
141.571
21
-119.857
0
LINE
8
BLACK
6
CONTINUOUS
10
141.571
20
-119.857
11
141.574
21
-119.806
0
LINE
8
BLACK
6
CONTINUOUS
10
141.574
20
-119.806
11
141.609
21
-119.769
0
LINE
8
BLACK
6
CONTINUOUS
10
141.609
20
-119.769
11
141.705
21
-119.721
0
LINE
8
BLACK
6
CONTINUOUS
10
141.705
20
-119.721
11
141.73
21
-119.714
0
LINE
8
BLACK
6
CONTINUOUS
10
141.73
20
-119.714
11
141.734
21
-119.715
0
LINE
8
BLACK
6
CONTINUOUS
10
141.734
20
-119.715
11
141.738
21
-119.713
0
LINE
8
BLACK
6
CONTINUOUS
10
141.738
20
-119.713
11
141.881
21
-119.713
0
LINE
8
BLACK
6
CONTINUOUS
10
141.881
20
-119.713
11
141.907
21
-119.718
0
LINE
8
BLACK
6
CONTINUOUS
10
142.764
20
-119.718
11
142.767
21
-119.721
0
LINE
8
BLACK
6
CONTINUOUS
10
142.767
20
-119.721
11
142.772
21
-119.721
0
LINE
8
BLACK
6
CONTINUOUS
10
142.772
20
-119.721
11
142.867
21
-119.769
0
LINE
8
BLACK
6
CONTINUOUS
10
142.867
20
-119.769
11
142.888
21
-119.784
0
LINE
8
BLACK
6
CONTINUOUS
10
142.888
20
-119.784
11
142.892
21
-119.795
0
LINE
8
BLACK
6
CONTINUOUS
10
142.892
20
-119.795
11
142.9
21
-119.802
0
LINE
8
BLACK
6
CONTINUOUS
10
142.9
20
-119.802
11
142.948
21
-119.897
0
LINE
8
BLACK
6
CONTINUOUS
10
142.948
20
-119.897
11
142.955
21
-119.922
0
LINE
8
BLACK
6
CONTINUOUS
10
142.955
20
-119.922
11
142.954
21
-119.927
0
LINE
8
BLACK
6
CONTINUOUS
10
142.954
20
-119.927
11
142.956
21
-119.931
0
LINE
8
BLACK
6
CONTINUOUS
10
142.956
20
-119.931
11
142.956
21
-120.312
0
LINE
8
BLACK
6
CONTINUOUS
10
142.956
20
-120.312
11
142.951
21
-120.338
0
LINE
8
BLACK
6
CONTINUOUS
10
142.951
20
-120.338
11
142.949
21
-120.341
0
LINE
8
BLACK
6
CONTINUOUS
10
142.949
20
-120.341
11
142.948
21
-120.346
0
LINE
8
BLACK
6
CONTINUOUS
10
142.948
20
-120.346
11
142.9
21
-120.441
0
LINE
8
BLACK
6
CONTINUOUS
10
142.9
20
-120.441
11
142.885
21
-120.462
0
LINE
8
BLACK
6
CONTINUOUS
10
142.885
20
-120.462
11
142.875
21
-120.466
0
LINE
8
BLACK
6
CONTINUOUS
10
142.875
20
-120.466
11
142.867
21
-120.474
0
LINE
8
BLACK
6
CONTINUOUS
10
142.867
20
-120.474
11
142.772
21
-120.522
0
LINE
8
BLACK
6
CONTINUOUS
10
142.772
20
-120.522
11
142.747
21
-120.529
0
LINE
8
BLACK
6
CONTINUOUS
10
142.747
20
-120.529
11
142.742
21
-120.528
0
LINE
8
BLACK
6
CONTINUOUS
10
142.742
20
-120.528
11
142.738
21
-120.53
0
LINE
8
BLACK
6
CONTINUOUS
10
142.738
20
-120.53
11
142.548
21
-120.53
0
LINE
8
BLACK
6
CONTINUOUS
10
142.548
20
-120.53
11
142.522
21
-120.525
0
LINE
8
BLACK
6
CONTINUOUS
10
142.522
20
-120.525
11
142.519
21
-120.522
0
LINE
8
BLACK
6
CONTINUOUS
10
142.519
20
-120.522
11
142.514
21
-120.522
0
LINE
8
BLACK
6
CONTINUOUS
10
142.514
20
-120.522
11
142.419
21
-120.474
0
LINE
8
BLACK
6
CONTINUOUS
10
142.419
20
-120.474
11
142.398
21
-120.459
0
LINE
8
BLACK
6
CONTINUOUS
10
142.398
20
-120.459
11
142.378
21
-120.412
0
LINE
8
BLACK
6
CONTINUOUS
10
142.378
20
-120.412
11
142.392
21
-120.363
0
LINE
8
BLACK
6
CONTINUOUS
10
142.392
20
-120.363
11
142.435
21
-120.334
0
LINE
8
BLACK
6
CONTINUOUS
10
142.435
20
-120.334
11
142.486
21
-120.34
0
LINE
8
BLACK
6
CONTINUOUS
10
142.486
20
-120.34
11
142.565
21
-120.38
0
LINE
8
BLACK
6
CONTINUOUS
10
142.565
20
-120.38
11
142.72
21
-120.38
0
LINE
8
BLACK
6
CONTINUOUS
10
142.72
20
-120.38
11
142.777
21
-120.351
0
LINE
8
BLACK
6
CONTINUOUS
10
142.777
20
-120.351
11
142.806
21
-120.294
0
LINE
8
BLACK
6
CONTINUOUS
10
142.806
20
-120.294
11
142.806
21
-120.183
0
LINE
8
BLACK
6
CONTINUOUS
10
142.806
20
-120.183
11
142.39
21
-120.1
0
LINE
8
BLACK
6
CONTINUOUS
10
142.39
20
-120.1
11
142.366
21
-120.09
0
LINE
8
BLACK
6
CONTINUOUS
10
142.366
20
-120.09
11
142.358
21
-120.081
0
LINE
8
BLACK
6
CONTINUOUS
10
142.358
20
-120.081
11
142.347
21
-120.074
0
LINE
8
BLACK
6
CONTINUOUS
10
142.347
20
-120.074
11
142.343
21
-120.061
0
LINE
8
BLACK
6
CONTINUOUS
10
142.343
20
-120.061
11
142.334
21
-120.05
0
LINE
8
BLACK
6
CONTINUOUS
10
142.334
20
-120.05
11
142.334
21
-120.038
0
LINE
8
BLACK
6
CONTINUOUS
10
142.334
20
-120.038
11
142.33
21
-120.026
0
LINE
8
BLACK
6
CONTINUOUS
10
142.33
20
-120.026
11
142.33
21
-119.931
0
LINE
8
BLACK
6
CONTINUOUS
10
142.33
20
-119.931
11
142.334
21
-119.905
0
LINE
8
BLACK
6
CONTINUOUS
10
142.334
20
-119.905
11
142.337
21
-119.902
0
LINE
8
BLACK
6
CONTINUOUS
10
142.337
20
-119.902
11
142.338
21
-119.897
0
LINE
8
BLACK
6
CONTINUOUS
10
142.338
20
-119.897
11
142.385
21
-119.802
0
LINE
8
BLACK
6
CONTINUOUS
10
142.385
20
-119.802
11
142.401
21
-119.781
0
LINE
8
BLACK
6
CONTINUOUS
10
142.401
20
-119.781
11
142.411
21
-119.777
0
LINE
8
BLACK
6
CONTINUOUS
10
142.411
20
-119.777
11
142.419
21
-119.769
0
LINE
8
BLACK
6
CONTINUOUS
10
142.419
20
-119.769
11
142.514
21
-119.721
0
LINE
8
BLACK
6
CONTINUOUS
10
142.514
20
-119.721
11
142.539
21
-119.714
0
LINE
8
BLACK
6
CONTINUOUS
10
142.539
20
-119.714
11
142.543
21
-119.715
0
LINE
8
BLACK
6
CONTINUOUS
10
142.543
20
-119.715
11
142.548
21
-119.713
0
LINE
8
BLACK
6
CONTINUOUS
10
142.548
20
-119.713
11
142.738
21
-119.713
0
LINE
8
BLACK
6
CONTINUOUS
10
142.738
20
-119.713
11
142.764
21
-119.718
0
LINE
8
BLACK
6
CONTINUOUS
10
142.508
20
-119.892
11
142.48
21
-119.949
0
LINE
8
BLACK
6
CONTINUOUS
10
142.48
20
-119.949
11
142.48
21
-119.965
0
LINE
8
BLACK
6
CONTINUOUS
10
142.48
20
-119.965
11
142.806
21
-120.03
0
LINE
8
BLACK
6
CONTINUOUS
10
142.806
20
-120.03
11
142.806
21
-119.949
0
LINE
8
BLACK
6
CONTINUOUS
10
142.806
20
-119.949
11
142.777
21
-119.892
0
LINE
8
BLACK
6
CONTINUOUS
10
142.777
20
-119.892
11
142.72
21
-119.863
0
LINE
8
BLACK
6
CONTINUOUS
10
142.72
20
-119.863
11
142.565
21
-119.863
0
LINE
8
BLACK
6
CONTINUOUS
10
142.565
20
-119.863
11
142.508
21
-119.892
0
LINE
8
BLACK
6
CONTINUOUS
10
144.367
20
-119.407
11
144.385
21
-119.455
0
LINE
8
BLACK
6
CONTINUOUS
10
144.385
20
-119.455
11
144.385
21
-119.713
0
LINE
8
BLACK
6
CONTINUOUS
10
144.385
20
-119.713
11
144.452
21
-119.713
0
LINE
8
BLACK
6
CONTINUOUS
10
144.452
20
-119.713
11
144.478
21
-119.718
0
LINE
8
BLACK
6
CONTINUOUS
10
144.478
20
-119.718
11
144.517
21
-119.751
0
LINE
8
BLACK
6
CONTINUOUS
10
144.517
20
-119.751
11
144.526
21
-119.801
0
LINE
8
BLACK
6
CONTINUOUS
10
144.526
20
-119.801
11
144.501
21
-119.846
0
LINE
8
BLACK
6
CONTINUOUS
10
144.501
20
-119.846
11
144.452
21
-119.863
0
LINE
8
BLACK
6
CONTINUOUS
10
144.452
20
-119.863
11
144.385
21
-119.863
0
LINE
8
BLACK
6
CONTINUOUS
10
144.385
20
-119.863
11
144.385
21
-120.312
0
LINE
8
BLACK
6
CONTINUOUS
10
144.385
20
-120.312
11
144.38
21
-120.338
0
LINE
8
BLACK
6
CONTINUOUS
10
144.38
20
-120.338
11
144.377
21
-120.341
0
LINE
8
BLACK
6
CONTINUOUS
10
144.377
20
-120.341
11
144.377
21
-120.346
0
LINE
8
BLACK
6
CONTINUOUS
10
144.377
20
-120.346
11
144.329
21
-120.441
0
LINE
8
BLACK
6
CONTINUOUS
10
144.329
20
-120.441
11
144.313
21
-120.462
0
LINE
8
BLACK
6
CONTINUOUS
10
144.313
20
-120.462
11
144.303
21
-120.466
0
LINE
8
BLACK
6
CONTINUOUS
10
144.303
20
-120.466
11
144.295
21
-120.474
0
LINE
8
BLACK
6
CONTINUOUS
10
144.295
20
-120.474
11
144.2
21
-120.522
0
LINE
8
BLACK
6
CONTINUOUS
10
144.2
20
-120.522
11
144.175
21
-120.529
0
LINE
8
BLACK
6
CONTINUOUS
10
144.175
20
-120.529
11
144.171
21
-120.528
0
LINE
8
BLACK
6
CONTINUOUS
10
144.171
20
-120.528
11
144.167
21
-120.53
0
LINE
8
BLACK
6
CONTINUOUS
10
144.167
20
-120.53
11
144.071
21
-120.53
0
LINE
8
BLACK
6
CONTINUOUS
10
144.071
20
-120.53
11
144.046
21
-120.525
0
LINE
8
BLACK
6
CONTINUOUS
10
144.046
20
-120.525
11
144.006
21
-120.492
0
LINE
8
BLACK
6
CONTINUOUS
10
144.006
20
-120.492
11
143.998
21
-120.442
0
LINE
8
BLACK
6
CONTINUOUS
10
143.998
20
-120.442
11
144.023
21
-120.397
0
LINE
8
BLACK
6
CONTINUOUS
10
144.023
20
-120.397
11
144.071
21
-120.38
0
LINE
8
BLACK
6
CONTINUOUS
10
144.071
20
-120.38
11
144.149
21
-120.38
0
LINE
8
BLACK
6
CONTINUOUS
10
144.149
20
-120.38
11
144.206
21
-120.351
0
LINE
8
BLACK
6
CONTINUOUS
10
144.206
20
-120.351
11
144.235
21
-120.294
0
LINE
8
BLACK
6
CONTINUOUS
10
144.235
20
-120.294
11
144.235
21
-119.863
0
LINE
8
BLACK
6
CONTINUOUS
10
144.235
20
-119.863
11
144.071
21
-119.863
0
LINE
8
BLACK
6
CONTINUOUS
10
144.071
20
-119.863
11
144.046
21
-119.859
0
LINE
8
BLACK
6
CONTINUOUS
10
144.046
20
-119.859
11
144.006
21
-119.826
0
LINE
8
BLACK
6
CONTINUOUS
10
144.006
20
-119.826
11
143.998
21
-119.775
0
LINE
8
BLACK
6
CONTINUOUS
10
143.998
20
-119.775
11
144.023
21
-119.731
0
LINE
8
BLACK
6
CONTINUOUS
10
144.023
20
-119.731
11
144.071
21
-119.713
0
LINE
8
BLACK
6
CONTINUOUS
10
144.071
20
-119.713
11
144.235
21
-119.713
0
LINE
8
BLACK
6
CONTINUOUS
10
144.235
20
-119.713
11
144.235
21
-119.455
0
LINE
8
BLACK
6
CONTINUOUS
10
144.235
20
-119.455
11
144.239
21
-119.429
0
LINE
8
BLACK
6
CONTINUOUS
10
144.239
20
-119.429
11
144.272
21
-119.39
0
LINE
8
BLACK
6
CONTINUOUS
10
144.272
20
-119.39
11
144.323
21
-119.381
0
LINE
8
BLACK
6
CONTINUOUS
10
144.323
20
-119.381
11
144.367
21
-119.407
0
LINE
8
BLACK
6
CONTINUOUS
10
146.811
20
-119.384
11
146.815
21
-119.387
0
LINE
8
BLACK
6
CONTINUOUS
10
146.815
20
-119.387
11
146.819
21
-119.388
0
LINE
8
BLACK
6
CONTINUOUS
10
146.819
20
-119.388
11
146.914
21
-119.435
0
LINE
8
BLACK
6
CONTINUOUS
10
146.914
20
-119.435
11
146.933
21
-119.449
0
LINE
8
BLACK
6
CONTINUOUS
10
146.933
20
-119.449
11
146.934
21
-119.449
0
LINE
8
BLACK
6
CONTINUOUS
10
146.934
20
-119.449
11
146.982
21
-119.497
0
LINE
8
BLACK
6
CONTINUOUS
10
146.982
20
-119.497
11
146.994
21
-119.515
0
LINE
8
BLACK
6
CONTINUOUS
10
146.994
20
-119.515
11
146.996
21
-119.517
0
LINE
8
BLACK
6
CONTINUOUS
10
146.996
20
-119.517
11
147.043
21
-119.612
0
LINE
8
BLACK
6
CONTINUOUS
10
147.043
20
-119.612
11
147.051
21
-119.637
0
LINE
8
BLACK
6
CONTINUOUS
10
147.051
20
-119.637
11
147.05
21
-119.641
0
LINE
8
BLACK
6
CONTINUOUS
10
147.05
20
-119.641
11
147.051
21
-119.645
0
LINE
8
BLACK
6
CONTINUOUS
10
147.051
20
-119.645
11
147.051
21
-119.741
0
LINE
8
BLACK
6
CONTINUOUS
10
147.051
20
-119.741
11
147.047
21
-119.766
0
LINE
8
BLACK
6
CONTINUOUS
10
147.047
20
-119.766
11
147.044
21
-119.77
0
LINE
8
BLACK
6
CONTINUOUS
10
147.044
20
-119.77
11
147.043
21
-119.774
0
LINE
8
BLACK
6
CONTINUOUS
10
147.043
20
-119.774
11
146.996
21
-119.869
0
LINE
8
BLACK
6
CONTINUOUS
10
146.996
20
-119.869
11
146.982
21
-119.887
0
LINE
8
BLACK
6
CONTINUOUS
10
146.982
20
-119.887
11
146.982
21
-119.889
0
LINE
8
BLACK
6
CONTINUOUS
10
146.982
20
-119.889
11
146.934
21
-119.936
0
LINE
8
BLACK
6
CONTINUOUS
10
146.934
20
-119.936
11
146.916
21
-119.949
0
LINE
8
BLACK
6
CONTINUOUS
10
146.916
20
-119.949
11
146.914
21
-119.95
0
LINE
8
BLACK
6
CONTINUOUS
10
146.914
20
-119.95
11
146.819
21
-119.998
0
LINE
8
BLACK
6
CONTINUOUS
10
146.819
20
-119.998
11
146.807
21
-120.002
0
LINE
8
BLACK
6
CONTINUOUS
10
146.807
20
-120.002
11
146.804
21
-120.004
0
LINE
8
BLACK
6
CONTINUOUS
10
146.804
20
-120.004
11
146.621
21
-120.049
0
LINE
8
BLACK
6
CONTINUOUS
10
146.621
20
-120.049
11
146.544
21
-120.088
0
LINE
8
BLACK
6
CONTINUOUS
10
146.544
20
-120.088
11
146.514
21
-120.118
0
LINE
8
BLACK
6
CONTINUOUS
10
146.514
20
-120.118
11
146.48
21
-120.187
0
LINE
8
BLACK
6
CONTINUOUS
10
146.48
20
-120.187
11
146.48
21
-120.247
0
LINE
8
BLACK
6
CONTINUOUS
10
146.48
20
-120.247
11
146.514
21
-120.315
0
LINE
8
BLACK
6
CONTINUOUS
10
146.514
20
-120.315
11
146.544
21
-120.346
0
LINE
8
BLACK
6
CONTINUOUS
10
146.544
20
-120.346
11
146.613
21
-120.38
0
LINE
8
BLACK
6
CONTINUOUS
10
146.613
20
-120.38
11
146.821
21
-120.38
0
LINE
8
BLACK
6
CONTINUOUS
10
146.821
20
-120.38
11
146.952
21
-120.336
0
LINE
8
BLACK
6
CONTINUOUS
10
146.952
20
-120.336
11
146.978
21
-120.332
0
LINE
8
BLACK
6
CONTINUOUS
10
146.978
20
-120.332
11
147.026
21
-120.351
0
LINE
8
BLACK
6
CONTINUOUS
10
147.026
20
-120.351
11
147.05
21
-120.396
0
LINE
8
BLACK
6
CONTINUOUS
10
147.05
20
-120.396
11
147.04
21
-120.446
0
LINE
8
BLACK
6
CONTINUOUS
10
147.04
20
-120.446
11
147
21
-120.478
0
LINE
8
BLACK
6
CONTINUOUS
10
147
20
-120.478
11
146.857
21
-120.526
0
LINE
8
BLACK
6
CONTINUOUS
10
146.857
20
-120.526
11
146.835
21
-120.529
0
LINE
8
BLACK
6
CONTINUOUS
10
146.835
20
-120.529
11
146.833
21
-120.53
0
LINE
8
BLACK
6
CONTINUOUS
10
146.833
20
-120.53
11
146.595
21
-120.53
0
LINE
8
BLACK
6
CONTINUOUS
10
146.595
20
-120.53
11
146.57
21
-120.525
0
LINE
8
BLACK
6
CONTINUOUS
10
146.57
20
-120.525
11
146.566
21
-120.522
0
LINE
8
BLACK
6
CONTINUOUS
10
146.566
20
-120.522
11
146.562
21
-120.522
0
LINE
8
BLACK
6
CONTINUOUS
10
146.562
20
-120.522
11
146.466
21
-120.474
0
LINE
8
BLACK
6
CONTINUOUS
10
146.466
20
-120.474
11
146.448
21
-120.461
0
LINE
8
BLACK
6
CONTINUOUS
10
146.448
20
-120.461
11
146.447
21
-120.46
0
LINE
8
BLACK
6
CONTINUOUS
10
146.447
20
-120.46
11
146.399
21
-120.413
0
LINE
8
BLACK
6
CONTINUOUS
10
146.399
20
-120.413
11
146.386
21
-120.394
0
LINE
8
BLACK
6
CONTINUOUS
10
146.386
20
-120.394
11
146.385
21
-120.393
0
LINE
8
BLACK
6
CONTINUOUS
10
146.385
20
-120.393
11
146.338
21
-120.298
0
LINE
8
BLACK
6
CONTINUOUS
10
146.338
20
-120.298
11
146.33
21
-120.273
0
LINE
8
BLACK
6
CONTINUOUS
10
146.33
20
-120.273
11
146.331
21
-120.269
0
LINE
8
BLACK
6
CONTINUOUS
10
146.331
20
-120.269
11
146.33
21
-120.264
0
LINE
8
BLACK
6
CONTINUOUS
10
146.33
20
-120.264
11
146.33
21
-120.169
0
LINE
8
BLACK
6
CONTINUOUS
10
146.33
20
-120.169
11
146.334
21
-120.143
0
LINE
8
BLACK
6
CONTINUOUS
10
146.334
20
-120.143
11
146.337
21
-120.14
0
LINE
8
BLACK
6
CONTINUOUS
10
146.337
20
-120.14
11
146.338
21
-120.136
0
LINE
8
BLACK
6
CONTINUOUS
10
146.338
20
-120.136
11
146.385
21
-120.04
0
LINE
8
BLACK
6
CONTINUOUS
10
146.385
20
-120.04
11
146.399
21
-120.022
0
LINE
8
BLACK
6
CONTINUOUS
10
146.399
20
-120.022
11
146.399
21
-120.021
0
LINE
8
BLACK
6
CONTINUOUS
10
146.399
20
-120.021
11
146.447
21
-119.973
0
LINE
8
BLACK
6
CONTINUOUS
10
146.447
20
-119.973
11
146.465
21
-119.96
0
LINE
8
BLACK
6
CONTINUOUS
10
146.465
20
-119.96
11
146.466
21
-119.959
0
LINE
8
BLACK
6
CONTINUOUS
10
146.466
20
-119.959
11
146.562
21
-119.912
0
LINE
8
BLACK
6
CONTINUOUS
10
146.562
20
-119.912
11
146.574
21
-119.908
0
LINE
8
BLACK
6
CONTINUOUS
10
146.574
20
-119.908
11
146.577
21
-119.906
0
LINE
8
BLACK
6
CONTINUOUS
10
146.577
20
-119.906
11
146.76
21
-119.86
0
LINE
8
BLACK
6
CONTINUOUS
10
146.76
20
-119.86
11
146.837
21
-119.822
0
LINE
8
BLACK
6
CONTINUOUS
10
146.837
20
-119.822
11
146.867
21
-119.791
0
LINE
8
BLACK
6
CONTINUOUS
10
146.867
20
-119.791
11
146.901
21
-119.723
0
LINE
8
BLACK
6
CONTINUOUS
10
146.901
20
-119.723
11
146.901
21
-119.663
0
LINE
8
BLACK
6
CONTINUOUS
10
146.901
20
-119.663
11
146.867
21
-119.594
0
LINE
8
BLACK
6
CONTINUOUS
10
146.867
20
-119.594
11
146.837
21
-119.564
0
LINE
8
BLACK
6
CONTINUOUS
10
146.837
20
-119.564
11
146.768
21
-119.53
0
LINE
8
BLACK
6
CONTINUOUS
10
146.768
20
-119.53
11
146.56
21
-119.53
0
LINE
8
BLACK
6
CONTINUOUS
10
146.56
20
-119.53
11
146.428
21
-119.574
0
LINE
8
BLACK
6
CONTINUOUS
10
146.428
20
-119.574
11
146.403
21
-119.577
0
LINE
8
BLACK
6
CONTINUOUS
10
146.403
20
-119.577
11
146.355
21
-119.559
0
LINE
8
BLACK
6
CONTINUOUS
10
146.355
20
-119.559
11
146.331
21
-119.513
0
LINE
8
BLACK
6
CONTINUOUS
10
146.331
20
-119.513
11
146.341
21
-119.463
0
LINE
8
BLACK
6
CONTINUOUS
10
146.341
20
-119.463
11
146.381
21
-119.431
0
LINE
8
BLACK
6
CONTINUOUS
10
146.381
20
-119.431
11
146.524
21
-119.384
0
LINE
8
BLACK
6
CONTINUOUS
10
146.524
20
-119.384
11
146.546
21
-119.38
0
LINE
8
BLACK
6
CONTINUOUS
10
146.546
20
-119.38
11
146.548
21
-119.38
0
LINE
8
BLACK
6
CONTINUOUS
10
146.548
20
-119.38
11
146.786
21
-119.38
0
LINE
8
BLACK
6
CONTINUOUS
10
146.786
20
-119.38
11
146.811
21
-119.384
0
LINE
8
BLACK
6
CONTINUOUS
10
149.145
20
-119.718
11
149.148
21
-119.721
0
LINE
8
BLACK
6
CONTINUOUS
10
149.148
20
-119.721
11
149.153
21
-119.721
0
LINE
8
BLACK
6
CONTINUOUS
10
149.153
20
-119.721
11
149.248
21
-119.769
0
LINE
8
BLACK
6
CONTINUOUS
10
149.248
20
-119.769
11
149.269
21
-119.784
0
LINE
8
BLACK
6
CONTINUOUS
10
149.269
20
-119.784
11
149.289
21
-119.831
0
LINE
8
BLACK
6
CONTINUOUS
10
149.289
20
-119.831
11
149.275
21
-119.88
0
LINE
8
BLACK
6
CONTINUOUS
10
149.275
20
-119.88
11
149.232
21
-119.909
0
LINE
8
BLACK
6
CONTINUOUS
10
149.232
20
-119.909
11
149.181
21
-119.903
0
LINE
8
BLACK
6
CONTINUOUS
10
149.181
20
-119.903
11
149.101
21
-119.863
0
LINE
8
BLACK
6
CONTINUOUS
10
149.101
20
-119.863
11
148.946
21
-119.863
0
LINE
8
BLACK
6
CONTINUOUS
10
148.946
20
-119.863
11
148.889
21
-119.892
0
LINE
8
BLACK
6
CONTINUOUS
10
148.889
20
-119.892
11
148.861
21
-119.949
0
LINE
8
BLACK
6
CONTINUOUS
10
148.861
20
-119.949
11
148.861
21
-119.98
0
LINE
8
BLACK
6
CONTINUOUS
10
148.861
20
-119.98
11
148.899
21
-119.999
0
LINE
8
BLACK
6
CONTINUOUS
10
148.899
20
-119.999
11
149.119
21
-119.999
0
LINE
8
BLACK
6
CONTINUOUS
10
149.119
20
-119.999
11
149.145
21
-120.003
0
LINE
8
BLACK
6
CONTINUOUS
10
149.145
20
-120.003
11
149.148
21
-120.006
0
LINE
8
BLACK
6
CONTINUOUS
10
149.148
20
-120.006
11
149.153
21
-120.007
0
LINE
8
BLACK
6
CONTINUOUS
10
149.153
20
-120.007
11
149.248
21
-120.054
0
LINE
8
BLACK
6
CONTINUOUS
10
149.248
20
-120.054
11
149.269
21
-120.07
0
LINE
8
BLACK
6
CONTINUOUS
10
149.269
20
-120.07
11
149.273
21
-120.08
0
LINE
8
BLACK
6
CONTINUOUS
10
149.273
20
-120.08
11
149.281
21
-120.088
0
LINE
8
BLACK
6
CONTINUOUS
10
149.281
20
-120.088
11
149.329
21
-120.183
0
LINE
8
BLACK
6
CONTINUOUS
10
149.329
20
-120.183
11
149.336
21
-120.208
0
LINE
8
BLACK
6
CONTINUOUS
10
149.336
20
-120.208
11
149.335
21
-120.213
0
LINE
8
BLACK
6
CONTINUOUS
10
149.335
20
-120.213
11
149.337
21
-120.217
0
LINE
8
BLACK
6
CONTINUOUS
10
149.337
20
-120.217
11
149.337
21
-120.312
0
LINE
8
BLACK
6
CONTINUOUS
10
149.337
20
-120.312
11
149.332
21
-120.338
0
LINE
8
BLACK
6
CONTINUOUS
10
149.332
20
-120.338
11
149.329
21
-120.341
0
LINE
8
BLACK
6
CONTINUOUS
10
149.329
20
-120.341
11
149.329
21
-120.346
0
LINE
8
BLACK
6
CONTINUOUS
10
149.329
20
-120.346
11
149.281
21
-120.441
0
LINE
8
BLACK
6
CONTINUOUS
10
149.281
20
-120.441
11
149.266
21
-120.462
0
LINE
8
BLACK
6
CONTINUOUS
10
149.266
20
-120.462
11
149.256
21
-120.466
0
LINE
8
BLACK
6
CONTINUOUS
10
149.256
20
-120.466
11
149.248
21
-120.474
0
LINE
8
BLACK
6
CONTINUOUS
10
149.248
20
-120.474
11
149.153
21
-120.522
0
LINE
8
BLACK
6
CONTINUOUS
10
149.153
20
-120.522
11
149.128
21
-120.529
0
LINE
8
BLACK
6
CONTINUOUS
10
149.128
20
-120.529
11
149.123
21
-120.528
0
LINE
8
BLACK
6
CONTINUOUS
10
149.123
20
-120.528
11
149.119
21
-120.53
0
LINE
8
BLACK
6
CONTINUOUS
10
149.119
20
-120.53
11
148.881
21
-120.53
0
LINE
8
BLACK
6
CONTINUOUS
10
148.881
20
-120.53
11
148.855
21
-120.525
0
LINE
8
BLACK
6
CONTINUOUS
10
148.855
20
-120.525
11
148.852
21
-120.522
0
LINE
8
BLACK
6
CONTINUOUS
10
148.852
20
-120.522
11
148.847
21
-120.522
0
LINE
8
BLACK
6
CONTINUOUS
10
148.847
20
-120.522
11
148.829
21
-120.513
0
LINE
8
BLACK
6
CONTINUOUS
10
148.829
20
-120.513
11
148.823
21
-120.52
0
LINE
8
BLACK
6
CONTINUOUS
10
148.823
20
-120.52
11
148.773
21
-120.529
0
LINE
8
BLACK
6
CONTINUOUS
10
148.773
20
-120.529
11
148.728
21
-120.503
0
LINE
8
BLACK
6
CONTINUOUS
10
148.728
20
-120.503
11
148.711
21
-120.455
0
LINE
8
BLACK
6
CONTINUOUS
10
148.711
20
-120.455
11
148.711
21
-119.931
0
LINE
8
BLACK
6
CONTINUOUS
10
148.711
20
-119.931
11
148.715
21
-119.905
0
LINE
8
BLACK
6
CONTINUOUS
10
148.715
20
-119.905
11
148.718
21
-119.902
0
LINE
8
BLACK
6
CONTINUOUS
10
148.718
20
-119.902
11
148.719
21
-119.897
0
LINE
8
BLACK
6
CONTINUOUS
10
148.719
20
-119.897
11
148.766
21
-119.802
0
LINE
8
BLACK
6
CONTINUOUS
10
148.766
20
-119.802
11
148.782
21
-119.781
0
LINE
8
BLACK
6
CONTINUOUS
10
148.782
20
-119.781
11
148.792
21
-119.777
0
LINE
8
BLACK
6
CONTINUOUS
10
148.792
20
-119.777
11
148.8
21
-119.769
0
LINE
8
BLACK
6
CONTINUOUS
10
148.8
20
-119.769
11
148.895
21
-119.721
0
LINE
8
BLACK
6
CONTINUOUS
10
148.895
20
-119.721
11
148.92
21
-119.714
0
LINE
8
BLACK
6
CONTINUOUS
10
148.92
20
-119.714
11
148.924
21
-119.715
0
LINE
8
BLACK
6
CONTINUOUS
10
148.924
20
-119.715
11
148.929
21
-119.713
0
LINE
8
BLACK
6
CONTINUOUS
10
148.929
20
-119.713
11
149.119
21
-119.713
0
LINE
8
BLACK
6
CONTINUOUS
10
149.119
20
-119.713
11
149.145
21
-119.718
0
LINE
8
BLACK
6
CONTINUOUS
10
148.861
20
-120.361
11
148.899
21
-120.38
0
LINE
8
BLACK
6
CONTINUOUS
10
148.899
20
-120.38
11
149.101
21
-120.38
0
LINE
8
BLACK
6
CONTINUOUS
10
149.101
20
-120.38
11
149.158
21
-120.351
0
LINE
8
BLACK
6
CONTINUOUS
10
149.158
20
-120.351
11
149.187
21
-120.294
0
LINE
8
BLACK
6
CONTINUOUS
10
149.187
20
-120.294
11
149.187
21
-120.234
0
LINE
8
BLACK
6
CONTINUOUS
10
149.187
20
-120.234
11
149.158
21
-120.177
0
LINE
8
BLACK
6
CONTINUOUS
10
149.158
20
-120.177
11
149.101
21
-120.149
0
LINE
8
BLACK
6
CONTINUOUS
10
149.101
20
-120.149
11
148.881
21
-120.149
0
LINE
8
BLACK
6
CONTINUOUS
10
148.881
20
-120.149
11
148.861
21
-120.145
0
LINE
8
BLACK
6
CONTINUOUS
10
148.861
20
-120.145
11
148.861
21
-120.361
0
LINE
8
BLACK
6
CONTINUOUS
10
150.7
20
-119.74
11
150.718
21
-119.788
0
LINE
8
BLACK
6
CONTINUOUS
10
150.718
20
-119.788
11
150.718
21
-120.312
0
LINE
8
BLACK
6
CONTINUOUS
10
150.718
20
-120.312
11
150.713
21
-120.338
0
LINE
8
BLACK
6
CONTINUOUS
10
150.713
20
-120.338
11
150.71
21
-120.341
0
LINE
8
BLACK
6
CONTINUOUS
10
150.71
20
-120.341
11
150.71
21
-120.346
0
LINE
8
BLACK
6
CONTINUOUS
10
150.71
20
-120.346
11
150.662
21
-120.441
0
LINE
8
BLACK
6
CONTINUOUS
10
150.662
20
-120.441
11
150.647
21
-120.462
0
LINE
8
BLACK
6
CONTINUOUS
10
150.647
20
-120.462
11
150.636
21
-120.466
0
LINE
8
BLACK
6
CONTINUOUS
10
150.636
20
-120.466
11
150.629
21
-120.474
0
LINE
8
BLACK
6
CONTINUOUS
10
150.629
20
-120.474
11
150.534
21
-120.522
0
LINE
8
BLACK
6
CONTINUOUS
10
150.534
20
-120.522
11
150.509
21
-120.529
0
LINE
8
BLACK
6
CONTINUOUS
10
150.509
20
-120.529
11
150.504
21
-120.528
0
LINE
8
BLACK
6
CONTINUOUS
10
150.504
20
-120.528
11
150.5
21
-120.53
0
LINE
8
BLACK
6
CONTINUOUS
10
150.5
20
-120.53
11
150.357
21
-120.53
0
LINE
8
BLACK
6
CONTINUOUS
10
150.357
20
-120.53
11
150.331
21
-120.525
0
LINE
8
BLACK
6
CONTINUOUS
10
150.331
20
-120.525
11
150.328
21
-120.522
0
LINE
8
BLACK
6
CONTINUOUS
10
150.328
20
-120.522
11
150.324
21
-120.522
0
LINE
8
BLACK
6
CONTINUOUS
10
150.324
20
-120.522
11
150.272
21
-120.496
0
LINE
8
BLACK
6
CONTINUOUS
10
150.272
20
-120.496
11
150.252
21
-120.52
0
LINE
8
BLACK
6
CONTINUOUS
10
150.252
20
-120.52
11
150.201
21
-120.529
0
LINE
8
BLACK
6
CONTINUOUS
10
150.201
20
-120.529
11
150.157
21
-120.503
0
LINE
8
BLACK
6
CONTINUOUS
10
150.157
20
-120.503
11
150.139
21
-120.455
0
LINE
8
BLACK
6
CONTINUOUS
10
150.139
20
-120.455
11
150.139
21
-119.788
0
LINE
8
BLACK
6
CONTINUOUS
10
150.139
20
-119.788
11
150.144
21
-119.762
0
LINE
8
BLACK
6
CONTINUOUS
10
150.144
20
-119.762
11
150.177
21
-119.723
0
LINE
8
BLACK
6
CONTINUOUS
10
150.177
20
-119.723
11
150.227
21
-119.714
0
LINE
8
BLACK
6
CONTINUOUS
10
150.227
20
-119.714
11
150.272
21
-119.74
0
LINE
8
BLACK
6
CONTINUOUS
10
150.272
20
-119.74
11
150.289
21
-119.788
0
LINE
8
BLACK
6
CONTINUOUS
10
150.289
20
-119.788
11
150.289
21
-120.329
0
LINE
8
BLACK
6
CONTINUOUS
10
150.289
20
-120.329
11
150.306
21
-120.346
0
LINE
8
BLACK
6
CONTINUOUS
10
150.306
20
-120.346
11
150.375
21
-120.38
0
LINE
8
BLACK
6
CONTINUOUS
10
150.375
20
-120.38
11
150.482
21
-120.38
0
LINE
8
BLACK
6
CONTINUOUS
10
150.482
20
-120.38
11
150.539
21
-120.351
0
LINE
8
BLACK
6
CONTINUOUS
10
150.539
20
-120.351
11
150.568
21
-120.294
0
LINE
8
BLACK
6
CONTINUOUS
10
150.568
20
-120.294
11
150.568
21
-119.788
0
LINE
8
BLACK
6
CONTINUOUS
10
150.568
20
-119.788
11
150.572
21
-119.762
0
LINE
8
BLACK
6
CONTINUOUS
10
150.572
20
-119.762
11
150.605
21
-119.723
0
LINE
8
BLACK
6
CONTINUOUS
10
150.605
20
-119.723
11
150.656
21
-119.714
0
LINE
8
BLACK
6
CONTINUOUS
10
150.656
20
-119.714
11
150.7
21
-119.74
0
LINE
8
BLACK
6
CONTINUOUS
10
151.177
20
-119.407
11
151.194
21
-119.455
0
LINE
8
BLACK
6
CONTINUOUS
10
151.194
20
-119.455
11
151.194
21
-119.717
0
LINE
8
BLACK
6
CONTINUOUS
10
151.194
20
-119.717
11
151.206
21
-119.714
0
LINE
8
BLACK
6
CONTINUOUS
10
151.206
20
-119.714
11
151.21
21
-119.715
0
LINE
8
BLACK
6
CONTINUOUS
10
151.21
20
-119.715
11
151.214
21
-119.713
0
LINE
8
BLACK
6
CONTINUOUS
10
151.214
20
-119.713
11
151.405
21
-119.713
0
LINE
8
BLACK
6
CONTINUOUS
10
151.405
20
-119.713
11
151.43
21
-119.718
0
LINE
8
BLACK
6
CONTINUOUS
10
151.43
20
-119.718
11
151.434
21
-119.721
0
LINE
8
BLACK
6
CONTINUOUS
10
151.434
20
-119.721
11
151.438
21
-119.721
0
LINE
8
BLACK
6
CONTINUOUS
10
151.438
20
-119.721
11
151.534
21
-119.769
0
LINE
8
BLACK
6
CONTINUOUS
10
151.534
20
-119.769
11
151.552
21
-119.782
0
LINE
8
BLACK
6
CONTINUOUS
10
151.552
20
-119.782
11
151.553
21
-119.783
0
LINE
8
BLACK
6
CONTINUOUS
10
151.553
20
-119.783
11
151.601
21
-119.83
0
LINE
8
BLACK
6
CONTINUOUS
10
151.601
20
-119.83
11
151.614
21
-119.849
0
LINE
8
BLACK
6
CONTINUOUS
10
151.614
20
-119.849
11
151.615
21
-119.85
0
LINE
8
BLACK
6
CONTINUOUS
10
151.615
20
-119.85
11
151.662
21
-119.945
0
LINE
8
BLACK
6
CONTINUOUS
10
151.662
20
-119.945
11
151.67
21
-119.97
0
LINE
8
BLACK
6
CONTINUOUS
10
151.67
20
-119.97
11
151.669
21
-119.974
0
LINE
8
BLACK
6
CONTINUOUS
10
151.669
20
-119.974
11
151.67
21
-119.979
0
LINE
8
BLACK
6
CONTINUOUS
10
151.67
20
-119.979
11
151.67
21
-120.264
0
LINE
8
BLACK
6
CONTINUOUS
10
151.67
20
-120.264
11
151.666
21
-120.29
0
LINE
8
BLACK
6
CONTINUOUS
10
151.666
20
-120.29
11
151.663
21
-120.293
0
LINE
8
BLACK
6
CONTINUOUS
10
151.663
20
-120.293
11
151.662
21
-120.298
0
LINE
8
BLACK
6
CONTINUOUS
10
151.662
20
-120.298
11
151.615
21
-120.393
0
LINE
8
BLACK
6
CONTINUOUS
10
151.615
20
-120.393
11
151.601
21
-120.411
0
LINE
8
BLACK
6
CONTINUOUS
10
151.601
20
-120.411
11
151.601
21
-120.413
0
LINE
8
BLACK
6
CONTINUOUS
10
151.601
20
-120.413
11
151.553
21
-120.46
0
LINE
8
BLACK
6
CONTINUOUS
10
151.553
20
-120.46
11
151.535
21
-120.473
0
LINE
8
BLACK
6
CONTINUOUS
10
151.535
20
-120.473
11
151.534
21
-120.474
0
LINE
8
BLACK
6
CONTINUOUS
10
151.534
20
-120.474
11
151.438
21
-120.522
0
LINE
8
BLACK
6
CONTINUOUS
10
151.438
20
-120.522
11
151.413
21
-120.529
0
LINE
8
BLACK
6
CONTINUOUS
10
151.413
20
-120.529
11
151.409
21
-120.528
0
LINE
8
BLACK
6
CONTINUOUS
10
151.409
20
-120.528
11
151.405
21
-120.53
0
LINE
8
BLACK
6
CONTINUOUS
10
151.405
20
-120.53
11
151.214
21
-120.53
0
LINE
8
BLACK
6
CONTINUOUS
10
151.214
20
-120.53
11
151.189
21
-120.525
0
LINE
8
BLACK
6
CONTINUOUS
10
151.189
20
-120.525
11
151.185
21
-120.522
0
LINE
8
BLACK
6
CONTINUOUS
10
151.185
20
-120.522
11
151.181
21
-120.522
0
LINE
8
BLACK
6
CONTINUOUS
10
151.181
20
-120.522
11
151.162
21
-120.513
0
LINE
8
BLACK
6
CONTINUOUS
10
151.162
20
-120.513
11
151.157
21
-120.52
0
LINE
8
BLACK
6
CONTINUOUS
10
151.157
20
-120.52
11
151.106
21
-120.529
0
LINE
8
BLACK
6
CONTINUOUS
10
151.106
20
-120.529
11
151.062
21
-120.503
0
LINE
8
BLACK
6
CONTINUOUS
10
151.062
20
-120.503
11
151.044
21
-120.455
0
LINE
8
BLACK
6
CONTINUOUS
10
151.044
20
-120.455
11
151.044
21
-119.455
0
LINE
8
BLACK
6
CONTINUOUS
10
151.044
20
-119.455
11
151.049
21
-119.429
0
LINE
8
BLACK
6
CONTINUOUS
10
151.049
20
-119.429
11
151.082
21
-119.39
0
LINE
8
BLACK
6
CONTINUOUS
10
151.082
20
-119.39
11
151.132
21
-119.381
0
LINE
8
BLACK
6
CONTINUOUS
10
151.132
20
-119.381
11
151.177
21
-119.407
0
LINE
8
BLACK
6
CONTINUOUS
10
151.194
20
-119.882
11
151.194
21
-120.361
0
LINE
8
BLACK
6
CONTINUOUS
10
151.194
20
-120.361
11
151.232
21
-120.38
0
LINE
8
BLACK
6
CONTINUOUS
10
151.232
20
-120.38
11
151.387
21
-120.38
0
LINE
8
BLACK
6
CONTINUOUS
10
151.387
20
-120.38
11
151.456
21
-120.346
0
LINE
8
BLACK
6
CONTINUOUS
10
151.456
20
-120.346
11
151.486
21
-120.315
0
LINE
8
BLACK
6
CONTINUOUS
10
151.486
20
-120.315
11
151.52
21
-120.247
0
LINE
8
BLACK
6
CONTINUOUS
10
151.52
20
-120.247
11
151.52
21
-119.996
0
LINE
8
BLACK
6
CONTINUOUS
10
151.52
20
-119.996
11
151.486
21
-119.928
0
LINE
8
BLACK
6
CONTINUOUS
10
151.486
20
-119.928
11
151.456
21
-119.897
0
LINE
8
BLACK
6
CONTINUOUS
10
151.456
20
-119.897
11
151.387
21
-119.863
0
LINE
8
BLACK
6
CONTINUOUS
10
151.387
20
-119.863
11
151.232
21
-119.863
0
LINE
8
BLACK
6
CONTINUOUS
10
151.232
20
-119.863
11
151.194
21
-119.882
0
LINE
8
BLACK
6
CONTINUOUS
10
152.335
20
-119.718
11
152.339
21
-119.721
0
LINE
8
BLACK
6
CONTINUOUS
10
152.339
20
-119.721
11
152.343
21
-119.721
0
LINE
8
BLACK
6
CONTINUOUS
10
152.343
20
-119.721
11
152.438
21
-119.769
0
LINE
8
BLACK
6
CONTINUOUS
10
152.438
20
-119.769
11
152.456
21
-119.782
0
LINE
8
BLACK
6
CONTINUOUS
10
152.456
20
-119.782
11
152.458
21
-119.783
0
LINE
8
BLACK
6
CONTINUOUS
10
152.458
20
-119.783
11
152.505
21
-119.83
0
LINE
8
BLACK
6
CONTINUOUS
10
152.505
20
-119.83
11
152.518
21
-119.849
0
LINE
8
BLACK
6
CONTINUOUS
10
152.518
20
-119.849
11
152.519
21
-119.85
0
LINE
8
BLACK
6
CONTINUOUS
10
152.519
20
-119.85
11
152.567
21
-119.945
0
LINE
8
BLACK
6
CONTINUOUS
10
152.567
20
-119.945
11
152.575
21
-119.97
0
LINE
8
BLACK
6
CONTINUOUS
10
152.575
20
-119.97
11
152.573
21
-119.974
0
LINE
8
BLACK
6
CONTINUOUS
10
152.573
20
-119.974
11
152.575
21
-119.979
0
LINE
8
BLACK
6
CONTINUOUS
10
152.575
20
-119.979
11
152.575
21
-120.264
0
LINE
8
BLACK
6
CONTINUOUS
10
152.575
20
-120.264
11
152.57
21
-120.29
0
LINE
8
BLACK
6
CONTINUOUS
10
152.57
20
-120.29
11
152.568
21
-120.293
0
LINE
8
BLACK
6
CONTINUOUS
10
152.568
20
-120.293
11
152.567
21
-120.298
0
LINE
8
BLACK
6
CONTINUOUS
10
152.567
20
-120.298
11
152.519
21
-120.393
0
LINE
8
BLACK
6
CONTINUOUS
10
152.519
20
-120.393
11
152.506
21
-120.411
0
LINE
8
BLACK
6
CONTINUOUS
10
152.506
20
-120.411
11
152.505
21
-120.413
0
LINE
8
BLACK
6
CONTINUOUS
10
152.505
20
-120.413
11
152.458
21
-120.46
0
LINE
8
BLACK
6
CONTINUOUS
10
152.458
20
-120.46
11
152.439
21
-120.473
0
LINE
8
BLACK
6
CONTINUOUS
10
152.439
20
-120.473
11
152.438
21
-120.474
0
LINE
8
BLACK
6
CONTINUOUS
10
152.438
20
-120.474
11
152.343
21
-120.522
0
LINE
8
BLACK
6
CONTINUOUS
10
152.343
20
-120.522
11
152.318
21
-120.529
0
LINE
8
BLACK
6
CONTINUOUS
10
152.318
20
-120.529
11
152.314
21
-120.528
0
LINE
8
BLACK
6
CONTINUOUS
10
152.314
20
-120.528
11
152.31
21
-120.53
0
LINE
8
BLACK
6
CONTINUOUS
10
152.31
20
-120.53
11
152.167
21
-120.53
0
LINE
8
BLACK
6
CONTINUOUS
10
152.167
20
-120.53
11
152.141
21
-120.525
0
LINE
8
BLACK
6
CONTINUOUS
10
152.141
20
-120.525
11
152.138
21
-120.522
0
LINE
8
BLACK
6
CONTINUOUS
10
152.138
20
-120.522
11
152.133
21
-120.522
0
LINE
8
BLACK
6
CONTINUOUS
10
152.133
20
-120.522
11
152.038
21
-120.474
0
LINE
8
BLACK
6
CONTINUOUS
10
152.038
20
-120.474
11
152.02
21
-120.461
0
LINE
8
BLACK
6
CONTINUOUS
10
152.02
20
-120.461
11
152.018
21
-120.46
0
LINE
8
BLACK
6
CONTINUOUS
10
152.018
20
-120.46
11
151.971
21
-120.413
0
LINE
8
BLACK
6
CONTINUOUS
10
151.971
20
-120.413
11
151.958
21
-120.394
0
LINE
8
BLACK
6
CONTINUOUS
10
151.958
20
-120.394
11
151.957
21
-120.393
0
LINE
8
BLACK
6
CONTINUOUS
10
151.957
20
-120.393
11
151.909
21
-120.298
0
LINE
8
BLACK
6
CONTINUOUS
10
151.909
20
-120.298
11
151.902
21
-120.273
0
LINE
8
BLACK
6
CONTINUOUS
10
151.902
20
-120.273
11
151.903
21
-120.269
0
LINE
8
BLACK
6
CONTINUOUS
10
151.903
20
-120.269
11
151.901
21
-120.264
0
LINE
8
BLACK
6
CONTINUOUS
10
151.901
20
-120.264
11
151.901
21
-119.979
0
LINE
8
BLACK
6
CONTINUOUS
10
151.901
20
-119.979
11
151.906
21
-119.953
0
LINE
8
BLACK
6
CONTINUOUS
10
151.906
20
-119.953
11
151.909
21
-119.95
0
LINE
8
BLACK
6
CONTINUOUS
10
151.909
20
-119.95
11
151.909
21
-119.945
0
LINE
8
BLACK
6
CONTINUOUS
10
151.909
20
-119.945
11
151.957
21
-119.85
0
LINE
8
BLACK
6
CONTINUOUS
10
151.957
20
-119.85
11
151.97
21
-119.832
0
LINE
8
BLACK
6
CONTINUOUS
10
151.97
20
-119.832
11
151.971
21
-119.83
0
LINE
8
BLACK
6
CONTINUOUS
10
151.971
20
-119.83
11
152.018
21
-119.783
0
LINE
8
BLACK
6
CONTINUOUS
10
152.018
20
-119.783
11
152.037
21
-119.77
0
LINE
8
BLACK
6
CONTINUOUS
10
152.037
20
-119.77
11
152.038
21
-119.769
0
LINE
8
BLACK
6
CONTINUOUS
10
152.038
20
-119.769
11
152.133
21
-119.721
0
LINE
8
BLACK
6
CONTINUOUS
10
152.133
20
-119.721
11
152.158
21
-119.714
0
LINE
8
BLACK
6
CONTINUOUS
10
152.158
20
-119.714
11
152.162
21
-119.715
0
LINE
8
BLACK
6
CONTINUOUS
10
152.162
20
-119.715
11
152.167
21
-119.713
0
LINE
8
BLACK
6
CONTINUOUS
10
152.167
20
-119.713
11
152.31
21
-119.713
0
LINE
8
BLACK
6
CONTINUOUS
10
152.31
20
-119.713
11
152.335
21
-119.718
0
LINE
8
BLACK
6
CONTINUOUS
10
152.116
20
-119.897
11
152.085
21
-119.928
0
LINE
8
BLACK
6
CONTINUOUS
10
152.085
20
-119.928
11
152.051
21
-119.996
0
LINE
8
BLACK
6
CONTINUOUS
10
152.051
20
-119.996
11
152.051
21
-120.247
0
LINE
8
BLACK
6
CONTINUOUS
10
152.051
20
-120.247
11
152.085
21
-120.315
0
LINE
8
BLACK
6
CONTINUOUS
10
152.085
20
-120.315
11
152.116
21
-120.346
0
LINE
8
BLACK
6
CONTINUOUS
10
152.116
20
-120.346
11
152.184
21
-120.38
0
LINE
8
BLACK
6
CONTINUOUS
10
152.184
20
-120.38
11
152.292
21
-120.38
0
LINE
8
BLACK
6
CONTINUOUS
10
152.292
20
-120.38
11
152.36
21
-120.346
0
LINE
8
BLACK
6
CONTINUOUS
10
152.36
20
-120.346
11
152.391
21
-120.315
0
LINE
8
BLACK
6
CONTINUOUS
10
152.391
20
-120.315
11
152.425
21
-120.247
0
LINE
8
BLACK
6
CONTINUOUS
10
152.425
20
-120.247
11
152.425
21
-119.996
0
LINE
8
BLACK
6
CONTINUOUS
10
152.425
20
-119.996
11
152.391
21
-119.928
0
LINE
8
BLACK
6
CONTINUOUS
10
152.391
20
-119.928
11
152.36
21
-119.897
0
LINE
8
BLACK
6
CONTINUOUS
10
152.36
20
-119.897
11
152.292
21
-119.863
0
LINE
8
BLACK
6
CONTINUOUS
10
152.292
20
-119.863
11
152.184
21
-119.863
0
LINE
8
BLACK
6
CONTINUOUS
10
152.184
20
-119.863
11
152.116
21
-119.897
0
LINE
8
BLACK
6
CONTINUOUS
10
155.097
20
-119.718
11
155.101
21
-119.721
0
LINE
8
BLACK
6
CONTINUOUS
10
155.101
20
-119.721
11
155.105
21
-119.721
0
LINE
8
BLACK
6
CONTINUOUS
10
155.105
20
-119.721
11
155.2
21
-119.769
0
LINE
8
BLACK
6
CONTINUOUS
10
155.2
20
-119.769
11
155.218
21
-119.782
0
LINE
8
BLACK
6
CONTINUOUS
10
155.218
20
-119.782
11
155.22
21
-119.783
0
LINE
8
BLACK
6
CONTINUOUS
10
155.22
20
-119.783
11
155.267
21
-119.83
0
LINE
8
BLACK
6
CONTINUOUS
10
155.267
20
-119.83
11
155.28
21
-119.849
0
LINE
8
BLACK
6
CONTINUOUS
10
155.28
20
-119.849
11
155.281
21
-119.85
0
LINE
8
BLACK
6
CONTINUOUS
10
155.281
20
-119.85
11
155.329
21
-119.945
0
LINE
8
BLACK
6
CONTINUOUS
10
155.329
20
-119.945
11
155.336
21
-119.97
0
LINE
8
BLACK
6
CONTINUOUS
10
155.336
20
-119.97
11
155.335
21
-119.974
0
LINE
8
BLACK
6
CONTINUOUS
10
155.335
20
-119.974
11
155.337
21
-119.979
0
LINE
8
BLACK
6
CONTINUOUS
10
155.337
20
-119.979
11
155.337
21
-120.264
0
LINE
8
BLACK
6
CONTINUOUS
10
155.337
20
-120.264
11
155.332
21
-120.29
0
LINE
8
BLACK
6
CONTINUOUS
10
155.332
20
-120.29
11
155.329
21
-120.293
0
LINE
8
BLACK
6
CONTINUOUS
10
155.329
20
-120.293
11
155.329
21
-120.298
0
LINE
8
BLACK
6
CONTINUOUS
10
155.329
20
-120.298
11
155.281
21
-120.393
0
LINE
8
BLACK
6
CONTINUOUS
10
155.281
20
-120.393
11
155.268
21
-120.411
0
LINE
8
BLACK
6
CONTINUOUS
10
155.268
20
-120.411
11
155.267
21
-120.413
0
LINE
8
BLACK
6
CONTINUOUS
10
155.267
20
-120.413
11
155.22
21
-120.46
0
LINE
8
BLACK
6
CONTINUOUS
10
155.22
20
-120.46
11
155.201
21
-120.473
0
LINE
8
BLACK
6
CONTINUOUS
10
155.201
20
-120.473
11
155.2
21
-120.474
0
LINE
8
BLACK
6
CONTINUOUS
10
155.2
20
-120.474
11
155.105
21
-120.522
0
LINE
8
BLACK
6
CONTINUOUS
10
155.105
20
-120.522
11
155.08
21
-120.529
0
LINE
8
BLACK
6
CONTINUOUS
10
155.08
20
-120.529
11
155.076
21
-120.528
0
LINE
8
BLACK
6
CONTINUOUS
10
155.076
20
-120.528
11
155.071
21
-120.53
0
LINE
8
BLACK
6
CONTINUOUS
10
155.071
20
-120.53
11
154.881
21
-120.53
0
LINE
8
BLACK
6
CONTINUOUS
10
154.881
20
-120.53
11
154.855
21
-120.525
0
LINE
8
BLACK
6
CONTINUOUS
10
154.855
20
-120.525
11
154.852
21
-120.522
0
LINE
8
BLACK
6
CONTINUOUS
10
154.852
20
-120.522
11
154.847
21
-120.522
0
LINE
8
BLACK
6
CONTINUOUS
10
154.847
20
-120.522
11
154.752
21
-120.474
0
LINE
8
BLACK
6
CONTINUOUS
10
154.752
20
-120.474
11
154.731
21
-120.459
0
LINE
8
BLACK
6
CONTINUOUS
10
154.731
20
-120.459
11
154.711
21
-120.412
0
LINE
8
BLACK
6
CONTINUOUS
10
154.711
20
-120.412
11
154.725
21
-120.363
0
LINE
8
BLACK
6
CONTINUOUS
10
154.725
20
-120.363
11
154.768
21
-120.334
0
LINE
8
BLACK
6
CONTINUOUS
10
154.768
20
-120.334
11
154.819
21
-120.34
0
LINE
8
BLACK
6
CONTINUOUS
10
154.819
20
-120.34
11
154.899
21
-120.38
0
LINE
8
BLACK
6
CONTINUOUS
10
154.899
20
-120.38
11
155.054
21
-120.38
0
LINE
8
BLACK
6
CONTINUOUS
10
155.054
20
-120.38
11
155.122
21
-120.346
0
LINE
8
BLACK
6
CONTINUOUS
10
155.122
20
-120.346
11
155.153
21
-120.315
0
LINE
8
BLACK
6
CONTINUOUS
10
155.153
20
-120.315
11
155.187
21
-120.247
0
LINE
8
BLACK
6
CONTINUOUS
10
155.187
20
-120.247
11
155.187
21
-119.996
0
LINE
8
BLACK
6
CONTINUOUS
10
155.187
20
-119.996
11
155.153
21
-119.928
0
LINE
8
BLACK
6
CONTINUOUS
10
155.153
20
-119.928
11
155.122
21
-119.897
0
LINE
8
BLACK
6
CONTINUOUS
10
155.122
20
-119.897
11
155.054
21
-119.863
0
LINE
8
BLACK
6
CONTINUOUS
10
155.054
20
-119.863
11
154.899
21
-119.863
0
LINE
8
BLACK
6
CONTINUOUS
10
154.899
20
-119.863
11
154.819
21
-119.903
0
LINE
8
BLACK
6
CONTINUOUS
10
154.819
20
-119.903
11
154.794
21
-119.91
0
LINE
8
BLACK
6
CONTINUOUS
10
154.794
20
-119.91
11
154.744
21
-119.898
0
LINE
8
BLACK
6
CONTINUOUS
10
154.744
20
-119.898
11
154.714
21
-119.857
0
LINE
8
BLACK
6
CONTINUOUS
10
154.714
20
-119.857
11
154.717
21
-119.806
0
LINE
8
BLACK
6
CONTINUOUS
10
154.717
20
-119.806
11
154.752
21
-119.769
0
LINE
8
BLACK
6
CONTINUOUS
10
154.752
20
-119.769
11
154.847
21
-119.721
0
LINE
8
BLACK
6
CONTINUOUS
10
154.847
20
-119.721
11
154.872
21
-119.714
0
LINE
8
BLACK
6
CONTINUOUS
10
154.872
20
-119.714
11
154.877
21
-119.715
0
LINE
8
BLACK
6
CONTINUOUS
10
154.877
20
-119.715
11
154.881
21
-119.713
0
LINE
8
BLACK
6
CONTINUOUS
10
154.881
20
-119.713
11
155.071
21
-119.713
0
LINE
8
BLACK
6
CONTINUOUS
10
155.071
20
-119.713
11
155.097
21
-119.718
0
LINE
8
BLACK
6
CONTINUOUS
10
156.526
20
-119.718
11
156.529
21
-119.721
0
LINE
8
BLACK
6
CONTINUOUS
10
156.529
20
-119.721
11
156.534
21
-119.721
0
LINE
8
BLACK
6
CONTINUOUS
10
156.534
20
-119.721
11
156.629
21
-119.769
0
LINE
8
BLACK
6
CONTINUOUS
10
156.629
20
-119.769
11
156.65
21
-119.784
0
LINE
8
BLACK
6
CONTINUOUS
10
156.65
20
-119.784
11
156.67
21
-119.831
0
LINE
8
BLACK
6
CONTINUOUS
10
156.67
20
-119.831
11
156.655
21
-119.88
0
LINE
8
BLACK
6
CONTINUOUS
10
156.655
20
-119.88
11
156.613
21
-119.909
0
LINE
8
BLACK
6
CONTINUOUS
10
156.613
20
-119.909
11
156.562
21
-119.903
0
LINE
8
BLACK
6
CONTINUOUS
10
156.562
20
-119.903
11
156.482
21
-119.863
0
LINE
8
BLACK
6
CONTINUOUS
10
156.482
20
-119.863
11
156.327
21
-119.863
0
LINE
8
BLACK
6
CONTINUOUS
10
156.327
20
-119.863
11
156.27
21
-119.892
0
LINE
8
BLACK
6
CONTINUOUS
10
156.27
20
-119.892
11
156.242
21
-119.949
0
LINE
8
BLACK
6
CONTINUOUS
10
156.242
20
-119.949
11
156.242
21
-119.98
0
LINE
8
BLACK
6
CONTINUOUS
10
156.242
20
-119.98
11
156.28
21
-119.999
0
LINE
8
BLACK
6
CONTINUOUS
10
156.28
20
-119.999
11
156.5
21
-119.999
0
LINE
8
BLACK
6
CONTINUOUS
10
156.5
20
-119.999
11
156.526
21
-120.003
0
LINE
8
BLACK
6
CONTINUOUS
10
156.526
20
-120.003
11
156.529
21
-120.006
0
LINE
8
BLACK
6
CONTINUOUS
10
156.529
20
-120.006
11
156.534
21
-120.007
0
LINE
8
BLACK
6
CONTINUOUS
10
156.534
20
-120.007
11
156.629
21
-120.054
0
LINE
8
BLACK
6
CONTINUOUS
10
156.629
20
-120.054
11
156.65
21
-120.07
0
LINE
8
BLACK
6
CONTINUOUS
10
156.65
20
-120.07
11
156.654
21
-120.08
0
LINE
8
BLACK
6
CONTINUOUS
10
156.654
20
-120.08
11
156.662
21
-120.088
0
LINE
8
BLACK
6
CONTINUOUS
10
156.662
20
-120.088
11
156.71
21
-120.183
0
LINE
8
BLACK
6
CONTINUOUS
10
156.71
20
-120.183
11
156.717
21
-120.208
0
LINE
8
BLACK
6
CONTINUOUS
10
156.717
20
-120.208
11
156.716
21
-120.213
0
LINE
8
BLACK
6
CONTINUOUS
10
156.716
20
-120.213
11
156.718
21
-120.217
0
LINE
8
BLACK
6
CONTINUOUS
10
156.718
20
-120.217
11
156.718
21
-120.312
0
LINE
8
BLACK
6
CONTINUOUS
10
156.718
20
-120.312
11
156.713
21
-120.338
0
LINE
8
BLACK
6
CONTINUOUS
10
156.713
20
-120.338
11
156.71
21
-120.341
0
LINE
8
BLACK
6
CONTINUOUS
10
156.71
20
-120.341
11
156.71
21
-120.346
0
LINE
8
BLACK
6
CONTINUOUS
10
156.71
20
-120.346
11
156.662
21
-120.441
0
LINE
8
BLACK
6
CONTINUOUS
10
156.662
20
-120.441
11
156.647
21
-120.462
0
LINE
8
BLACK
6
CONTINUOUS
10
156.647
20
-120.462
11
156.636
21
-120.466
0
LINE
8
BLACK
6
CONTINUOUS
10
156.636
20
-120.466
11
156.629
21
-120.474
0
LINE
8
BLACK
6
CONTINUOUS
10
156.629
20
-120.474
11
156.534
21
-120.522
0
LINE
8
BLACK
6
CONTINUOUS
10
156.534
20
-120.522
11
156.509
21
-120.529
0
LINE
8
BLACK
6
CONTINUOUS
10
156.509
20
-120.529
11
156.504
21
-120.528
0
LINE
8
BLACK
6
CONTINUOUS
10
156.504
20
-120.528
11
156.5
21
-120.53
0
LINE
8
BLACK
6
CONTINUOUS
10
156.5
20
-120.53
11
156.262
21
-120.53
0
LINE
8
BLACK
6
CONTINUOUS
10
156.262
20
-120.53
11
156.236
21
-120.525
0
LINE
8
BLACK
6
CONTINUOUS
10
156.236
20
-120.525
11
156.233
21
-120.522
0
LINE
8
BLACK
6
CONTINUOUS
10
156.233
20
-120.522
11
156.228
21
-120.522
0
LINE
8
BLACK
6
CONTINUOUS
10
156.228
20
-120.522
11
156.21
21
-120.513
0
LINE
8
BLACK
6
CONTINUOUS
10
156.21
20
-120.513
11
156.204
21
-120.52
0
LINE
8
BLACK
6
CONTINUOUS
10
156.204
20
-120.52
11
156.154
21
-120.529
0
LINE
8
BLACK
6
CONTINUOUS
10
156.154
20
-120.529
11
156.109
21
-120.503
0
LINE
8
BLACK
6
CONTINUOUS
10
156.109
20
-120.503
11
156.092
21
-120.455
0
LINE
8
BLACK
6
CONTINUOUS
10
156.092
20
-120.455
11
156.092
21
-119.931
0
LINE
8
BLACK
6
CONTINUOUS
10
156.092
20
-119.931
11
156.096
21
-119.905
0
LINE
8
BLACK
6
CONTINUOUS
10
156.096
20
-119.905
11
156.099
21
-119.902
0
LINE
8
BLACK
6
CONTINUOUS
10
156.099
20
-119.902
11
156.1
21
-119.897
0
LINE
8
BLACK
6
CONTINUOUS
10
156.1
20
-119.897
11
156.147
21
-119.802
0
LINE
8
BLACK
6
CONTINUOUS
10
156.147
20
-119.802
11
156.163
21
-119.781
0
LINE
8
BLACK
6
CONTINUOUS
10
156.163
20
-119.781
11
156.173
21
-119.777
0
LINE
8
BLACK
6
CONTINUOUS
10
156.173
20
-119.777
11
156.181
21
-119.769
0
LINE
8
BLACK
6
CONTINUOUS
10
156.181
20
-119.769
11
156.276
21
-119.721
0
LINE
8
BLACK
6
CONTINUOUS
10
156.276
20
-119.721
11
156.301
21
-119.714
0
LINE
8
BLACK
6
CONTINUOUS
10
156.301
20
-119.714
11
156.305
21
-119.715
0
LINE
8
BLACK
6
CONTINUOUS
10
156.305
20
-119.715
11
156.31
21
-119.713
0
LINE
8
BLACK
6
CONTINUOUS
10
156.31
20
-119.713
11
156.5
21
-119.713
0
LINE
8
BLACK
6
CONTINUOUS
10
156.5
20
-119.713
11
156.526
21
-119.718
0
LINE
8
BLACK
6
CONTINUOUS
10
156.242
20
-120.361
11
156.28
21
-120.38
0
LINE
8
BLACK
6
CONTINUOUS
10
156.28
20
-120.38
11
156.482
21
-120.38
0
LINE
8
BLACK
6
CONTINUOUS
10
156.482
20
-120.38
11
156.539
21
-120.351
0
LINE
8
BLACK
6
CONTINUOUS
10
156.539
20
-120.351
11
156.568
21
-120.294
0
LINE
8
BLACK
6
CONTINUOUS
10
156.568
20
-120.294
11
156.568
21
-120.234
0
LINE
8
BLACK
6
CONTINUOUS
10
156.568
20
-120.234
11
156.539
21
-120.177
0
LINE
8
BLACK
6
CONTINUOUS
10
156.539
20
-120.177
11
156.482
21
-120.149
0
LINE
8
BLACK
6
CONTINUOUS
10
156.482
20
-120.149
11
156.262
21
-120.149
0
LINE
8
BLACK
6
CONTINUOUS
10
156.262
20
-120.149
11
156.242
21
-120.145
0
LINE
8
BLACK
6
CONTINUOUS
10
156.242
20
-120.145
11
156.242
21
-120.361
0
LINE
8
BLACK
6
CONTINUOUS
10
157.335
20
-119.718
11
157.339
21
-119.721
0
LINE
8
BLACK
6
CONTINUOUS
10
157.339
20
-119.721
11
157.343
21
-119.721
0
LINE
8
BLACK
6
CONTINUOUS
10
157.343
20
-119.721
11
157.438
21
-119.769
0
LINE
8
BLACK
6
CONTINUOUS
10
157.438
20
-119.769
11
157.459
21
-119.784
0
LINE
8
BLACK
6
CONTINUOUS
10
157.459
20
-119.784
11
157.464
21
-119.795
0
LINE
8
BLACK
6
CONTINUOUS
10
157.464
20
-119.795
11
157.472
21
-119.802
0
LINE
8
BLACK
6
CONTINUOUS
10
157.472
20
-119.802
11
157.519
21
-119.897
0
LINE
8
BLACK
6
CONTINUOUS
10
157.519
20
-119.897
11
157.527
21
-119.922
0
LINE
8
BLACK
6
CONTINUOUS
10
157.527
20
-119.922
11
157.526
21
-119.927
0
LINE
8
BLACK
6
CONTINUOUS
10
157.526
20
-119.927
11
157.527
21
-119.931
0
LINE
8
BLACK
6
CONTINUOUS
10
157.527
20
-119.931
11
157.527
21
-119.979
0
LINE
8
BLACK
6
CONTINUOUS
10
157.527
20
-119.979
11
157.523
21
-120.004
0
LINE
8
BLACK
6
CONTINUOUS
10
157.523
20
-120.004
11
157.52
21
-120.008
0
LINE
8
BLACK
6
CONTINUOUS
10
157.52
20
-120.008
11
157.519
21
-120.012
0
LINE
8
BLACK
6
CONTINUOUS
10
157.519
20
-120.012
11
157.472
21
-120.107
0
LINE
8
BLACK
6
CONTINUOUS
10
157.472
20
-120.107
11
157.456
21
-120.128
0
LINE
8
BLACK
6
CONTINUOUS
10
157.456
20
-120.128
11
157.446
21
-120.133
0
LINE
8
BLACK
6
CONTINUOUS
10
157.446
20
-120.133
11
157.438
21
-120.141
0
LINE
8
BLACK
6
CONTINUOUS
10
157.438
20
-120.141
11
157.343
21
-120.189
0
LINE
8
BLACK
6
CONTINUOUS
10
157.343
20
-120.189
11
157.318
21
-120.196
0
LINE
8
BLACK
6
CONTINUOUS
10
157.318
20
-120.196
11
157.314
21
-120.195
0
LINE
8
BLACK
6
CONTINUOUS
10
157.314
20
-120.195
11
157.31
21
-120.196
0
LINE
8
BLACK
6
CONTINUOUS
10
157.31
20
-120.196
11
157.184
21
-120.196
0
LINE
8
BLACK
6
CONTINUOUS
10
157.184
20
-120.196
11
157.127
21
-120.225
0
LINE
8
BLACK
6
CONTINUOUS
10
157.127
20
-120.225
11
157.099
21
-120.282
0
LINE
8
BLACK
6
CONTINUOUS
10
157.099
20
-120.282
11
157.099
21
-120.294
0
LINE
8
BLACK
6
CONTINUOUS
10
157.099
20
-120.294
11
157.127
21
-120.351
0
LINE
8
BLACK
6
CONTINUOUS
10
157.127
20
-120.351
11
157.184
21
-120.38
0
LINE
8
BLACK
6
CONTINUOUS
10
157.184
20
-120.38
11
157.339
21
-120.38
0
LINE
8
BLACK
6
CONTINUOUS
10
157.339
20
-120.38
11
157.419
21
-120.34
0
LINE
8
BLACK
6
CONTINUOUS
10
157.419
20
-120.34
11
157.444
21
-120.333
0
LINE
8
BLACK
6
CONTINUOUS
10
157.444
20
-120.333
11
157.494
21
-120.345
0
LINE
8
BLACK
6
CONTINUOUS
10
157.494
20
-120.345
11
157.524
21
-120.386
0
LINE
8
BLACK
6
CONTINUOUS
10
157.524
20
-120.386
11
157.521
21
-120.437
0
LINE
8
BLACK
6
CONTINUOUS
10
157.521
20
-120.437
11
157.486
21
-120.474
0
LINE
8
BLACK
6
CONTINUOUS
10
157.486
20
-120.474
11
157.391
21
-120.522
0
LINE
8
BLACK
6
CONTINUOUS
10
157.391
20
-120.522
11
157.366
21
-120.529
0
LINE
8
BLACK
6
CONTINUOUS
10
157.366
20
-120.529
11
157.361
21
-120.528
0
LINE
8
BLACK
6
CONTINUOUS
10
157.361
20
-120.528
11
157.357
21
-120.53
0
LINE
8
BLACK
6
CONTINUOUS
10
157.357
20
-120.53
11
157.167
21
-120.53
0
LINE
8
BLACK
6
CONTINUOUS
10
157.167
20
-120.53
11
157.141
21
-120.525
0
LINE
8
BLACK
6
CONTINUOUS
10
157.141
20
-120.525
11
157.138
21
-120.522
0
LINE
8
BLACK
6
CONTINUOUS
10
157.138
20
-120.522
11
157.133
21
-120.522
0
LINE
8
BLACK
6
CONTINUOUS
10
157.133
20
-120.522
11
157.038
21
-120.474
0
LINE
8
BLACK
6
CONTINUOUS
10
157.038
20
-120.474
11
157.017
21
-120.459
0
LINE
8
BLACK
6
CONTINUOUS
10
157.017
20
-120.459
11
157.012
21
-120.448
0
LINE
8
BLACK
6
CONTINUOUS
10
157.012
20
-120.448
11
157.004
21
-120.441
0
LINE
8
BLACK
6
CONTINUOUS
10
157.004
20
-120.441
11
156.957
21
-120.346
0
LINE
8
BLACK
6
CONTINUOUS
10
156.957
20
-120.346
11
156.949
21
-120.321
0
LINE
8
BLACK
6
CONTINUOUS
10
156.949
20
-120.321
11
156.95
21
-120.316
0
LINE
8
BLACK
6
CONTINUOUS
10
156.95
20
-120.316
11
156.949
21
-120.312
0
LINE
8
BLACK
6
CONTINUOUS
10
156.949
20
-120.312
11
156.949
21
-120.264
0
LINE
8
BLACK
6
CONTINUOUS
10
156.949
20
-120.264
11
156.953
21
-120.239
0
LINE
8
BLACK
6
CONTINUOUS
10
156.953
20
-120.239
11
156.956
21
-120.235
0
LINE
8
BLACK
6
CONTINUOUS
10
156.956
20
-120.235
11
156.957
21
-120.231
0
LINE
8
BLACK
6
CONTINUOUS
10
156.957
20
-120.231
11
157.004
21
-120.136
0
LINE
8
BLACK
6
CONTINUOUS
10
157.004
20
-120.136
11
157.02
21
-120.115
0
LINE
8
BLACK
6
CONTINUOUS
10
157.02
20
-120.115
11
157.03
21
-120.11
0
LINE
8
BLACK
6
CONTINUOUS
10
157.03
20
-120.11
11
157.038
21
-120.102
0
LINE
8
BLACK
6
CONTINUOUS
10
157.038
20
-120.102
11
157.133
21
-120.054
0
LINE
8
BLACK
6
CONTINUOUS
10
157.133
20
-120.054
11
157.158
21
-120.047
0
LINE
8
BLACK
6
CONTINUOUS
10
157.158
20
-120.047
11
157.162
21
-120.048
0
LINE
8
BLACK
6
CONTINUOUS
10
157.162
20
-120.048
11
157.167
21
-120.046
0
LINE
8
BLACK
6
CONTINUOUS
10
157.167
20
-120.046
11
157.292
21
-120.046
0
LINE
8
BLACK
6
CONTINUOUS
10
157.292
20
-120.046
11
157.349
21
-120.018
0
LINE
8
BLACK
6
CONTINUOUS
10
157.349
20
-120.018
11
157.377
21
-119.961
0
LINE
8
BLACK
6
CONTINUOUS
10
157.377
20
-119.961
11
157.377
21
-119.949
0
LINE
8
BLACK
6
CONTINUOUS
10
157.377
20
-119.949
11
157.349
21
-119.892
0
LINE
8
BLACK
6
CONTINUOUS
10
157.349
20
-119.892
11
157.292
21
-119.863
0
LINE
8
BLACK
6
CONTINUOUS
10
157.292
20
-119.863
11
157.184
21
-119.863
0
LINE
8
BLACK
6
CONTINUOUS
10
157.184
20
-119.863
11
157.105
21
-119.903
0
LINE
8
BLACK
6
CONTINUOUS
10
157.105
20
-119.903
11
157.08
21
-119.91
0
LINE
8
BLACK
6
CONTINUOUS
10
157.08
20
-119.91
11
157.03
21
-119.898
0
LINE
8
BLACK
6
CONTINUOUS
10
157.03
20
-119.898
11
157
21
-119.857
0
LINE
8
BLACK
6
CONTINUOUS
10
157
20
-119.857
11
157.003
21
-119.806
0
LINE
8
BLACK
6
CONTINUOUS
10
157.003
20
-119.806
11
157.038
21
-119.769
0
LINE
8
BLACK
6
CONTINUOUS
10
157.038
20
-119.769
11
157.133
21
-119.721
0
LINE
8
BLACK
6
CONTINUOUS
10
157.133
20
-119.721
11
157.158
21
-119.714
0
LINE
8
BLACK
6
CONTINUOUS
10
157.158
20
-119.714
11
157.162
21
-119.715
0
LINE
8
BLACK
6
CONTINUOUS
10
157.162
20
-119.715
11
157.167
21
-119.713
0
LINE
8
BLACK
6
CONTINUOUS
10
157.167
20
-119.713
11
157.31
21
-119.713
0
LINE
8
BLACK
6
CONTINUOUS
10
157.31
20
-119.713
11
157.335
21
-119.718
0
LINE
8
BLACK
6
CONTINUOUS
10
158.192
20
-119.718
11
158.196
21
-119.721
0
LINE
8
BLACK
6
CONTINUOUS
10
158.196
20
-119.721
11
158.2
21
-119.721
0
LINE
8
BLACK
6
CONTINUOUS
10
158.2
20
-119.721
11
158.295
21
-119.769
0
LINE
8
BLACK
6
CONTINUOUS
10
158.295
20
-119.769
11
158.313
21
-119.782
0
LINE
8
BLACK
6
CONTINUOUS
10
158.313
20
-119.782
11
158.315
21
-119.783
0
LINE
8
BLACK
6
CONTINUOUS
10
158.315
20
-119.783
11
158.363
21
-119.83
0
LINE
8
BLACK
6
CONTINUOUS
10
158.363
20
-119.83
11
158.375
21
-119.849
0
LINE
8
BLACK
6
CONTINUOUS
10
158.375
20
-119.849
11
158.377
21
-119.85
0
LINE
8
BLACK
6
CONTINUOUS
10
158.377
20
-119.85
11
158.424
21
-119.945
0
LINE
8
BLACK
6
CONTINUOUS
10
158.424
20
-119.945
11
158.432
21
-119.97
0
LINE
8
BLACK
6
CONTINUOUS
10
158.432
20
-119.97
11
158.431
21
-119.974
0
LINE
8
BLACK
6
CONTINUOUS
10
158.431
20
-119.974
11
158.432
21
-119.979
0
LINE
8
BLACK
6
CONTINUOUS
10
158.432
20
-119.979
11
158.432
21
-120.264
0
LINE
8
BLACK
6
CONTINUOUS
10
158.432
20
-120.264
11
158.428
21
-120.29
0
LINE
8
BLACK
6
CONTINUOUS
10
158.428
20
-120.29
11
158.425
21
-120.293
0
LINE
8
BLACK
6
CONTINUOUS
10
158.425
20
-120.293
11
158.424
21
-120.298
0
LINE
8
BLACK
6
CONTINUOUS
10
158.424
20
-120.298
11
158.377
21
-120.393
0
LINE
8
BLACK
6
CONTINUOUS
10
158.377
20
-120.393
11
158.363
21
-120.411
0
LINE
8
BLACK
6
CONTINUOUS
10
158.363
20
-120.411
11
158.363
21
-120.413
0
LINE
8
BLACK
6
CONTINUOUS
10
158.363
20
-120.413
11
158.315
21
-120.46
0
LINE
8
BLACK
6
CONTINUOUS
10
158.315
20
-120.46
11
158.297
21
-120.473
0
LINE
8
BLACK
6
CONTINUOUS
10
158.297
20
-120.473
11
158.295
21
-120.474
0
LINE
8
BLACK
6
CONTINUOUS
10
158.295
20
-120.474
11
158.2
21
-120.522
0
LINE
8
BLACK
6
CONTINUOUS
10
158.2
20
-120.522
11
158.175
21
-120.529
0
LINE
8
BLACK
6
CONTINUOUS
10
158.175
20
-120.529
11
158.171
21
-120.528
0
LINE
8
BLACK
6
CONTINUOUS
10
158.171
20
-120.528
11
158.167
21
-120.53
0
LINE
8
BLACK
6
CONTINUOUS
10
158.167
20
-120.53
11
158.024
21
-120.53
0
LINE
8
BLACK
6
CONTINUOUS
10
158.024
20
-120.53
11
157.998
21
-120.525
0
LINE
8
BLACK
6
CONTINUOUS
10
157.998
20
-120.525
11
157.995
21
-120.522
0
LINE
8
BLACK
6
CONTINUOUS
10
157.995
20
-120.522
11
157.99
21
-120.522
0
LINE
8
BLACK
6
CONTINUOUS
10
157.99
20
-120.522
11
157.895
21
-120.474
0
LINE
8
BLACK
6
CONTINUOUS
10
157.895
20
-120.474
11
157.877
21
-120.461
0
LINE
8
BLACK
6
CONTINUOUS
10
157.877
20
-120.461
11
157.876
21
-120.46
0
LINE
8
BLACK
6
CONTINUOUS
10
157.876
20
-120.46
11
157.828
21
-120.413
0
LINE
8
BLACK
6
CONTINUOUS
10
157.828
20
-120.413
11
157.815
21
-120.394
0
LINE
8
BLACK
6
CONTINUOUS
10
157.815
20
-120.394
11
157.814
21
-120.393
0
LINE
8
BLACK
6
CONTINUOUS
10
157.814
20
-120.393
11
157.766
21
-120.298
0
LINE
8
BLACK
6
CONTINUOUS
10
157.766
20
-120.298
11
157.759
21
-120.273
0
LINE
8
BLACK
6
CONTINUOUS
10
157.759
20
-120.273
11
157.76
21
-120.269
0
LINE
8
BLACK
6
CONTINUOUS
10
157.76
20
-120.269
11
157.758
21
-120.264
0
LINE
8
BLACK
6
CONTINUOUS
10
157.758
20
-120.264
11
157.758
21
-119.979
0
LINE
8
BLACK
6
CONTINUOUS
10
157.758
20
-119.979
11
157.763
21
-119.953
0
LINE
8
BLACK
6
CONTINUOUS
10
157.763
20
-119.953
11
157.766
21
-119.95
0
LINE
8
BLACK
6
CONTINUOUS
10
157.766
20
-119.95
11
157.766
21
-119.945
0
LINE
8
BLACK
6
CONTINUOUS
10
157.766
20
-119.945
11
157.814
21
-119.85
0
LINE
8
BLACK
6
CONTINUOUS
10
157.814
20
-119.85
11
157.827
21
-119.832
0
LINE
8
BLACK
6
CONTINUOUS
10
157.827
20
-119.832
11
157.828
21
-119.83
0
LINE
8
BLACK
6
CONTINUOUS
10
157.828
20
-119.83
11
157.876
21
-119.783
0
LINE
8
BLACK
6
CONTINUOUS
10
157.876
20
-119.783
11
157.894
21
-119.77
0
LINE
8
BLACK
6
CONTINUOUS
10
157.894
20
-119.77
11
157.895
21
-119.769
0
LINE
8
BLACK
6
CONTINUOUS
10
157.895
20
-119.769
11
157.99
21
-119.721
0
LINE
8
BLACK
6
CONTINUOUS
10
157.99
20
-119.721
11
158.015
21
-119.714
0
LINE
8
BLACK
6
CONTINUOUS
10
158.015
20
-119.714
11
158.02
21
-119.715
0
LINE
8
BLACK
6
CONTINUOUS
10
158.02
20
-119.715
11
158.024
21
-119.713
0
LINE
8
BLACK
6
CONTINUOUS
10
158.024
20
-119.713
11
158.167
21
-119.713
0
LINE
8
BLACK
6
CONTINUOUS
10
158.167
20
-119.713
11
158.192
21
-119.718
0
LINE
8
BLACK
6
CONTINUOUS
10
157.973
20
-119.897
11
157.943
21
-119.928
0
LINE
8
BLACK
6
CONTINUOUS
10
157.943
20
-119.928
11
157.908
21
-119.996
0
LINE
8
BLACK
6
CONTINUOUS
10
157.908
20
-119.996
11
157.908
21
-120.247
0
LINE
8
BLACK
6
CONTINUOUS
10
157.908
20
-120.247
11
157.943
21
-120.315
0
LINE
8
BLACK
6
CONTINUOUS
10
157.943
20
-120.315
11
157.973
21
-120.346
0
LINE
8
BLACK
6
CONTINUOUS
10
157.973
20
-120.346
11
158.042
21
-120.38
0
LINE
8
BLACK
6
CONTINUOUS
10
158.042
20
-120.38
11
158.149
21
-120.38
0
LINE
8
BLACK
6
CONTINUOUS
10
158.149
20
-120.38
11
158.217
21
-120.346
0
LINE
8
BLACK
6
CONTINUOUS
10
158.217
20
-120.346
11
158.248
21
-120.315
0
LINE
8
BLACK
6
CONTINUOUS
10
158.248
20
-120.315
11
158.282
21
-120.247
0
LINE
8
BLACK
6
CONTINUOUS
10
158.282
20
-120.247
11
158.282
21
-119.996
0
LINE
8
BLACK
6
CONTINUOUS
10
158.282
20
-119.996
11
158.248
21
-119.928
0
LINE
8
BLACK
6
CONTINUOUS
10
158.248
20
-119.928
11
158.217
21
-119.897
0
LINE
8
BLACK
6
CONTINUOUS
10
158.217
20
-119.897
11
158.149
21
-119.863
0
LINE
8
BLACK
6
CONTINUOUS
10
158.149
20
-119.863
11
158.042
21
-119.863
0
LINE
8
BLACK
6
CONTINUOUS
10
158.042
20
-119.863
11
157.973
21
-119.897
0
LINE
8
BLACK
6
CONTINUOUS
10
149.796
20
-119.407
11
149.813
21
-119.455
0
LINE
8
BLACK
6
CONTINUOUS
10
149.813
20
-119.455
11
149.813
21
-120.312
0
LINE
8
BLACK
6
CONTINUOUS
10
149.813
20
-120.312
11
149.809
21
-120.338
0
LINE
8
BLACK
6
CONTINUOUS
10
149.809
20
-120.338
11
149.806
21
-120.341
0
LINE
8
BLACK
6
CONTINUOUS
10
149.806
20
-120.341
11
149.805
21
-120.346
0
LINE
8
BLACK
6
CONTINUOUS
10
149.805
20
-120.346
11
149.758
21
-120.441
0
LINE
8
BLACK
6
CONTINUOUS
10
149.758
20
-120.441
11
149.742
21
-120.462
0
LINE
8
BLACK
6
CONTINUOUS
10
149.742
20
-120.462
11
149.732
21
-120.466
0
LINE
8
BLACK
6
CONTINUOUS
10
149.732
20
-120.466
11
149.724
21
-120.474
0
LINE
8
BLACK
6
CONTINUOUS
10
149.724
20
-120.474
11
149.629
21
-120.522
0
LINE
8
BLACK
6
CONTINUOUS
10
149.629
20
-120.522
11
149.604
21
-120.529
0
LINE
8
BLACK
6
CONTINUOUS
10
149.604
20
-120.529
11
149.554
21
-120.517
0
LINE
8
BLACK
6
CONTINUOUS
10
149.554
20
-120.517
11
149.523
21
-120.476
0
LINE
8
BLACK
6
CONTINUOUS
10
149.523
20
-120.476
11
149.526
21
-120.425
0
LINE
8
BLACK
6
CONTINUOUS
10
149.526
20
-120.425
11
149.562
21
-120.388
0
LINE
8
BLACK
6
CONTINUOUS
10
149.562
20
-120.388
11
149.635
21
-120.351
0
LINE
8
BLACK
6
CONTINUOUS
10
149.635
20
-120.351
11
149.663
21
-120.294
0
LINE
8
BLACK
6
CONTINUOUS
10
149.663
20
-120.294
11
149.663
21
-119.455
0
LINE
8
BLACK
6
CONTINUOUS
10
149.663
20
-119.455
11
149.668
21
-119.429
0
LINE
8
BLACK
6
CONTINUOUS
10
149.668
20
-119.429
11
149.701
21
-119.39
0
LINE
8
BLACK
6
CONTINUOUS
10
149.701
20
-119.39
11
149.751
21
-119.381
0
LINE
8
BLACK
6
CONTINUOUS
10
149.751
20
-119.381
11
149.796
21
-119.407
0
LINE
8
BLACK
6
CONTINUOUS
10
138.859
20
-119.718
11
138.862
21
-119.721
0
LINE
8
BLACK
6
CONTINUOUS
10
138.862
20
-119.721
11
138.867
21
-119.721
0
LINE
8
BLACK
6
CONTINUOUS
10
138.867
20
-119.721
11
138.953
21
-119.764
0
LINE
8
BLACK
6
CONTINUOUS
10
138.953
20
-119.764
11
138.953
21
-119.762
0
LINE
8
BLACK
6
CONTINUOUS
10
138.953
20
-119.762
11
138.986
21
-119.723
0
LINE
8
BLACK
6
CONTINUOUS
10
138.986
20
-119.723
11
139.037
21
-119.714
0
LINE
8
BLACK
6
CONTINUOUS
10
139.037
20
-119.714
11
139.081
21
-119.74
0
LINE
8
BLACK
6
CONTINUOUS
10
139.081
20
-119.74
11
139.099
21
-119.788
0
LINE
8
BLACK
6
CONTINUOUS
10
139.099
20
-119.788
11
139.099
21
-120.455
0
LINE
8
BLACK
6
CONTINUOUS
10
139.099
20
-120.455
11
139.094
21
-120.48
0
LINE
8
BLACK
6
CONTINUOUS
10
139.094
20
-120.48
11
139.061
21
-120.52
0
LINE
8
BLACK
6
CONTINUOUS
10
139.061
20
-120.52
11
139.011
21
-120.529
0
LINE
8
BLACK
6
CONTINUOUS
10
139.011
20
-120.529
11
138.966
21
-120.503
0
LINE
8
BLACK
6
CONTINUOUS
10
138.966
20
-120.503
11
138.949
21
-120.455
0
LINE
8
BLACK
6
CONTINUOUS
10
138.949
20
-120.455
11
138.949
21
-119.996
0
LINE
8
BLACK
6
CONTINUOUS
10
138.949
20
-119.996
11
138.915
21
-119.928
0
LINE
8
BLACK
6
CONTINUOUS
10
138.915
20
-119.928
11
138.884
21
-119.897
0
LINE
8
BLACK
6
CONTINUOUS
10
138.884
20
-119.897
11
138.816
21
-119.863
0
LINE
8
BLACK
6
CONTINUOUS
10
138.816
20
-119.863
11
138.738
21
-119.863
0
LINE
8
BLACK
6
CONTINUOUS
10
138.738
20
-119.863
11
138.712
21
-119.859
0
LINE
8
BLACK
6
CONTINUOUS
10
138.712
20
-119.859
11
138.673
21
-119.826
0
LINE
8
BLACK
6
CONTINUOUS
10
138.673
20
-119.826
11
138.664
21
-119.775
0
LINE
8
BLACK
6
CONTINUOUS
10
138.664
20
-119.775
11
138.69
21
-119.731
0
LINE
8
BLACK
6
CONTINUOUS
10
138.69
20
-119.731
11
138.738
21
-119.713
0
LINE
8
BLACK
6
CONTINUOUS
10
138.738
20
-119.713
11
138.833
21
-119.713
0
LINE
8
BLACK
6
CONTINUOUS
10
138.833
20
-119.713
11
138.859
21
-119.718
0
LINE
8
BLACK
6
CONTINUOUS
10
141.224
20
-119.74
11
141.242
21
-119.788
0
LINE
8
BLACK
6
CONTINUOUS
10
141.242
20
-119.788
11
141.242
21
-120.455
0
LINE
8
BLACK
6
CONTINUOUS
10
141.242
20
-120.455
11
141.237
21
-120.48
0
LINE
8
BLACK
6
CONTINUOUS
10
141.237
20
-120.48
11
141.204
21
-120.52
0
LINE
8
BLACK
6
CONTINUOUS
10
141.204
20
-120.52
11
141.154
21
-120.529
0
LINE
8
BLACK
6
CONTINUOUS
10
141.154
20
-120.529
11
141.109
21
-120.503
0
LINE
8
BLACK
6
CONTINUOUS
10
141.109
20
-120.503
11
141.092
21
-120.455
0
LINE
8
BLACK
6
CONTINUOUS
10
141.092
20
-120.455
11
141.092
21
-119.788
0
LINE
8
BLACK
6
CONTINUOUS
10
141.092
20
-119.788
11
141.096
21
-119.762
0
LINE
8
BLACK
6
CONTINUOUS
10
141.096
20
-119.762
11
141.129
21
-119.723
0
LINE
8
BLACK
6
CONTINUOUS
10
141.129
20
-119.723
11
141.18
21
-119.714
0
LINE
8
BLACK
6
CONTINUOUS
10
141.18
20
-119.714
11
141.224
21
-119.74
0
LINE
8
BLACK
6
CONTINUOUS
10
143.796
20
-119.407
11
143.813
21
-119.455
0
LINE
8
BLACK
6
CONTINUOUS
10
143.813
20
-119.455
11
143.813
21
-120.455
0
LINE
8
BLACK
6
CONTINUOUS
10
143.813
20
-120.455
11
143.809
21
-120.48
0
LINE
8
BLACK
6
CONTINUOUS
10
143.809
20
-120.48
11
143.776
21
-120.52
0
LINE
8
BLACK
6
CONTINUOUS
10
143.776
20
-120.52
11
143.725
21
-120.529
0
LINE
8
BLACK
6
CONTINUOUS
10
143.725
20
-120.529
11
143.681
21
-120.503
0
LINE
8
BLACK
6
CONTINUOUS
10
143.681
20
-120.503
11
143.663
21
-120.455
0
LINE
8
BLACK
6
CONTINUOUS
10
143.663
20
-120.455
11
143.663
21
-119.914
0
LINE
8
BLACK
6
CONTINUOUS
10
143.663
20
-119.914
11
143.646
21
-119.897
0
LINE
8
BLACK
6
CONTINUOUS
10
143.646
20
-119.897
11
143.578
21
-119.863
0
LINE
8
BLACK
6
CONTINUOUS
10
143.578
20
-119.863
11
143.47
21
-119.863
0
LINE
8
BLACK
6
CONTINUOUS
10
143.47
20
-119.863
11
143.413
21
-119.892
0
LINE
8
BLACK
6
CONTINUOUS
10
143.413
20
-119.892
11
143.385
21
-119.949
0
LINE
8
BLACK
6
CONTINUOUS
10
143.385
20
-119.949
11
143.385
21
-120.455
0
LINE
8
BLACK
6
CONTINUOUS
10
143.385
20
-120.455
11
143.38
21
-120.48
0
LINE
8
BLACK
6
CONTINUOUS
10
143.38
20
-120.48
11
143.347
21
-120.52
0
LINE
8
BLACK
6
CONTINUOUS
10
143.347
20
-120.52
11
143.296
21
-120.529
0
LINE
8
BLACK
6
CONTINUOUS
10
143.296
20
-120.529
11
143.252
21
-120.503
0
LINE
8
BLACK
6
CONTINUOUS
10
143.252
20
-120.503
11
143.235
21
-120.455
0
LINE
8
BLACK
6
CONTINUOUS
10
143.235
20
-120.455
11
143.235
21
-119.931
0
LINE
8
BLACK
6
CONTINUOUS
10
143.235
20
-119.931
11
143.239
21
-119.905
0
LINE
8
BLACK
6
CONTINUOUS
10
143.239
20
-119.905
11
143.242
21
-119.902
0
LINE
8
BLACK
6
CONTINUOUS
10
143.242
20
-119.902
11
143.242
21
-119.897
0
LINE
8
BLACK
6
CONTINUOUS
10
143.242
20
-119.897
11
143.29
21
-119.802
0
LINE
8
BLACK
6
CONTINUOUS
10
143.29
20
-119.802
11
143.306
21
-119.781
0
LINE
8
BLACK
6
CONTINUOUS
10
143.306
20
-119.781
11
143.316
21
-119.777
0
LINE
8
BLACK
6
CONTINUOUS
10
143.316
20
-119.777
11
143.324
21
-119.769
0
LINE
8
BLACK
6
CONTINUOUS
10
143.324
20
-119.769
11
143.419
21
-119.721
0
LINE
8
BLACK
6
CONTINUOUS
10
143.419
20
-119.721
11
143.444
21
-119.714
0
LINE
8
BLACK
6
CONTINUOUS
10
143.444
20
-119.714
11
143.448
21
-119.715
0
LINE
8
BLACK
6
CONTINUOUS
10
143.448
20
-119.715
11
143.452
21
-119.713
0
LINE
8
BLACK
6
CONTINUOUS
10
143.452
20
-119.713
11
143.595
21
-119.713
0
LINE
8
BLACK
6
CONTINUOUS
10
143.595
20
-119.713
11
143.621
21
-119.718
0
LINE
8
BLACK
6
CONTINUOUS
10
143.621
20
-119.718
11
143.624
21
-119.721
0
LINE
8
BLACK
6
CONTINUOUS
10
143.624
20
-119.721
11
143.629
21
-119.721
0
LINE
8
BLACK
6
CONTINUOUS
10
143.629
20
-119.721
11
143.663
21
-119.738
0
LINE
8
BLACK
6
CONTINUOUS
10
143.663
20
-119.738
11
143.663
21
-119.455
0
LINE
8
BLACK
6
CONTINUOUS
10
143.663
20
-119.455
11
143.668
21
-119.429
0
LINE
8
BLACK
6
CONTINUOUS
10
143.668
20
-119.429
11
143.701
21
-119.39
0
LINE
8
BLACK
6
CONTINUOUS
10
143.701
20
-119.39
11
143.751
21
-119.381
0
LINE
8
BLACK
6
CONTINUOUS
10
143.751
20
-119.381
11
143.796
21
-119.407
0
LINE
8
BLACK
6
CONTINUOUS
10
145.097
20
-119.718
11
145.101
21
-119.721
0
LINE
8
BLACK
6
CONTINUOUS
10
145.101
20
-119.721
11
145.105
21
-119.721
0
LINE
8
BLACK
6
CONTINUOUS
10
145.105
20
-119.721
11
145.157
21
-119.747
0
LINE
8
BLACK
6
CONTINUOUS
10
145.157
20
-119.747
11
145.177
21
-119.723
0
LINE
8
BLACK
6
CONTINUOUS
10
145.177
20
-119.723
11
145.227
21
-119.714
0
LINE
8
BLACK
6
CONTINUOUS
10
145.227
20
-119.714
11
145.272
21
-119.74
0
LINE
8
BLACK
6
CONTINUOUS
10
145.272
20
-119.74
11
145.289
21
-119.788
0
LINE
8
BLACK
6
CONTINUOUS
10
145.289
20
-119.788
11
145.289
21
-120.455
0
LINE
8
BLACK
6
CONTINUOUS
10
145.289
20
-120.455
11
145.285
21
-120.48
0
LINE
8
BLACK
6
CONTINUOUS
10
145.285
20
-120.48
11
145.252
21
-120.52
0
LINE
8
BLACK
6
CONTINUOUS
10
145.252
20
-120.52
11
145.201
21
-120.529
0
LINE
8
BLACK
6
CONTINUOUS
10
145.201
20
-120.529
11
145.157
21
-120.503
0
LINE
8
BLACK
6
CONTINUOUS
10
145.157
20
-120.503
11
145.139
21
-120.455
0
LINE
8
BLACK
6
CONTINUOUS
10
145.139
20
-120.455
11
145.139
21
-119.914
0
LINE
8
BLACK
6
CONTINUOUS
10
145.139
20
-119.914
11
145.122
21
-119.897
0
LINE
8
BLACK
6
CONTINUOUS
10
145.122
20
-119.897
11
145.054
21
-119.863
0
LINE
8
BLACK
6
CONTINUOUS
10
145.054
20
-119.863
11
144.946
21
-119.863
0
LINE
8
BLACK
6
CONTINUOUS
10
144.946
20
-119.863
11
144.889
21
-119.892
0
LINE
8
BLACK
6
CONTINUOUS
10
144.889
20
-119.892
11
144.861
21
-119.949
0
LINE
8
BLACK
6
CONTINUOUS
10
144.861
20
-119.949
11
144.861
21
-120.455
0
LINE
8
BLACK
6
CONTINUOUS
10
144.861
20
-120.455
11
144.856
21
-120.48
0
LINE
8
BLACK
6
CONTINUOUS
10
144.856
20
-120.48
11
144.823
21
-120.52
0
LINE
8
BLACK
6
CONTINUOUS
10
144.823
20
-120.52
11
144.773
21
-120.529
0
LINE
8
BLACK
6
CONTINUOUS
10
144.773
20
-120.529
11
144.728
21
-120.503
0
LINE
8
BLACK
6
CONTINUOUS
10
144.728
20
-120.503
11
144.711
21
-120.455
0
LINE
8
BLACK
6
CONTINUOUS
10
144.711
20
-120.455
11
144.711
21
-119.931
0
LINE
8
BLACK
6
CONTINUOUS
10
144.711
20
-119.931
11
144.715
21
-119.905
0
LINE
8
BLACK
6
CONTINUOUS
10
144.715
20
-119.905
11
144.718
21
-119.902
0
LINE
8
BLACK
6
CONTINUOUS
10
144.718
20
-119.902
11
144.719
21
-119.897
0
LINE
8
BLACK
6
CONTINUOUS
10
144.719
20
-119.897
11
144.766
21
-119.802
0
LINE
8
BLACK
6
CONTINUOUS
10
144.766
20
-119.802
11
144.782
21
-119.781
0
LINE
8
BLACK
6
CONTINUOUS
10
144.782
20
-119.781
11
144.792
21
-119.777
0
LINE
8
BLACK
6
CONTINUOUS
10
144.792
20
-119.777
11
144.8
21
-119.769
0
LINE
8
BLACK
6
CONTINUOUS
10
144.8
20
-119.769
11
144.895
21
-119.721
0
LINE
8
BLACK
6
CONTINUOUS
10
144.895
20
-119.721
11
144.92
21
-119.714
0
LINE
8
BLACK
6
CONTINUOUS
10
144.92
20
-119.714
11
144.924
21
-119.715
0
LINE
8
BLACK
6
CONTINUOUS
10
144.924
20
-119.715
11
144.929
21
-119.713
0
LINE
8
BLACK
6
CONTINUOUS
10
144.929
20
-119.713
11
145.071
21
-119.713
0
LINE
8
BLACK
6
CONTINUOUS
10
145.071
20
-119.713
11
145.097
21
-119.718
0
LINE
8
BLACK
6
CONTINUOUS
10
148.145
20
-119.718
11
148.148
21
-119.721
0
LINE
8
BLACK
6
CONTINUOUS
10
148.148
20
-119.721
11
148.153
21
-119.721
0
LINE
8
BLACK
6
CONTINUOUS
10
148.153
20
-119.721
11
148.239
21
-119.764
0
LINE
8
BLACK
6
CONTINUOUS
10
148.239
20
-119.764
11
148.239
21
-119.762
0
LINE
8
BLACK
6
CONTINUOUS
10
148.239
20
-119.762
11
148.272
21
-119.723
0
LINE
8
BLACK
6
CONTINUOUS
10
148.272
20
-119.723
11
148.323
21
-119.714
0
LINE
8
BLACK
6
CONTINUOUS
10
148.323
20
-119.714
11
148.367
21
-119.74
0
LINE
8
BLACK
6
CONTINUOUS
10
148.367
20
-119.74
11
148.385
21
-119.788
0
LINE
8
BLACK
6
CONTINUOUS
10
148.385
20
-119.788
11
148.385
21
-120.455
0
LINE
8
BLACK
6
CONTINUOUS
10
148.385
20
-120.455
11
148.38
21
-120.48
0
LINE
8
BLACK
6
CONTINUOUS
10
148.38
20
-120.48
11
148.347
21
-120.52
0
LINE
8
BLACK
6
CONTINUOUS
10
148.347
20
-120.52
11
148.296
21
-120.529
0
LINE
8
BLACK
6
CONTINUOUS
10
148.296
20
-120.529
11
148.252
21
-120.503
0
LINE
8
BLACK
6
CONTINUOUS
10
148.252
20
-120.503
11
148.235
21
-120.455
0
LINE
8
BLACK
6
CONTINUOUS
10
148.235
20
-120.455
11
148.235
21
-119.996
0
LINE
8
BLACK
6
CONTINUOUS
10
148.235
20
-119.996
11
148.2
21
-119.928
0
LINE
8
BLACK
6
CONTINUOUS
10
148.2
20
-119.928
11
148.17
21
-119.897
0
LINE
8
BLACK
6
CONTINUOUS
10
148.17
20
-119.897
11
148.101
21
-119.863
0
LINE
8
BLACK
6
CONTINUOUS
10
148.101
20
-119.863
11
148.024
21
-119.863
0
LINE
8
BLACK
6
CONTINUOUS
10
148.024
20
-119.863
11
147.998
21
-119.859
0
LINE
8
BLACK
6
CONTINUOUS
10
147.998
20
-119.859
11
147.959
21
-119.826
0
LINE
8
BLACK
6
CONTINUOUS
10
147.959
20
-119.826
11
147.95
21
-119.775
0
LINE
8
BLACK
6
CONTINUOUS
10
147.95
20
-119.775
11
147.976
21
-119.731
0
LINE
8
BLACK
6
CONTINUOUS
10
147.976
20
-119.731
11
148.024
21
-119.713
0
LINE
8
BLACK
6
CONTINUOUS
10
148.024
20
-119.713
11
148.119
21
-119.713
0
LINE
8
BLACK
6
CONTINUOUS
10
148.119
20
-119.713
11
148.145
21
-119.718
0
LINE
8
BLACK
6
CONTINUOUS
10
153.598
20
-119.383
11
153.608
21
-119.381
0
LINE
8
BLACK
6
CONTINUOUS
10
153.608
20
-119.381
11
153.622
21
-119.389
0
LINE
8
BLACK
6
CONTINUOUS
10
153.622
20
-119.389
11
153.638
21
-119.393
0
LINE
8
BLACK
6
CONTINUOUS
10
153.638
20
-119.393
11
153.644
21
-119.402
0
LINE
8
BLACK
6
CONTINUOUS
10
153.644
20
-119.402
11
153.653
21
-119.407
0
LINE
8
BLACK
6
CONTINUOUS
10
153.653
20
-119.407
11
153.658
21
-119.422
0
LINE
8
BLACK
6
CONTINUOUS
10
153.658
20
-119.422
11
153.668
21
-119.435
0
LINE
8
BLACK
6
CONTINUOUS
10
153.668
20
-119.435
11
153.667
21
-119.445
0
LINE
8
BLACK
6
CONTINUOUS
10
153.667
20
-119.445
11
153.67
21
-119.455
0
LINE
8
BLACK
6
CONTINUOUS
10
153.67
20
-119.455
11
153.67
21
-120.455
0
LINE
8
BLACK
6
CONTINUOUS
10
153.67
20
-120.455
11
153.666
21
-120.48
0
LINE
8
BLACK
6
CONTINUOUS
10
153.666
20
-120.48
11
153.633
21
-120.52
0
LINE
8
BLACK
6
CONTINUOUS
10
153.633
20
-120.52
11
153.582
21
-120.529
0
LINE
8
BLACK
6
CONTINUOUS
10
153.582
20
-120.529
11
153.538
21
-120.503
0
LINE
8
BLACK
6
CONTINUOUS
10
153.538
20
-120.503
11
153.52
21
-120.455
0
LINE
8
BLACK
6
CONTINUOUS
10
153.52
20
-120.455
11
153.52
21
-119.793
0
LINE
8
BLACK
6
CONTINUOUS
10
153.52
20
-119.793
11
153.33
21
-120.201
0
LINE
8
BLACK
6
CONTINUOUS
10
153.33
20
-120.201
11
153.324
21
-120.209
0
LINE
8
BLACK
6
CONTINUOUS
10
153.324
20
-120.209
11
153.323
21
-120.212
0
LINE
8
BLACK
6
CONTINUOUS
10
153.323
20
-120.212
11
153.321
21
-120.214
0
LINE
8
BLACK
6
CONTINUOUS
10
153.321
20
-120.214
11
153.315
21
-120.222
0
LINE
8
BLACK
6
CONTINUOUS
10
153.315
20
-120.222
11
153.297
21
-120.23
0
LINE
8
BLACK
6
CONTINUOUS
10
153.297
20
-120.23
11
153.281
21
-120.242
0
LINE
8
BLACK
6
CONTINUOUS
10
153.281
20
-120.242
11
153.275
21
-120.241
0
LINE
8
BLACK
6
CONTINUOUS
10
153.275
20
-120.241
11
153.268
21
-120.244
0
LINE
8
BLACK
6
CONTINUOUS
10
153.268
20
-120.244
11
153.25
21
-120.239
0
LINE
8
BLACK
6
CONTINUOUS
10
153.25
20
-120.239
11
153.23
21
-120.237
0
LINE
8
BLACK
6
CONTINUOUS
10
153.23
20
-120.237
11
153.225
21
-120.232
0
LINE
8
BLACK
6
CONTINUOUS
10
153.225
20
-120.232
11
153.219
21
-120.231
0
LINE
8
BLACK
6
CONTINUOUS
10
153.219
20
-120.231
11
153.208
21
-120.215
0
LINE
8
BLACK
6
CONTINUOUS
10
153.208
20
-120.215
11
153.194
21
-120.201
0
LINE
8
BLACK
6
CONTINUOUS
10
153.194
20
-120.201
11
153.004
21
-119.793
0
LINE
8
BLACK
6
CONTINUOUS
10
153.004
20
-119.793
11
153.004
21
-120.455
0
LINE
8
BLACK
6
CONTINUOUS
10
153.004
20
-120.455
11
152.999
21
-120.48
0
LINE
8
BLACK
6
CONTINUOUS
10
152.999
20
-120.48
11
152.966
21
-120.52
0
LINE
8
BLACK
6
CONTINUOUS
10
152.966
20
-120.52
11
152.916
21
-120.529
0
LINE
8
BLACK
6
CONTINUOUS
10
152.916
20
-120.529
11
152.871
21
-120.503
0
LINE
8
BLACK
6
CONTINUOUS
10
152.871
20
-120.503
11
152.854
21
-120.455
0
LINE
8
BLACK
6
CONTINUOUS
10
152.854
20
-120.455
11
152.854
21
-119.455
0
LINE
8
BLACK
6
CONTINUOUS
10
152.854
20
-119.455
11
152.858
21
-119.429
0
LINE
8
BLACK
6
CONTINUOUS
10
152.858
20
-119.429
11
152.865
21
-119.421
0
LINE
8
BLACK
6
CONTINUOUS
10
152.865
20
-119.421
11
152.867
21
-119.412
0
LINE
8
BLACK
6
CONTINUOUS
10
152.867
20
-119.412
11
152.881
21
-119.402
0
LINE
8
BLACK
6
CONTINUOUS
10
152.881
20
-119.402
11
152.891
21
-119.39
0
LINE
8
BLACK
6
CONTINUOUS
10
152.891
20
-119.39
11
152.901
21
-119.388
0
LINE
8
BLACK
6
CONTINUOUS
10
152.901
20
-119.388
11
152.909
21
-119.382
0
LINE
8
BLACK
6
CONTINUOUS
10
152.909
20
-119.382
11
152.925
21
-119.384
0
LINE
8
BLACK
6
CONTINUOUS
10
152.925
20
-119.384
11
152.942
21
-119.381
0
LINE
8
BLACK
6
CONTINUOUS
10
152.942
20
-119.381
11
152.95
21
-119.386
0
LINE
8
BLACK
6
CONTINUOUS
10
152.95
20
-119.386
11
152.96
21
-119.387
0
LINE
8
BLACK
6
CONTINUOUS
10
152.96
20
-119.387
11
152.972
21
-119.398
0
LINE
8
BLACK
6
CONTINUOUS
10
152.972
20
-119.398
11
152.986
21
-119.407
0
LINE
8
BLACK
6
CONTINUOUS
10
152.986
20
-119.407
11
152.989
21
-119.416
0
LINE
8
BLACK
6
CONTINUOUS
10
152.989
20
-119.416
11
152.997
21
-119.423
0
LINE
8
BLACK
6
CONTINUOUS
10
152.997
20
-119.423
11
153.262
21
-119.992
0
LINE
8
BLACK
6
CONTINUOUS
10
153.262
20
-119.992
11
153.527
21
-119.423
0
LINE
8
BLACK
6
CONTINUOUS
10
153.527
20
-119.423
11
153.542
21
-119.402
0
LINE
8
BLACK
6
CONTINUOUS
10
153.542
20
-119.402
11
153.551
21
-119.398
0
LINE
8
BLACK
6
CONTINUOUS
10
153.551
20
-119.398
11
153.558
21
-119.39
0
LINE
8
BLACK
6
CONTINUOUS
10
153.558
20
-119.39
11
153.574
21
-119.387
0
LINE
8
BLACK
6
CONTINUOUS
10
153.574
20
-119.387
11
153.589
21
-119.38
0
LINE
8
BLACK
6
CONTINUOUS
10
153.589
20
-119.38
11
153.598
21
-119.383
0
LINE
8
BLACK
6
CONTINUOUS
10
155.748
20
-119.74
11
155.765
21
-119.788
0
LINE
8
BLACK
6
CONTINUOUS
10
155.765
20
-119.788
11
155.765
21
-120.455
0
LINE
8
BLACK
6
CONTINUOUS
10
155.765
20
-120.455
11
155.761
21
-120.48
0
LINE
8
BLACK
6
CONTINUOUS
10
155.761
20
-120.48
11
155.728
21
-120.52
0
LINE
8
BLACK
6
CONTINUOUS
10
155.728
20
-120.52
11
155.677
21
-120.529
0
LINE
8
BLACK
6
CONTINUOUS
10
155.677
20
-120.529
11
155.633
21
-120.503
0
LINE
8
BLACK
6
CONTINUOUS
10
155.633
20
-120.503
11
155.615
21
-120.455
0
LINE
8
BLACK
6
CONTINUOUS
10
155.615
20
-120.455
11
155.615
21
-119.788
0
LINE
8
BLACK
6
CONTINUOUS
10
155.615
20
-119.788
11
155.62
21
-119.762
0
LINE
8
BLACK
6
CONTINUOUS
10
155.62
20
-119.762
11
155.653
21
-119.723
0
LINE
8
BLACK
6
CONTINUOUS
10
155.653
20
-119.723
11
155.703
21
-119.714
0
LINE
8
BLACK
6
CONTINUOUS
10
155.703
20
-119.714
11
155.748
21
-119.74
0
LINE
8
BLACK
6
CONTINUOUS
10
159.456
20
-119.383
11
159.465
21
-119.381
0
LINE
8
BLACK
6
CONTINUOUS
10
159.465
20
-119.381
11
159.48
21
-119.389
0
LINE
8
BLACK
6
CONTINUOUS
10
159.48
20
-119.389
11
159.495
21
-119.393
0
LINE
8
BLACK
6
CONTINUOUS
10
159.495
20
-119.393
11
159.501
21
-119.402
0
LINE
8
BLACK
6
CONTINUOUS
10
159.501
20
-119.402
11
159.51
21
-119.407
0
LINE
8
BLACK
6
CONTINUOUS
10
159.51
20
-119.407
11
159.515
21
-119.422
0
LINE
8
BLACK
6
CONTINUOUS
10
159.515
20
-119.422
11
159.525
21
-119.435
0
LINE
8
BLACK
6
CONTINUOUS
10
159.525
20
-119.435
11
159.524
21
-119.445
0
LINE
8
BLACK
6
CONTINUOUS
10
159.524
20
-119.445
11
159.527
21
-119.455
0
LINE
8
BLACK
6
CONTINUOUS
10
159.527
20
-119.455
11
159.527
21
-120.455
0
LINE
8
BLACK
6
CONTINUOUS
10
159.527
20
-120.455
11
159.523
21
-120.48
0
LINE
8
BLACK
6
CONTINUOUS
10
159.523
20
-120.48
11
159.49
21
-120.52
0
LINE
8
BLACK
6
CONTINUOUS
10
159.49
20
-120.52
11
159.439
21
-120.529
0
LINE
8
BLACK
6
CONTINUOUS
10
159.439
20
-120.529
11
159.395
21
-120.503
0
LINE
8
BLACK
6
CONTINUOUS
10
159.395
20
-120.503
11
159.377
21
-120.455
0
LINE
8
BLACK
6
CONTINUOUS
10
159.377
20
-120.455
11
159.377
21
-119.793
0
LINE
8
BLACK
6
CONTINUOUS
10
159.377
20
-119.793
11
159.187
21
-120.201
0
LINE
8
BLACK
6
CONTINUOUS
10
159.187
20
-120.201
11
159.181
21
-120.209
0
LINE
8
BLACK
6
CONTINUOUS
10
159.181
20
-120.209
11
159.18
21
-120.212
0
LINE
8
BLACK
6
CONTINUOUS
10
159.18
20
-120.212
11
159.178
21
-120.214
0
LINE
8
BLACK
6
CONTINUOUS
10
159.178
20
-120.214
11
159.172
21
-120.222
0
LINE
8
BLACK
6
CONTINUOUS
10
159.172
20
-120.222
11
159.154
21
-120.23
0
LINE
8
BLACK
6
CONTINUOUS
10
159.154
20
-120.23
11
159.138
21
-120.242
0
LINE
8
BLACK
6
CONTINUOUS
10
159.138
20
-120.242
11
159.132
21
-120.241
0
LINE
8
BLACK
6
CONTINUOUS
10
159.132
20
-120.241
11
159.126
21
-120.244
0
LINE
8
BLACK
6
CONTINUOUS
10
159.126
20
-120.244
11
159.107
21
-120.239
0
LINE
8
BLACK
6
CONTINUOUS
10
159.107
20
-120.239
11
159.087
21
-120.237
0
LINE
8
BLACK
6
CONTINUOUS
10
159.087
20
-120.237
11
159.083
21
-120.232
0
LINE
8
BLACK
6
CONTINUOUS
10
159.083
20
-120.232
11
159.076
21
-120.231
0
LINE
8
BLACK
6
CONTINUOUS
10
159.076
20
-120.231
11
159.065
21
-120.215
0
LINE
8
BLACK
6
CONTINUOUS
10
159.065
20
-120.215
11
159.051
21
-120.201
0
LINE
8
BLACK
6
CONTINUOUS
10
159.051
20
-120.201
11
158.861
21
-119.793
0
LINE
8
BLACK
6
CONTINUOUS
10
158.861
20
-119.793
11
158.861
21
-120.455
0
LINE
8
BLACK
6
CONTINUOUS
10
158.861
20
-120.455
11
158.856
21
-120.48
0
LINE
8
BLACK
6
CONTINUOUS
10
158.856
20
-120.48
11
158.823
21
-120.52
0
LINE
8
BLACK
6
CONTINUOUS
10
158.823
20
-120.52
11
158.773
21
-120.529
0
LINE
8
BLACK
6
CONTINUOUS
10
158.773
20
-120.529
11
158.728
21
-120.503
0
LINE
8
BLACK
6
CONTINUOUS
10
158.728
20
-120.503
11
158.711
21
-120.455
0
LINE
8
BLACK
6
CONTINUOUS
10
158.711
20
-120.455
11
158.711
21
-119.455
0
LINE
8
BLACK
6
CONTINUOUS
10
158.711
20
-119.455
11
158.715
21
-119.429
0
LINE
8
BLACK
6
CONTINUOUS
10
158.715
20
-119.429
11
158.722
21
-119.421
0
LINE
8
BLACK
6
CONTINUOUS
10
158.722
20
-119.421
11
158.724
21
-119.412
0
LINE
8
BLACK
6
CONTINUOUS
10
158.724
20
-119.412
11
158.738
21
-119.402
0
LINE
8
BLACK
6
CONTINUOUS
10
158.738
20
-119.402
11
158.748
21
-119.39
0
LINE
8
BLACK
6
CONTINUOUS
10
158.748
20
-119.39
11
158.758
21
-119.388
0
LINE
8
BLACK
6
CONTINUOUS
10
158.758
20
-119.388
11
158.766
21
-119.382
0
LINE
8
BLACK
6
CONTINUOUS
10
158.766
20
-119.382
11
158.783
21
-119.384
0
LINE
8
BLACK
6
CONTINUOUS
10
158.783
20
-119.384
11
158.799
21
-119.381
0
LINE
8
BLACK
6
CONTINUOUS
10
158.799
20
-119.381
11
158.807
21
-119.386
0
LINE
8
BLACK
6
CONTINUOUS
10
158.807
20
-119.386
11
158.817
21
-119.387
0
LINE
8
BLACK
6
CONTINUOUS
10
158.817
20
-119.387
11
158.829
21
-119.398
0
LINE
8
BLACK
6
CONTINUOUS
10
158.829
20
-119.398
11
158.843
21
-119.407
0
LINE
8
BLACK
6
CONTINUOUS
10
158.843
20
-119.407
11
158.847
21
-119.416
0
LINE
8
BLACK
6
CONTINUOUS
10
158.847
20
-119.416
11
158.854
21
-119.423
0
LINE
8
BLACK
6
CONTINUOUS
10
158.854
20
-119.423
11
159.119
21
-119.992
0
LINE
8
BLACK
6
CONTINUOUS
10
159.119
20
-119.992
11
159.384
21
-119.423
0
LINE
8
BLACK
6
CONTINUOUS
10
159.384
20
-119.423
11
159.399
21
-119.402
0
LINE
8
BLACK
6
CONTINUOUS
10
159.399
20
-119.402
11
159.408
21
-119.398
0
LINE
8
BLACK
6
CONTINUOUS
10
159.408
20
-119.398
11
159.415
21
-119.39
0
LINE
8
BLACK
6
CONTINUOUS
10
159.415
20
-119.39
11
159.431
21
-119.387
0
LINE
8
BLACK
6
CONTINUOUS
10
159.431
20
-119.387
11
159.446
21
-119.38
0
LINE
8
BLACK
6
CONTINUOUS
10
159.446
20
-119.38
11
159.456
21
-119.383
0
LINE
8
BLACK
6
CONTINUOUS
10
141.176
20
-119.382
11
141.18
21
-119.381
0
LINE
8
BLACK
6
CONTINUOUS
10
141.18
20
-119.381
11
141.183
21
-119.383
0
LINE
8
BLACK
6
CONTINUOUS
10
141.183
20
-119.383
11
141.186
21
-119.382
0
LINE
8
BLACK
6
CONTINUOUS
10
141.186
20
-119.382
11
141.202
21
-119.394
0
LINE
8
BLACK
6
CONTINUOUS
10
141.202
20
-119.394
11
141.22
21
-119.402
0
LINE
8
BLACK
6
CONTINUOUS
10
141.22
20
-119.402
11
141.267
21
-119.449
0
LINE
8
BLACK
6
CONTINUOUS
10
141.267
20
-119.449
11
141.273
21
-119.458
0
LINE
8
BLACK
6
CONTINUOUS
10
141.273
20
-119.458
11
141.276
21
-119.459
0
LINE
8
BLACK
6
CONTINUOUS
10
141.276
20
-119.459
11
141.277
21
-119.463
0
LINE
8
BLACK
6
CONTINUOUS
10
141.277
20
-119.463
11
141.282
21
-119.471
0
LINE
8
BLACK
6
CONTINUOUS
10
141.282
20
-119.471
11
141.284
21
-119.49
0
LINE
8
BLACK
6
CONTINUOUS
10
141.284
20
-119.49
11
141.289
21
-119.509
0
LINE
8
BLACK
6
CONTINUOUS
10
141.289
20
-119.509
11
141.286
21
-119.515
0
LINE
8
BLACK
6
CONTINUOUS
10
141.286
20
-119.515
11
141.287
21
-119.522
0
LINE
8
BLACK
6
CONTINUOUS
10
141.287
20
-119.522
11
141.276
21
-119.538
0
LINE
8
BLACK
6
CONTINUOUS
10
141.276
20
-119.538
11
141.267
21
-119.555
0
LINE
8
BLACK
6
CONTINUOUS
10
141.267
20
-119.555
11
141.22
21
-119.603
0
LINE
8
BLACK
6
CONTINUOUS
10
141.22
20
-119.603
11
141.212
21
-119.609
0
LINE
8
BLACK
6
CONTINUOUS
10
141.212
20
-119.609
11
141.21
21
-119.611
0
LINE
8
BLACK
6
CONTINUOUS
10
141.21
20
-119.611
11
141.206
21
-119.612
0
LINE
8
BLACK
6
CONTINUOUS
10
141.206
20
-119.612
11
141.206
21
-119.612
0
LINE
8
BLACK
6
CONTINUOUS
10
141.206
20
-119.612
11
141.204
21
-119.615
0
LINE
8
BLACK
6
CONTINUOUS
10
141.204
20
-119.615
11
141.202
21
-119.615
0
LINE
8
BLACK
6
CONTINUOUS
10
141.202
20
-119.615
11
141.198
21
-119.618
0
LINE
8
BLACK
6
CONTINUOUS
10
141.198
20
-119.618
11
141.179
21
-119.62
0
LINE
8
BLACK
6
CONTINUOUS
10
141.179
20
-119.62
11
141.16
21
-119.625
0
LINE
8
BLACK
6
CONTINUOUS
10
141.16
20
-119.625
11
141.157
21
-119.623
0
LINE
8
BLACK
6
CONTINUOUS
10
141.157
20
-119.623
11
141.154
21
-119.624
0
LINE
8
BLACK
6
CONTINUOUS
10
141.154
20
-119.624
11
141.151
21
-119.622
0
LINE
8
BLACK
6
CONTINUOUS
10
141.151
20
-119.622
11
141.147
21
-119.623
0
LINE
8
BLACK
6
CONTINUOUS
10
141.147
20
-119.623
11
141.131
21
-119.611
0
LINE
8
BLACK
6
CONTINUOUS
10
141.131
20
-119.611
11
141.114
21
-119.603
0
LINE
8
BLACK
6
CONTINUOUS
10
141.114
20
-119.603
11
141.066
21
-119.555
0
LINE
8
BLACK
6
CONTINUOUS
10
141.066
20
-119.555
11
141.06
21
-119.547
0
LINE
8
BLACK
6
CONTINUOUS
10
141.06
20
-119.547
11
141.058
21
-119.545
0
LINE
8
BLACK
6
CONTINUOUS
10
141.058
20
-119.545
11
141.057
21
-119.542
0
LINE
8
BLACK
6
CONTINUOUS
10
141.057
20
-119.542
11
141.051
21
-119.534
0
LINE
8
BLACK
6
CONTINUOUS
10
141.051
20
-119.534
11
141.049
21
-119.515
0
LINE
8
BLACK
6
CONTINUOUS
10
141.049
20
-119.515
11
141.044
21
-119.496
0
LINE
8
BLACK
6
CONTINUOUS
10
141.044
20
-119.496
11
141.047
21
-119.49
0
LINE
8
BLACK
6
CONTINUOUS
10
141.047
20
-119.49
11
141.047
21
-119.483
0
LINE
8
BLACK
6
CONTINUOUS
10
141.047
20
-119.483
11
141.058
21
-119.467
0
LINE
8
BLACK
6
CONTINUOUS
10
141.058
20
-119.467
11
141.066
21
-119.449
0
LINE
8
BLACK
6
CONTINUOUS
10
141.066
20
-119.449
11
141.114
21
-119.402
0
LINE
8
BLACK
6
CONTINUOUS
10
141.114
20
-119.402
11
141.122
21
-119.396
0
LINE
8
BLACK
6
CONTINUOUS
10
141.122
20
-119.396
11
141.124
21
-119.393
0
LINE
8
BLACK
6
CONTINUOUS
10
141.124
20
-119.393
11
141.127
21
-119.393
0
LINE
8
BLACK
6
CONTINUOUS
10
141.127
20
-119.393
11
141.127
21
-119.392
0
LINE
8
BLACK
6
CONTINUOUS
10
141.127
20
-119.392
11
141.129
21
-119.39
0
LINE
8
BLACK
6
CONTINUOUS
10
141.129
20
-119.39
11
141.131
21
-119.39
0
LINE
8
BLACK
6
CONTINUOUS
10
141.131
20
-119.39
11
141.135
21
-119.387
0
LINE
8
BLACK
6
CONTINUOUS
10
141.135
20
-119.387
11
141.154
21
-119.385
0
LINE
8
BLACK
6
CONTINUOUS
10
141.154
20
-119.385
11
141.173
21
-119.38
0
LINE
8
BLACK
6
CONTINUOUS
10
141.173
20
-119.38
11
141.176
21
-119.382
0
LINE
8
BLACK
6
CONTINUOUS
10
155.7
20
-119.382
11
155.703
21
-119.381
0
LINE
8
BLACK
6
CONTINUOUS
10
155.703
20
-119.381
11
155.706
21
-119.383
0
LINE
8
BLACK
6
CONTINUOUS
10
155.706
20
-119.383
11
155.71
21
-119.382
0
LINE
8
BLACK
6
CONTINUOUS
10
155.71
20
-119.382
11
155.726
21
-119.394
0
LINE
8
BLACK
6
CONTINUOUS
10
155.726
20
-119.394
11
155.744
21
-119.402
0
LINE
8
BLACK
6
CONTINUOUS
10
155.744
20
-119.402
11
155.791
21
-119.449
0
LINE
8
BLACK
6
CONTINUOUS
10
155.791
20
-119.449
11
155.797
21
-119.458
0
LINE
8
BLACK
6
CONTINUOUS
10
155.797
20
-119.458
11
155.8
21
-119.459
0
LINE
8
BLACK
6
CONTINUOUS
10
155.8
20
-119.459
11
155.8
21
-119.463
0
LINE
8
BLACK
6
CONTINUOUS
10
155.8
20
-119.463
11
155.806
21
-119.471
0
LINE
8
BLACK
6
CONTINUOUS
10
155.806
20
-119.471
11
155.808
21
-119.49
0
LINE
8
BLACK
6
CONTINUOUS
10
155.808
20
-119.49
11
155.813
21
-119.509
0
LINE
8
BLACK
6
CONTINUOUS
10
155.813
20
-119.509
11
155.81
21
-119.515
0
LINE
8
BLACK
6
CONTINUOUS
10
155.81
20
-119.515
11
155.811
21
-119.522
0
LINE
8
BLACK
6
CONTINUOUS
10
155.811
20
-119.522
11
155.799
21
-119.538
0
LINE
8
BLACK
6
CONTINUOUS
10
155.799
20
-119.538
11
155.791
21
-119.555
0
LINE
8
BLACK
6
CONTINUOUS
10
155.791
20
-119.555
11
155.744
21
-119.603
0
LINE
8
BLACK
6
CONTINUOUS
10
155.744
20
-119.603
11
155.735
21
-119.609
0
LINE
8
BLACK
6
CONTINUOUS
10
155.735
20
-119.609
11
155.733
21
-119.611
0
LINE
8
BLACK
6
CONTINUOUS
10
155.733
20
-119.611
11
155.73
21
-119.612
0
LINE
8
BLACK
6
CONTINUOUS
10
155.73
20
-119.612
11
155.73
21
-119.612
0
LINE
8
BLACK
6
CONTINUOUS
10
155.73
20
-119.612
11
155.728
21
-119.615
0
LINE
8
BLACK
6
CONTINUOUS
10
155.728
20
-119.615
11
155.726
21
-119.615
0
LINE
8
BLACK
6
CONTINUOUS
10
155.726
20
-119.615
11
155.722
21
-119.618
0
LINE
8
BLACK
6
CONTINUOUS
10
155.722
20
-119.618
11
155.703
21
-119.62
0
LINE
8
BLACK
6
CONTINUOUS
10
155.703
20
-119.62
11
155.684
21
-119.625
0
LINE
8
BLACK
6
CONTINUOUS
10
155.684
20
-119.625
11
155.681
21
-119.623
0
LINE
8
BLACK
6
CONTINUOUS
10
155.681
20
-119.623
11
155.677
21
-119.624
0
LINE
8
BLACK
6
CONTINUOUS
10
155.677
20
-119.624
11
155.674
21
-119.622
0
LINE
8
BLACK
6
CONTINUOUS
10
155.674
20
-119.622
11
155.671
21
-119.623
0
LINE
8
BLACK
6
CONTINUOUS
10
155.671
20
-119.623
11
155.655
21
-119.611
0
LINE
8
BLACK
6
CONTINUOUS
10
155.655
20
-119.611
11
155.637
21
-119.603
0
LINE
8
BLACK
6
CONTINUOUS
10
155.637
20
-119.603
11
155.59
21
-119.555
0
LINE
8
BLACK
6
CONTINUOUS
10
155.59
20
-119.555
11
155.584
21
-119.547
0
LINE
8
BLACK
6
CONTINUOUS
10
155.584
20
-119.547
11
155.581
21
-119.545
0
LINE
8
BLACK
6
CONTINUOUS
10
155.581
20
-119.545
11
155.581
21
-119.542
0
LINE
8
BLACK
6
CONTINUOUS
10
155.581
20
-119.542
11
155.575
21
-119.534
0
LINE
8
BLACK
6
CONTINUOUS
10
155.575
20
-119.534
11
155.573
21
-119.515
0
LINE
8
BLACK
6
CONTINUOUS
10
155.573
20
-119.515
11
155.568
21
-119.496
0
LINE
8
BLACK
6
CONTINUOUS
10
155.568
20
-119.496
11
155.571
21
-119.49
0
LINE
8
BLACK
6
CONTINUOUS
10
155.571
20
-119.49
11
155.57
21
-119.483
0
LINE
8
BLACK
6
CONTINUOUS
10
155.57
20
-119.483
11
155.582
21
-119.467
0
LINE
8
BLACK
6
CONTINUOUS
10
155.582
20
-119.467
11
155.59
21
-119.449
0
LINE
8
BLACK
6
CONTINUOUS
10
155.59
20
-119.449
11
155.637
21
-119.402
0
LINE
8
BLACK
6
CONTINUOUS
10
155.637
20
-119.402
11
155.646
21
-119.396
0
LINE
8
BLACK
6
CONTINUOUS
10
155.646
20
-119.396
11
155.647
21
-119.393
0
LINE
8
BLACK
6
CONTINUOUS
10
155.647
20
-119.393
11
155.651
21
-119.393
0
LINE
8
BLACK
6
CONTINUOUS
10
155.651
20
-119.393
11
155.651
21
-119.392
0
LINE
8
BLACK
6
CONTINUOUS
10
155.651
20
-119.392
11
155.653
21
-119.39
0
LINE
8
BLACK
6
CONTINUOUS
10
155.653
20
-119.39
11
155.655
21
-119.39
0
LINE
8
BLACK
6
CONTINUOUS
10
155.655
20
-119.39
11
155.659
21
-119.387
0
LINE
8
BLACK
6
CONTINUOUS
10
155.659
20
-119.387
11
155.678
21
-119.385
0
LINE
8
BLACK
6
CONTINUOUS
10
155.678
20
-119.385
11
155.697
21
-119.38
0
LINE
8
BLACK
6
CONTINUOUS
10
155.697
20
-119.38
11
155.7
21
-119.382
  0
ENDSEC
  0
EOF
