  0
SECTION
  2
HEADER
  9
$ANGBASE
  50
0.0
  9
$ANGDIR
  70
1
  9
$MEASUREMENT
  70
1
  0
ENDSEC
  0
SECTION
  2
TABLES
  0
TABLE
  2
LTYPE
  70
4
  0
LTYPE
  5
40F
  2
CONTINUOUS
  70
0
  3
Solid line
  72
65
  73
0
  40
0.0
  0
LTYPE
  5
410
  2
DASHDOT
 70
0
  3
Dash Dot ____ _ ____ _
 72
65
 73
4
 40
2.0
 49
1.25
 49
-0.25
 49
0.25
 49
-0.25
  0
LTYPE
  5
411
  2
DASHED
 70
0
  3
Dashed __ __ __ __ __
 72
65
 73
2
 40
0.75
 49
0.5
 49
-0.25
  0
LTYPE
  5
43B
  2
DOTTED
 70
0
  3
Dotted .  .  .  .
 72
65
 73
2
 40
0.2
 49
0.0
 49
-0.2
  0
ENDTAB
  0
TABLE
  2
STYLE
  70
4
  0
STYLE
  2
KICAD
  70
0
  40
0
  41
1
  42
1
  50
0
  71
0
  3
isocp.shx
  0
STYLE
  2
KICADB
  70
0
  40
0
  41
1
  42
1
  50
0
  71
0
  3
isocp.shx
  0
STYLE
  2
KICADI
  70
0
  40
0
  41
1
  42
1
  50
15
  71
0
  3
isocp.shx
  0
STYLE
  2
KICADBI
  70
0
  40
0
  41
1
  42
1
  50
15
  71
0
  3
isocp.shx
  0
ENDTAB
  0
TABLE
  2
LAYER
  70
1
  0
LAYER
  2
BLACK
  70
0
  62
7
  6
CONTINUOUS
  0
ENDTAB
  0
ENDSEC
  0
SECTION
  2
ENTITIES
0
LINE
8
BLACK
6
CONTINUOUS
10
125.018
20
-122
11
125.018
21
-122
0
LINE
8
BLACK
6
CONTINUOUS
10
125.018
20
-122
11
125.14
21
-122.003
0
LINE
8
BLACK
6
CONTINUOUS
10
125.14
20
-122.003
11
125.14
21
-122.003
0
LINE
8
BLACK
6
CONTINUOUS
10
125.14
20
-122.003
11
125.149
21
-122.004
0
LINE
8
BLACK
6
CONTINUOUS
10
125.149
20
-122.004
11
125.159
21
-122.004
0
LINE
8
BLACK
6
CONTINUOUS
10
125.159
20
-122.004
11
125.159
21
-122.004
0
LINE
8
BLACK
6
CONTINUOUS
10
125.159
20
-122.004
11
125.287
21
-122.014
0
LINE
8
BLACK
6
CONTINUOUS
10
125.287
20
-122.014
11
125.287
21
-122.014
0
LINE
8
BLACK
6
CONTINUOUS
10
125.287
20
-122.014
11
125.297
21
-122.015
0
LINE
8
BLACK
6
CONTINUOUS
10
125.297
20
-122.015
11
125.325
21
-122.018
0
LINE
8
BLACK
6
CONTINUOUS
10
125.325
20
-122.018
11
125.434
21
-122.032
0
LINE
8
BLACK
6
CONTINUOUS
10
125.434
20
-122.032
11
125.434
21
-122.032
0
LINE
8
BLACK
6
CONTINUOUS
10
125.434
20
-122.032
11
125.443
21
-122.033
0
LINE
8
BLACK
6
CONTINUOUS
10
125.443
20
-122.033
11
125.453
21
-122.035
0
LINE
8
BLACK
6
CONTINUOUS
10
125.453
20
-122.035
11
125.579
21
-122.057
0
LINE
8
BLACK
6
CONTINUOUS
10
125.579
20
-122.057
11
125.579
21
-122.057
0
LINE
8
BLACK
6
CONTINUOUS
10
125.579
20
-122.057
11
125.588
21
-122.058
0
LINE
8
BLACK
6
CONTINUOUS
10
125.588
20
-122.058
11
125.598
21
-122.06
0
LINE
8
BLACK
6
CONTINUOUS
10
125.598
20
-122.06
11
125.598
21
-122.06
0
LINE
8
BLACK
6
CONTINUOUS
10
125.598
20
-122.06
11
125.722
21
-122.088
0
LINE
8
BLACK
6
CONTINUOUS
10
125.722
20
-122.088
11
125.722
21
-122.088
0
LINE
8
BLACK
6
CONTINUOUS
10
125.722
20
-122.088
11
125.731
21
-122.09
0
LINE
8
BLACK
6
CONTINUOUS
10
125.731
20
-122.09
11
125.741
21
-122.093
0
LINE
8
BLACK
6
CONTINUOUS
10
125.741
20
-122.093
11
125.741
21
-122.093
0
LINE
8
BLACK
6
CONTINUOUS
10
125.741
20
-122.093
11
125.791
21
-122.107
0
LINE
8
BLACK
6
CONTINUOUS
10
125.791
20
-122.107
11
125.873
21
-122.13
0
LINE
8
BLACK
6
CONTINUOUS
10
125.873
20
-122.13
11
126.012
21
-122.176
0
LINE
8
BLACK
6
CONTINUOUS
10
126.012
20
-122.176
11
126.021
21
-122.179
0
LINE
8
BLACK
6
CONTINUOUS
10
126.021
20
-122.179
11
126.021
21
-122.179
0
LINE
8
BLACK
6
CONTINUOUS
10
126.021
20
-122.179
11
126.14
21
-122.225
0
LINE
8
BLACK
6
CONTINUOUS
10
126.14
20
-122.225
11
126.14
21
-122.225
0
LINE
8
BLACK
6
CONTINUOUS
10
126.14
20
-122.225
11
126.148
21
-122.228
0
LINE
8
BLACK
6
CONTINUOUS
10
126.148
20
-122.228
11
126.282
21
-122.288
0
LINE
8
BLACK
6
CONTINUOUS
10
126.282
20
-122.288
11
126.291
21
-122.292
0
LINE
8
BLACK
6
CONTINUOUS
10
126.291
20
-122.292
11
126.291
21
-122.292
0
LINE
8
BLACK
6
CONTINUOUS
10
126.291
20
-122.292
11
126.295
21
-122.294
0
LINE
8
BLACK
6
CONTINUOUS
10
126.295
20
-122.294
11
126.413
21
-122.353
0
LINE
8
BLACK
6
CONTINUOUS
10
126.413
20
-122.353
11
126.421
21
-122.358
0
LINE
8
BLACK
6
CONTINUOUS
10
126.421
20
-122.358
11
126.421
21
-122.358
0
LINE
8
BLACK
6
CONTINUOUS
10
126.421
20
-122.358
11
126.532
21
-122.421
0
LINE
8
BLACK
6
CONTINUOUS
10
126.532
20
-122.421
11
126.532
21
-122.421
0
LINE
8
BLACK
6
CONTINUOUS
10
126.532
20
-122.421
11
126.54
21
-122.426
0
LINE
8
BLACK
6
CONTINUOUS
10
126.54
20
-122.426
11
126.664
21
-122.504
0
LINE
8
BLACK
6
CONTINUOUS
10
126.664
20
-122.504
11
126.673
21
-122.51
0
LINE
8
BLACK
6
CONTINUOUS
10
126.673
20
-122.51
11
126.673
21
-122.51
0
LINE
8
BLACK
6
CONTINUOUS
10
126.673
20
-122.51
11
126.753
21
-122.566
0
LINE
8
BLACK
6
CONTINUOUS
10
126.753
20
-122.566
11
126.785
21
-122.589
0
LINE
8
BLACK
6
CONTINUOUS
10
126.785
20
-122.589
11
126.793
21
-122.595
0
LINE
8
BLACK
6
CONTINUOUS
10
126.793
20
-122.595
11
126.793
21
-122.595
0
LINE
8
BLACK
6
CONTINUOUS
10
126.793
20
-122.595
11
126.894
21
-122.674
0
LINE
8
BLACK
6
CONTINUOUS
10
126.894
20
-122.674
11
126.894
21
-122.674
0
LINE
8
BLACK
6
CONTINUOUS
10
126.894
20
-122.674
11
126.901
21
-122.679
0
LINE
8
BLACK
6
CONTINUOUS
10
126.901
20
-122.679
11
126.909
21
-122.686
0
LINE
8
BLACK
6
CONTINUOUS
10
126.909
20
-122.686
11
126.909
21
-122.686
0
LINE
8
BLACK
6
CONTINUOUS
10
126.909
20
-122.686
11
126.932
21
-122.706
0
LINE
8
BLACK
6
CONTINUOUS
10
126.932
20
-122.706
11
127.014
21
-122.776
0
LINE
8
BLACK
6
CONTINUOUS
10
127.014
20
-122.776
11
127.104
21
-122.862
0
LINE
8
BLACK
6
CONTINUOUS
10
127.104
20
-122.862
11
127.114
21
-122.872
0
LINE
8
BLACK
6
CONTINUOUS
10
127.114
20
-122.872
11
127.121
21
-122.879
0
LINE
8
BLACK
6
CONTINUOUS
10
127.121
20
-122.879
11
127.128
21
-122.886
0
LINE
8
BLACK
6
CONTINUOUS
10
127.128
20
-122.886
11
127.218
21
-122.98
0
LINE
8
BLACK
6
CONTINUOUS
10
127.218
20
-122.98
11
127.218
21
-122.98
0
LINE
8
BLACK
6
CONTINUOUS
10
127.218
20
-122.98
11
127.224
21
-122.986
0
LINE
8
BLACK
6
CONTINUOUS
10
127.224
20
-122.986
11
127.321
21
-123.099
0
LINE
8
BLACK
6
CONTINUOUS
10
127.321
20
-123.099
11
127.411
21
-123.215
0
LINE
8
BLACK
6
CONTINUOUS
10
127.411
20
-123.215
11
127.496
21
-123.336
0
LINE
8
BLACK
6
CONTINUOUS
10
127.496
20
-123.336
11
127.574
21
-123.46
0
LINE
8
BLACK
6
CONTINUOUS
10
127.574
20
-123.46
11
127.579
21
-123.468
0
LINE
8
BLACK
6
CONTINUOUS
10
127.579
20
-123.468
11
127.579
21
-123.468
0
LINE
8
BLACK
6
CONTINUOUS
10
127.579
20
-123.468
11
127.601
21
-123.508
0
LINE
8
BLACK
6
CONTINUOUS
10
127.601
20
-123.508
11
127.647
21
-123.587
0
LINE
8
BLACK
6
CONTINUOUS
10
127.647
20
-123.587
11
127.712
21
-123.718
0
LINE
8
BLACK
6
CONTINUOUS
10
127.712
20
-123.718
11
127.772
21
-123.852
0
LINE
8
BLACK
6
CONTINUOUS
10
127.772
20
-123.852
11
127.824
21
-123.988
0
LINE
8
BLACK
6
CONTINUOUS
10
127.824
20
-123.988
11
127.845
21
-124.051
0
LINE
8
BLACK
6
CONTINUOUS
10
127.845
20
-124.051
11
127.864
21
-124.108
0
LINE
8
BLACK
6
CONTINUOUS
10
127.864
20
-124.108
11
127.87
21
-124.127
0
LINE
8
BLACK
6
CONTINUOUS
10
127.87
20
-124.127
11
127.91
21
-124.269
0
LINE
8
BLACK
6
CONTINUOUS
10
127.91
20
-124.269
11
127.942
21
-124.412
0
LINE
8
BLACK
6
CONTINUOUS
10
127.942
20
-124.412
11
127.967
21
-124.557
0
LINE
8
BLACK
6
CONTINUOUS
10
127.967
20
-124.557
11
127.985
21
-124.703
0
LINE
8
BLACK
6
CONTINUOUS
10
127.985
20
-124.703
11
127.996
21
-124.851
0
LINE
8
BLACK
6
CONTINUOUS
10
127.996
20
-124.851
11
128
21
-125
0
LINE
8
BLACK
6
CONTINUOUS
10
128
20
-125
11
127.982
21
-125
0
LINE
8
BLACK
6
CONTINUOUS
10
127.982
20
-125
11
126.509
21
-125
0
LINE
8
BLACK
6
CONTINUOUS
10
126.509
20
-125
11
126.5
21
-125
0
LINE
8
BLACK
6
CONTINUOUS
10
126.5
20
-125
11
126.5
21
-124.982
0
LINE
8
BLACK
6
CONTINUOUS
10
126.5
20
-124.982
11
126.5
21
-124.982
0
LINE
8
BLACK
6
CONTINUOUS
10
126.5
20
-124.982
11
126.498
21
-124.927
0
LINE
8
BLACK
6
CONTINUOUS
10
126.498
20
-124.927
11
126.498
21
-124.924
0
LINE
8
BLACK
6
CONTINUOUS
10
126.498
20
-124.924
11
126.493
21
-124.853
0
LINE
8
BLACK
6
CONTINUOUS
10
126.493
20
-124.853
11
126.492
21
-124.85
0
LINE
8
BLACK
6
CONTINUOUS
10
126.492
20
-124.85
11
126.484
21
-124.78
0
LINE
8
BLACK
6
CONTINUOUS
10
126.484
20
-124.78
11
126.483
21
-124.777
0
LINE
8
BLACK
6
CONTINUOUS
10
126.483
20
-124.777
11
126.471
21
-124.708
0
LINE
8
BLACK
6
CONTINUOUS
10
126.471
20
-124.708
11
126.471
21
-124.704
0
LINE
8
BLACK
6
CONTINUOUS
10
126.471
20
-124.704
11
126.455
21
-124.636
0
LINE
8
BLACK
6
CONTINUOUS
10
126.455
20
-124.636
11
126.454
21
-124.633
0
LINE
8
BLACK
6
CONTINUOUS
10
126.454
20
-124.633
11
126.436
21
-124.565
0
LINE
8
BLACK
6
CONTINUOUS
10
126.436
20
-124.565
11
126.435
21
-124.562
0
LINE
8
BLACK
6
CONTINUOUS
10
126.435
20
-124.562
11
126.413
21
-124.496
0
LINE
8
BLACK
6
CONTINUOUS
10
126.413
20
-124.496
11
126.412
21
-124.493
0
LINE
8
BLACK
6
CONTINUOUS
10
126.412
20
-124.493
11
126.386
21
-124.427
0
LINE
8
BLACK
6
CONTINUOUS
10
126.386
20
-124.427
11
126.385
21
-124.425
0
LINE
8
BLACK
6
CONTINUOUS
10
126.385
20
-124.425
11
126.357
21
-124.36
0
LINE
8
BLACK
6
CONTINUOUS
10
126.357
20
-124.36
11
126.355
21
-124.358
0
LINE
8
BLACK
6
CONTINUOUS
10
126.355
20
-124.358
11
126.324
21
-124.295
0
LINE
8
BLACK
6
CONTINUOUS
10
126.324
20
-124.295
11
126.323
21
-124.292
0
LINE
8
BLACK
6
CONTINUOUS
10
126.323
20
-124.292
11
126.288
21
-124.231
0
LINE
8
BLACK
6
CONTINUOUS
10
126.288
20
-124.231
11
126.286
21
-124.229
0
LINE
8
BLACK
6
CONTINUOUS
10
126.286
20
-124.229
11
126.249
21
-124.169
0
LINE
8
BLACK
6
CONTINUOUS
10
126.249
20
-124.169
11
126.247
21
-124.167
0
LINE
8
BLACK
6
CONTINUOUS
10
126.247
20
-124.167
11
126.207
21
-124.109
0
LINE
8
BLACK
6
CONTINUOUS
10
126.207
20
-124.109
11
126.205
21
-124.106
0
LINE
8
BLACK
6
CONTINUOUS
10
126.205
20
-124.106
11
126.161
21
-124.051
0
LINE
8
BLACK
6
CONTINUOUS
10
126.161
20
-124.051
11
126.159
21
-124.048
0
LINE
8
BLACK
6
CONTINUOUS
10
126.159
20
-124.048
11
126.113
21
-123.994
0
LINE
8
BLACK
6
CONTINUOUS
10
126.113
20
-123.994
11
126.111
21
-123.992
0
LINE
8
BLACK
6
CONTINUOUS
10
126.111
20
-123.992
11
126.062
21
-123.94
0
LINE
8
BLACK
6
CONTINUOUS
10
126.062
20
-123.94
11
126.06
21
-123.938
0
LINE
8
BLACK
6
CONTINUOUS
10
126.06
20
-123.938
11
126.028
21
-123.908
0
LINE
8
BLACK
6
CONTINUOUS
10
126.028
20
-123.908
11
126.008
21
-123.889
0
LINE
8
BLACK
6
CONTINUOUS
10
126.008
20
-123.889
11
126.006
21
-123.887
0
LINE
8
BLACK
6
CONTINUOUS
10
126.006
20
-123.887
11
125.972
21
-123.858
0
LINE
8
BLACK
6
CONTINUOUS
10
125.972
20
-123.858
11
125.952
21
-123.841
0
LINE
8
BLACK
6
CONTINUOUS
10
125.952
20
-123.841
11
125.949
21
-123.839
0
LINE
8
BLACK
6
CONTINUOUS
10
125.949
20
-123.839
11
125.921
21
-123.817
0
LINE
8
BLACK
6
CONTINUOUS
10
125.921
20
-123.817
11
125.894
21
-123.795
0
LINE
8
BLACK
6
CONTINUOUS
10
125.894
20
-123.795
11
125.891
21
-123.793
0
LINE
8
BLACK
6
CONTINUOUS
10
125.891
20
-123.793
11
125.833
21
-123.753
0
LINE
8
BLACK
6
CONTINUOUS
10
125.833
20
-123.753
11
125.831
21
-123.751
0
LINE
8
BLACK
6
CONTINUOUS
10
125.831
20
-123.751
11
125.771
21
-123.714
0
LINE
8
BLACK
6
CONTINUOUS
10
125.771
20
-123.714
11
125.769
21
-123.712
0
LINE
8
BLACK
6
CONTINUOUS
10
125.769
20
-123.712
11
125.708
21
-123.677
0
LINE
8
BLACK
6
CONTINUOUS
10
125.708
20
-123.677
11
125.705
21
-123.676
0
LINE
8
BLACK
6
CONTINUOUS
10
125.705
20
-123.676
11
125.642
21
-123.645
0
LINE
8
BLACK
6
CONTINUOUS
10
125.642
20
-123.645
11
125.64
21
-123.643
0
LINE
8
BLACK
6
CONTINUOUS
10
125.64
20
-123.643
11
125.575
21
-123.615
0
LINE
8
BLACK
6
CONTINUOUS
10
125.575
20
-123.615
11
125.573
21
-123.614
0
LINE
8
BLACK
6
CONTINUOUS
10
125.573
20
-123.614
11
125.51
21
-123.589
0
LINE
8
BLACK
6
CONTINUOUS
10
125.51
20
-123.589
11
125.507
21
-123.588
0
LINE
8
BLACK
6
CONTINUOUS
10
125.507
20
-123.588
11
125.504
21
-123.587
0
LINE
8
BLACK
6
CONTINUOUS
10
125.504
20
-123.587
11
125.472
21
-123.577
0
LINE
8
BLACK
6
CONTINUOUS
10
125.472
20
-123.577
11
125.438
21
-123.565
0
LINE
8
BLACK
6
CONTINUOUS
10
125.438
20
-123.565
11
125.435
21
-123.564
0
LINE
8
BLACK
6
CONTINUOUS
10
125.435
20
-123.564
11
125.367
21
-123.546
0
LINE
8
BLACK
6
CONTINUOUS
10
125.367
20
-123.546
11
125.364
21
-123.545
0
LINE
8
BLACK
6
CONTINUOUS
10
125.364
20
-123.545
11
125.296
21
-123.529
0
LINE
8
BLACK
6
CONTINUOUS
10
125.296
20
-123.529
11
125.292
21
-123.529
0
LINE
8
BLACK
6
CONTINUOUS
10
125.292
20
-123.529
11
125.223
21
-123.517
0
LINE
8
BLACK
6
CONTINUOUS
10
125.223
20
-123.517
11
125.22
21
-123.516
0
LINE
8
BLACK
6
CONTINUOUS
10
125.22
20
-123.516
11
125.15
21
-123.508
0
LINE
8
BLACK
6
CONTINUOUS
10
125.15
20
-123.508
11
125.147
21
-123.507
0
LINE
8
BLACK
6
CONTINUOUS
10
125.147
20
-123.507
11
125.076
21
-123.502
0
LINE
8
BLACK
6
CONTINUOUS
10
125.076
20
-123.502
11
125.073
21
-123.502
0
LINE
8
BLACK
6
CONTINUOUS
10
125.073
20
-123.502
11
125.071
21
-123.502
0
LINE
8
BLACK
6
CONTINUOUS
10
125.071
20
-123.502
11
125
21
-123.5
0
LINE
8
BLACK
6
CONTINUOUS
10
125
20
-123.5
11
125
21
-122
0
LINE
8
BLACK
6
CONTINUOUS
10
125
20
-122
11
125.018
21
-122
0
LINE
8
BLACK
6
CONTINUOUS
10
175
20
-123.5
11
174.927
21
-123.502
0
LINE
8
BLACK
6
CONTINUOUS
10
174.927
20
-123.502
11
174.927
21
-123.502
0
LINE
8
BLACK
6
CONTINUOUS
10
174.927
20
-123.502
11
174.924
21
-123.502
0
LINE
8
BLACK
6
CONTINUOUS
10
174.924
20
-123.502
11
174.853
21
-123.507
0
LINE
8
BLACK
6
CONTINUOUS
10
174.853
20
-123.507
11
174.85
21
-123.508
0
LINE
8
BLACK
6
CONTINUOUS
10
174.85
20
-123.508
11
174.78
21
-123.516
0
LINE
8
BLACK
6
CONTINUOUS
10
174.78
20
-123.516
11
174.777
21
-123.517
0
LINE
8
BLACK
6
CONTINUOUS
10
174.777
20
-123.517
11
174.708
21
-123.529
0
LINE
8
BLACK
6
CONTINUOUS
10
174.708
20
-123.529
11
174.704
21
-123.529
0
LINE
8
BLACK
6
CONTINUOUS
10
174.704
20
-123.529
11
174.636
21
-123.545
0
LINE
8
BLACK
6
CONTINUOUS
10
174.636
20
-123.545
11
174.633
21
-123.546
0
LINE
8
BLACK
6
CONTINUOUS
10
174.633
20
-123.546
11
174.565
21
-123.564
0
LINE
8
BLACK
6
CONTINUOUS
10
174.565
20
-123.564
11
174.562
21
-123.565
0
LINE
8
BLACK
6
CONTINUOUS
10
174.562
20
-123.565
11
174.502
21
-123.585
0
LINE
8
BLACK
6
CONTINUOUS
10
174.502
20
-123.585
11
174.496
21
-123.587
0
LINE
8
BLACK
6
CONTINUOUS
10
174.496
20
-123.587
11
174.493
21
-123.588
0
LINE
8
BLACK
6
CONTINUOUS
10
174.493
20
-123.588
11
174.427
21
-123.614
0
LINE
8
BLACK
6
CONTINUOUS
10
174.427
20
-123.614
11
174.425
21
-123.615
0
LINE
8
BLACK
6
CONTINUOUS
10
174.425
20
-123.615
11
174.36
21
-123.643
0
LINE
8
BLACK
6
CONTINUOUS
10
174.36
20
-123.643
11
174.36
21
-123.643
0
LINE
8
BLACK
6
CONTINUOUS
10
174.36
20
-123.643
11
174.358
21
-123.645
0
LINE
8
BLACK
6
CONTINUOUS
10
174.358
20
-123.645
11
174.295
21
-123.676
0
LINE
8
BLACK
6
CONTINUOUS
10
174.295
20
-123.676
11
174.292
21
-123.677
0
LINE
8
BLACK
6
CONTINUOUS
10
174.292
20
-123.677
11
174.231
21
-123.712
0
LINE
8
BLACK
6
CONTINUOUS
10
174.231
20
-123.712
11
174.229
21
-123.714
0
LINE
8
BLACK
6
CONTINUOUS
10
174.229
20
-123.714
11
174.169
21
-123.751
0
LINE
8
BLACK
6
CONTINUOUS
10
174.169
20
-123.751
11
174.167
21
-123.753
0
LINE
8
BLACK
6
CONTINUOUS
10
174.167
20
-123.753
11
174.128
21
-123.78
0
LINE
8
BLACK
6
CONTINUOUS
10
174.128
20
-123.78
11
174.109
21
-123.793
0
LINE
8
BLACK
6
CONTINUOUS
10
174.109
20
-123.793
11
174.106
21
-123.795
0
LINE
8
BLACK
6
CONTINUOUS
10
174.106
20
-123.795
11
174.068
21
-123.825
0
LINE
8
BLACK
6
CONTINUOUS
10
174.068
20
-123.825
11
174.051
21
-123.839
0
LINE
8
BLACK
6
CONTINUOUS
10
174.051
20
-123.839
11
174.048
21
-123.841
0
LINE
8
BLACK
6
CONTINUOUS
10
174.048
20
-123.841
11
173.994
21
-123.887
0
LINE
8
BLACK
6
CONTINUOUS
10
173.994
20
-123.887
11
173.992
21
-123.889
0
LINE
8
BLACK
6
CONTINUOUS
10
173.992
20
-123.889
11
173.94
21
-123.938
0
LINE
8
BLACK
6
CONTINUOUS
10
173.94
20
-123.938
11
173.938
21
-123.94
0
LINE
8
BLACK
6
CONTINUOUS
10
173.938
20
-123.94
11
173.889
21
-123.992
0
LINE
8
BLACK
6
CONTINUOUS
10
173.889
20
-123.992
11
173.887
21
-123.994
0
LINE
8
BLACK
6
CONTINUOUS
10
173.887
20
-123.994
11
173.841
21
-124.048
0
LINE
8
BLACK
6
CONTINUOUS
10
173.841
20
-124.048
11
173.839
21
-124.051
0
LINE
8
BLACK
6
CONTINUOUS
10
173.839
20
-124.051
11
173.796
21
-124.106
0
LINE
8
BLACK
6
CONTINUOUS
10
173.796
20
-124.106
11
173.795
21
-124.106
0
LINE
8
BLACK
6
CONTINUOUS
10
173.795
20
-124.106
11
173.793
21
-124.109
0
LINE
8
BLACK
6
CONTINUOUS
10
173.793
20
-124.109
11
173.753
21
-124.167
0
LINE
8
BLACK
6
CONTINUOUS
10
173.753
20
-124.167
11
173.753
21
-124.167
0
LINE
8
BLACK
6
CONTINUOUS
10
173.753
20
-124.167
11
173.751
21
-124.169
0
LINE
8
BLACK
6
CONTINUOUS
10
173.751
20
-124.169
11
173.714
21
-124.229
0
LINE
8
BLACK
6
CONTINUOUS
10
173.714
20
-124.229
11
173.714
21
-124.229
0
LINE
8
BLACK
6
CONTINUOUS
10
173.714
20
-124.229
11
173.712
21
-124.231
0
LINE
8
BLACK
6
CONTINUOUS
10
173.712
20
-124.231
11
173.677
21
-124.292
0
LINE
8
BLACK
6
CONTINUOUS
10
173.677
20
-124.292
11
173.676
21
-124.295
0
LINE
8
BLACK
6
CONTINUOUS
10
173.676
20
-124.295
11
173.644
21
-124.358
0
LINE
8
BLACK
6
CONTINUOUS
10
173.644
20
-124.358
11
173.643
21
-124.36
0
LINE
8
BLACK
6
CONTINUOUS
10
173.643
20
-124.36
11
173.615
21
-124.425
0
LINE
8
BLACK
6
CONTINUOUS
10
173.615
20
-124.425
11
173.614
21
-124.427
0
LINE
8
BLACK
6
CONTINUOUS
10
173.614
20
-124.427
11
173.588
21
-124.493
0
LINE
8
BLACK
6
CONTINUOUS
10
173.588
20
-124.493
11
173.587
21
-124.496
0
LINE
8
BLACK
6
CONTINUOUS
10
173.587
20
-124.496
11
173.565
21
-124.562
0
LINE
8
BLACK
6
CONTINUOUS
10
173.565
20
-124.562
11
173.564
21
-124.565
0
LINE
8
BLACK
6
CONTINUOUS
10
173.564
20
-124.565
11
173.546
21
-124.633
0
LINE
8
BLACK
6
CONTINUOUS
10
173.546
20
-124.633
11
173.545
21
-124.636
0
LINE
8
BLACK
6
CONTINUOUS
10
173.545
20
-124.636
11
173.53
21
-124.702
0
LINE
8
BLACK
6
CONTINUOUS
10
173.53
20
-124.702
11
173.529
21
-124.704
0
LINE
8
BLACK
6
CONTINUOUS
10
173.529
20
-124.704
11
173.529
21
-124.708
0
LINE
8
BLACK
6
CONTINUOUS
10
173.529
20
-124.708
11
173.517
21
-124.777
0
LINE
8
BLACK
6
CONTINUOUS
10
173.517
20
-124.777
11
173.516
21
-124.78
0
LINE
8
BLACK
6
CONTINUOUS
10
173.516
20
-124.78
11
173.508
21
-124.85
0
LINE
8
BLACK
6
CONTINUOUS
10
173.508
20
-124.85
11
173.508
21
-124.85
0
LINE
8
BLACK
6
CONTINUOUS
10
173.508
20
-124.85
11
173.507
21
-124.853
0
LINE
8
BLACK
6
CONTINUOUS
10
173.507
20
-124.853
11
173.502
21
-124.924
0
LINE
8
BLACK
6
CONTINUOUS
10
173.502
20
-124.924
11
173.502
21
-124.924
0
LINE
8
BLACK
6
CONTINUOUS
10
173.502
20
-124.924
11
173.502
21
-124.927
0
LINE
8
BLACK
6
CONTINUOUS
10
173.502
20
-124.927
11
173.5
21
-125
0
LINE
8
BLACK
6
CONTINUOUS
10
173.5
20
-125
11
173.482
21
-125
0
LINE
8
BLACK
6
CONTINUOUS
10
173.482
20
-125
11
172.009
21
-125
0
LINE
8
BLACK
6
CONTINUOUS
10
172.009
20
-125
11
172
21
-125
0
LINE
8
BLACK
6
CONTINUOUS
10
172
20
-125
11
172.002
21
-124.927
0
LINE
8
BLACK
6
CONTINUOUS
10
172.002
20
-124.927
11
172.003
21
-124.86
0
LINE
8
BLACK
6
CONTINUOUS
10
172.003
20
-124.86
11
172.003
21
-124.86
0
LINE
8
BLACK
6
CONTINUOUS
10
172.003
20
-124.86
11
172.004
21
-124.851
0
LINE
8
BLACK
6
CONTINUOUS
10
172.004
20
-124.851
11
172.009
21
-124.78
0
LINE
8
BLACK
6
CONTINUOUS
10
172.009
20
-124.78
11
172.014
21
-124.713
0
LINE
8
BLACK
6
CONTINUOUS
10
172.014
20
-124.713
11
172.014
21
-124.713
0
LINE
8
BLACK
6
CONTINUOUS
10
172.014
20
-124.713
11
172.015
21
-124.703
0
LINE
8
BLACK
6
CONTINUOUS
10
172.015
20
-124.703
11
172.016
21
-124.694
0
LINE
8
BLACK
6
CONTINUOUS
10
172.016
20
-124.694
11
172.016
21
-124.694
0
LINE
8
BLACK
6
CONTINUOUS
10
172.016
20
-124.694
11
172.032
21
-124.566
0
LINE
8
BLACK
6
CONTINUOUS
10
172.032
20
-124.566
11
172.032
21
-124.566
0
LINE
8
BLACK
6
CONTINUOUS
10
172.032
20
-124.566
11
172.033
21
-124.557
0
LINE
8
BLACK
6
CONTINUOUS
10
172.033
20
-124.557
11
172.035
21
-124.547
0
LINE
8
BLACK
6
CONTINUOUS
10
172.035
20
-124.547
11
172.035
21
-124.547
0
LINE
8
BLACK
6
CONTINUOUS
10
172.035
20
-124.547
11
172.057
21
-124.421
0
LINE
8
BLACK
6
CONTINUOUS
10
172.057
20
-124.421
11
172.057
21
-124.421
0
LINE
8
BLACK
6
CONTINUOUS
10
172.057
20
-124.421
11
172.058
21
-124.412
0
LINE
8
BLACK
6
CONTINUOUS
10
172.058
20
-124.412
11
172.07
21
-124.358
0
LINE
8
BLACK
6
CONTINUOUS
10
172.07
20
-124.358
11
172.088
21
-124.278
0
LINE
8
BLACK
6
CONTINUOUS
10
172.088
20
-124.278
11
172.088
21
-124.278
0
LINE
8
BLACK
6
CONTINUOUS
10
172.088
20
-124.278
11
172.09
21
-124.269
0
LINE
8
BLACK
6
CONTINUOUS
10
172.09
20
-124.269
11
172.093
21
-124.259
0
LINE
8
BLACK
6
CONTINUOUS
10
172.093
20
-124.259
11
172.093
21
-124.259
0
LINE
8
BLACK
6
CONTINUOUS
10
172.093
20
-124.259
11
172.127
21
-124.136
0
LINE
8
BLACK
6
CONTINUOUS
10
172.127
20
-124.136
11
172.127
21
-124.136
0
LINE
8
BLACK
6
CONTINUOUS
10
172.127
20
-124.136
11
172.13
21
-124.127
0
LINE
8
BLACK
6
CONTINUOUS
10
172.13
20
-124.127
11
172.133
21
-124.118
0
LINE
8
BLACK
6
CONTINUOUS
10
172.133
20
-124.118
11
172.133
21
-124.118
0
LINE
8
BLACK
6
CONTINUOUS
10
172.133
20
-124.118
11
172.173
21
-123.997
0
LINE
8
BLACK
6
CONTINUOUS
10
172.173
20
-123.997
11
172.173
21
-123.997
0
LINE
8
BLACK
6
CONTINUOUS
10
172.173
20
-123.997
11
172.176
21
-123.988
0
LINE
8
BLACK
6
CONTINUOUS
10
172.176
20
-123.988
11
172.194
21
-123.94
0
LINE
8
BLACK
6
CONTINUOUS
10
172.194
20
-123.94
11
172.225
21
-123.86
0
LINE
8
BLACK
6
CONTINUOUS
10
172.225
20
-123.86
11
172.225
21
-123.86
0
LINE
8
BLACK
6
CONTINUOUS
10
172.225
20
-123.86
11
172.228
21
-123.852
0
LINE
8
BLACK
6
CONTINUOUS
10
172.228
20
-123.852
11
172.232
21
-123.843
0
LINE
8
BLACK
6
CONTINUOUS
10
172.232
20
-123.843
11
172.232
21
-123.843
0
LINE
8
BLACK
6
CONTINUOUS
10
172.232
20
-123.843
11
172.284
21
-123.726
0
LINE
8
BLACK
6
CONTINUOUS
10
172.284
20
-123.726
11
172.284
21
-123.726
0
LINE
8
BLACK
6
CONTINUOUS
10
172.284
20
-123.726
11
172.288
21
-123.718
0
LINE
8
BLACK
6
CONTINUOUS
10
172.288
20
-123.718
11
172.308
21
-123.677
0
LINE
8
BLACK
6
CONTINUOUS
10
172.308
20
-123.677
11
172.349
21
-123.595
0
LINE
8
BLACK
6
CONTINUOUS
10
172.349
20
-123.595
11
172.349
21
-123.595
0
LINE
8
BLACK
6
CONTINUOUS
10
172.349
20
-123.595
11
172.353
21
-123.587
0
LINE
8
BLACK
6
CONTINUOUS
10
172.353
20
-123.587
11
172.358
21
-123.579
0
LINE
8
BLACK
6
CONTINUOUS
10
172.358
20
-123.579
11
172.358
21
-123.579
0
LINE
8
BLACK
6
CONTINUOUS
10
172.358
20
-123.579
11
172.421
21
-123.468
0
LINE
8
BLACK
6
CONTINUOUS
10
172.421
20
-123.468
11
172.421
21
-123.468
0
LINE
8
BLACK
6
CONTINUOUS
10
172.421
20
-123.468
11
172.426
21
-123.46
0
LINE
8
BLACK
6
CONTINUOUS
10
172.426
20
-123.46
11
172.431
21
-123.451
0
LINE
8
BLACK
6
CONTINUOUS
10
172.431
20
-123.451
11
172.431
21
-123.451
0
LINE
8
BLACK
6
CONTINUOUS
10
172.431
20
-123.451
11
172.499
21
-123.343
0
LINE
8
BLACK
6
CONTINUOUS
10
172.499
20
-123.343
11
172.499
21
-123.343
0
LINE
8
BLACK
6
CONTINUOUS
10
172.499
20
-123.343
11
172.504
21
-123.336
0
LINE
8
BLACK
6
CONTINUOUS
10
172.504
20
-123.336
11
172.51
21
-123.327
0
LINE
8
BLACK
6
CONTINUOUS
10
172.51
20
-123.327
11
172.51
21
-123.327
0
LINE
8
BLACK
6
CONTINUOUS
10
172.51
20
-123.327
11
172.583
21
-123.223
0
LINE
8
BLACK
6
CONTINUOUS
10
172.583
20
-123.223
11
172.583
21
-123.223
0
LINE
8
BLACK
6
CONTINUOUS
10
172.583
20
-123.223
11
172.589
21
-123.215
0
LINE
8
BLACK
6
CONTINUOUS
10
172.589
20
-123.215
11
172.595
21
-123.207
0
LINE
8
BLACK
6
CONTINUOUS
10
172.595
20
-123.207
11
172.595
21
-123.207
0
LINE
8
BLACK
6
CONTINUOUS
10
172.595
20
-123.207
11
172.674
21
-123.106
0
LINE
8
BLACK
6
CONTINUOUS
10
172.674
20
-123.106
11
172.674
21
-123.106
0
LINE
8
BLACK
6
CONTINUOUS
10
172.674
20
-123.106
11
172.679
21
-123.099
0
LINE
8
BLACK
6
CONTINUOUS
10
172.679
20
-123.099
11
172.686
21
-123.091
0
LINE
8
BLACK
6
CONTINUOUS
10
172.686
20
-123.091
11
172.686
21
-123.091
0
LINE
8
BLACK
6
CONTINUOUS
10
172.686
20
-123.091
11
172.77
21
-122.993
0
LINE
8
BLACK
6
CONTINUOUS
10
172.77
20
-122.993
11
172.77
21
-122.993
0
LINE
8
BLACK
6
CONTINUOUS
10
172.77
20
-122.993
11
172.776
21
-122.986
0
LINE
8
BLACK
6
CONTINUOUS
10
172.776
20
-122.986
11
172.783
21
-122.979
0
LINE
8
BLACK
6
CONTINUOUS
10
172.783
20
-122.979
11
172.783
21
-122.979
0
LINE
8
BLACK
6
CONTINUOUS
10
172.783
20
-122.979
11
172.872
21
-122.885
0
LINE
8
BLACK
6
CONTINUOUS
10
172.872
20
-122.885
11
172.872
21
-122.885
0
LINE
8
BLACK
6
CONTINUOUS
10
172.872
20
-122.885
11
172.879
21
-122.879
0
LINE
8
BLACK
6
CONTINUOUS
10
172.879
20
-122.879
11
172.886
21
-122.872
0
LINE
8
BLACK
6
CONTINUOUS
10
172.886
20
-122.872
11
172.886
21
-122.872
0
LINE
8
BLACK
6
CONTINUOUS
10
172.886
20
-122.872
11
172.98
21
-122.782
0
LINE
8
BLACK
6
CONTINUOUS
10
172.98
20
-122.782
11
172.98
21
-122.782
0
LINE
8
BLACK
6
CONTINUOUS
10
172.98
20
-122.782
11
172.986
21
-122.776
0
LINE
8
BLACK
6
CONTINUOUS
10
172.986
20
-122.776
11
172.994
21
-122.77
0
LINE
8
BLACK
6
CONTINUOUS
10
172.994
20
-122.77
11
172.994
21
-122.77
0
LINE
8
BLACK
6
CONTINUOUS
10
172.994
20
-122.77
11
173.092
21
-122.685
0
LINE
8
BLACK
6
CONTINUOUS
10
173.092
20
-122.685
11
173.092
21
-122.685
0
LINE
8
BLACK
6
CONTINUOUS
10
173.092
20
-122.685
11
173.099
21
-122.679
0
LINE
8
BLACK
6
CONTINUOUS
10
173.099
20
-122.679
11
173.107
21
-122.673
0
LINE
8
BLACK
6
CONTINUOUS
10
173.107
20
-122.673
11
173.107
21
-122.673
0
LINE
8
BLACK
6
CONTINUOUS
10
173.107
20
-122.673
11
173.208
21
-122.594
0
LINE
8
BLACK
6
CONTINUOUS
10
173.208
20
-122.594
11
173.208
21
-122.594
0
LINE
8
BLACK
6
CONTINUOUS
10
173.208
20
-122.594
11
173.215
21
-122.589
0
LINE
8
BLACK
6
CONTINUOUS
10
173.215
20
-122.589
11
173.247
21
-122.566
0
LINE
8
BLACK
6
CONTINUOUS
10
173.247
20
-122.566
11
173.328
21
-122.509
0
LINE
8
BLACK
6
CONTINUOUS
10
173.328
20
-122.509
11
173.328
21
-122.509
0
LINE
8
BLACK
6
CONTINUOUS
10
173.328
20
-122.509
11
173.336
21
-122.504
0
LINE
8
BLACK
6
CONTINUOUS
10
173.336
20
-122.504
11
173.344
21
-122.499
0
LINE
8
BLACK
6
CONTINUOUS
10
173.344
20
-122.499
11
173.344
21
-122.499
0
LINE
8
BLACK
6
CONTINUOUS
10
173.344
20
-122.499
11
173.452
21
-122.43
0
LINE
8
BLACK
6
CONTINUOUS
10
173.452
20
-122.43
11
173.452
21
-122.43
0
LINE
8
BLACK
6
CONTINUOUS
10
173.452
20
-122.43
11
173.46
21
-122.426
0
LINE
8
BLACK
6
CONTINUOUS
10
173.46
20
-122.426
11
173.468
21
-122.421
0
LINE
8
BLACK
6
CONTINUOUS
10
173.468
20
-122.421
11
173.468
21
-122.421
0
LINE
8
BLACK
6
CONTINUOUS
10
173.468
20
-122.421
11
173.579
21
-122.358
0
LINE
8
BLACK
6
CONTINUOUS
10
173.579
20
-122.358
11
173.579
21
-122.358
0
LINE
8
BLACK
6
CONTINUOUS
10
173.579
20
-122.358
11
173.587
21
-122.353
0
LINE
8
BLACK
6
CONTINUOUS
10
173.587
20
-122.353
11
173.596
21
-122.349
0
LINE
8
BLACK
6
CONTINUOUS
10
173.596
20
-122.349
11
173.596
21
-122.349
0
LINE
8
BLACK
6
CONTINUOUS
10
173.596
20
-122.349
11
173.71
21
-122.292
0
LINE
8
BLACK
6
CONTINUOUS
10
173.71
20
-122.292
11
173.71
21
-122.292
0
LINE
8
BLACK
6
CONTINUOUS
10
173.71
20
-122.292
11
173.718
21
-122.288
0
LINE
8
BLACK
6
CONTINUOUS
10
173.718
20
-122.288
11
173.727
21
-122.284
0
LINE
8
BLACK
6
CONTINUOUS
10
173.727
20
-122.284
11
173.727
21
-122.284
0
LINE
8
BLACK
6
CONTINUOUS
10
173.727
20
-122.284
11
173.844
21
-122.232
0
LINE
8
BLACK
6
CONTINUOUS
10
173.844
20
-122.232
11
173.844
21
-122.232
0
LINE
8
BLACK
6
CONTINUOUS
10
173.844
20
-122.232
11
173.852
21
-122.228
0
LINE
8
BLACK
6
CONTINUOUS
10
173.852
20
-122.228
11
173.861
21
-122.225
0
LINE
8
BLACK
6
CONTINUOUS
10
173.861
20
-122.225
11
173.861
21
-122.225
0
LINE
8
BLACK
6
CONTINUOUS
10
173.861
20
-122.225
11
173.98
21
-122.179
0
LINE
8
BLACK
6
CONTINUOUS
10
173.98
20
-122.179
11
173.98
21
-122.179
0
LINE
8
BLACK
6
CONTINUOUS
10
173.98
20
-122.179
11
173.988
21
-122.176
0
LINE
8
BLACK
6
CONTINUOUS
10
173.988
20
-122.176
11
173.998
21
-122.173
0
LINE
8
BLACK
6
CONTINUOUS
10
173.998
20
-122.173
11
173.998
21
-122.173
0
LINE
8
BLACK
6
CONTINUOUS
10
173.998
20
-122.173
11
174.119
21
-122.133
0
LINE
8
BLACK
6
CONTINUOUS
10
174.119
20
-122.133
11
174.119
21
-122.133
0
LINE
8
BLACK
6
CONTINUOUS
10
174.119
20
-122.133
11
174.127
21
-122.13
0
LINE
8
BLACK
6
CONTINUOUS
10
174.127
20
-122.13
11
174.137
21
-122.127
0
LINE
8
BLACK
6
CONTINUOUS
10
174.137
20
-122.127
11
174.137
21
-122.127
0
LINE
8
BLACK
6
CONTINUOUS
10
174.137
20
-122.127
11
174.26
21
-122.093
0
LINE
8
BLACK
6
CONTINUOUS
10
174.26
20
-122.093
11
174.26
21
-122.093
0
LINE
8
BLACK
6
CONTINUOUS
10
174.26
20
-122.093
11
174.269
21
-122.09
0
LINE
8
BLACK
6
CONTINUOUS
10
174.269
20
-122.09
11
174.278
21
-122.088
0
LINE
8
BLACK
6
CONTINUOUS
10
174.278
20
-122.088
11
174.278
21
-122.088
0
LINE
8
BLACK
6
CONTINUOUS
10
174.278
20
-122.088
11
174.382
21
-122.065
0
LINE
8
BLACK
6
CONTINUOUS
10
174.382
20
-122.065
11
174.412
21
-122.058
0
LINE
8
BLACK
6
CONTINUOUS
10
174.412
20
-122.058
11
174.422
21
-122.056
0
LINE
8
BLACK
6
CONTINUOUS
10
174.422
20
-122.056
11
174.422
21
-122.056
0
LINE
8
BLACK
6
CONTINUOUS
10
174.422
20
-122.056
11
174.548
21
-122.034
0
LINE
8
BLACK
6
CONTINUOUS
10
174.548
20
-122.034
11
174.548
21
-122.034
0
LINE
8
BLACK
6
CONTINUOUS
10
174.548
20
-122.034
11
174.557
21
-122.033
0
LINE
8
BLACK
6
CONTINUOUS
10
174.557
20
-122.033
11
174.567
21
-122.032
0
LINE
8
BLACK
6
CONTINUOUS
10
174.567
20
-122.032
11
174.567
21
-122.032
0
LINE
8
BLACK
6
CONTINUOUS
10
174.567
20
-122.032
11
174.694
21
-122.016
0
LINE
8
BLACK
6
CONTINUOUS
10
174.694
20
-122.016
11
174.694
21
-122.016
0
LINE
8
BLACK
6
CONTINUOUS
10
174.694
20
-122.016
11
174.703
21
-122.015
0
LINE
8
BLACK
6
CONTINUOUS
10
174.703
20
-122.015
11
174.713
21
-122.014
0
LINE
8
BLACK
6
CONTINUOUS
10
174.713
20
-122.014
11
174.713
21
-122.014
0
LINE
8
BLACK
6
CONTINUOUS
10
174.713
20
-122.014
11
174.842
21
-122.004
0
LINE
8
BLACK
6
CONTINUOUS
10
174.842
20
-122.004
11
174.842
21
-122.004
0
LINE
8
BLACK
6
CONTINUOUS
10
174.842
20
-122.004
11
174.851
21
-122.004
0
LINE
8
BLACK
6
CONTINUOUS
10
174.851
20
-122.004
11
174.861
21
-122.003
0
LINE
8
BLACK
6
CONTINUOUS
10
174.861
20
-122.003
11
174.861
21
-122.003
0
LINE
8
BLACK
6
CONTINUOUS
10
174.861
20
-122.003
11
174.991
21
-122
0
LINE
8
BLACK
6
CONTINUOUS
10
174.991
20
-122
11
175
21
-122
0
LINE
8
BLACK
6
CONTINUOUS
10
175
20
-122
11
175
21
-123.5
0
LINE
8
BLACK
6
CONTINUOUS
10
172.041
20
-121.281
11
172.076
21
-121.281
0
LINE
8
BLACK
6
CONTINUOUS
10
172.076
20
-121.281
11
172.114
21
-121.289
0
LINE
8
BLACK
6
CONTINUOUS
10
172.114
20
-121.289
11
172.161
21
-121.294
0
LINE
8
BLACK
6
CONTINUOUS
10
172.161
20
-121.294
11
172.195
21
-121.306
0
LINE
8
BLACK
6
CONTINUOUS
10
172.195
20
-121.306
11
172.224
21
-121.312
0
LINE
8
BLACK
6
CONTINUOUS
10
172.224
20
-121.312
11
172.264
21
-121.33
0
LINE
8
BLACK
6
CONTINUOUS
10
172.264
20
-121.33
11
172.314
21
-121.348
0
LINE
8
BLACK
6
CONTINUOUS
10
172.314
20
-121.348
11
172.34
21
-121.364
0
LINE
8
BLACK
6
CONTINUOUS
10
172.34
20
-121.364
11
172.362
21
-121.374
0
LINE
8
BLACK
6
CONTINUOUS
10
172.362
20
-121.374
11
172.402
21
-121.403
0
LINE
8
BLACK
6
CONTINUOUS
10
172.402
20
-121.403
11
172.451
21
-121.434
0
LINE
8
BLACK
6
CONTINUOUS
10
172.451
20
-121.434
11
172.469
21
-121.452
0
LINE
8
BLACK
6
CONTINUOUS
10
172.469
20
-121.452
11
172.484
21
-121.462
0
LINE
8
BLACK
6
CONTINUOUS
10
172.484
20
-121.462
11
172.521
21
-121.503
0
LINE
8
BLACK
6
CONTINUOUS
10
172.521
20
-121.503
11
172.566
21
-121.549
0
LINE
8
BLACK
6
CONTINUOUS
10
172.566
20
-121.549
11
172.577
21
-121.565
0
LINE
8
BLACK
6
CONTINUOUS
10
172.577
20
-121.565
11
172.585
21
-121.575
0
LINE
8
BLACK
6
CONTINUOUS
10
172.585
20
-121.575
11
172.615
21
-121.626
0
LINE
8
BLACK
6
CONTINUOUS
10
172.615
20
-121.626
11
172.652
21
-121.686
0
LINE
8
BLACK
6
CONTINUOUS
10
172.652
20
-121.686
11
172.657
21
-121.699
0
LINE
8
BLACK
6
CONTINUOUS
10
172.657
20
-121.699
11
172.661
21
-121.706
0
LINE
8
BLACK
6
CONTINUOUS
10
172.661
20
-121.706
11
172.68
21
-121.765
0
LINE
8
BLACK
6
CONTINUOUS
10
172.68
20
-121.765
11
172.706
21
-121.839
0
LINE
8
BLACK
6
CONTINUOUS
10
172.706
20
-121.839
11
172.707
21
-121.848
0
LINE
8
BLACK
6
CONTINUOUS
10
172.707
20
-121.848
11
172.707
21
-121.85
0
LINE
8
BLACK
6
CONTINUOUS
10
172.707
20
-121.85
11
172.714
21
-121.908
0
LINE
8
BLACK
6
CONTINUOUS
10
172.714
20
-121.908
11
172.724
21
-122
0
LINE
8
BLACK
6
CONTINUOUS
10
172.724
20
-122
11
172.714
21
-122.092
0
LINE
8
BLACK
6
CONTINUOUS
10
172.714
20
-122.092
11
172.707
21
-122.15
0
LINE
8
BLACK
6
CONTINUOUS
10
172.707
20
-122.15
11
172.707
21
-122.152
0
LINE
8
BLACK
6
CONTINUOUS
10
172.707
20
-122.152
11
172.706
21
-122.161
0
LINE
8
BLACK
6
CONTINUOUS
10
172.706
20
-122.161
11
172.68
21
-122.235
0
LINE
8
BLACK
6
CONTINUOUS
10
172.68
20
-122.235
11
172.661
21
-122.294
0
LINE
8
BLACK
6
CONTINUOUS
10
172.661
20
-122.294
11
172.657
21
-122.301
0
LINE
8
BLACK
6
CONTINUOUS
10
172.657
20
-122.301
11
172.652
21
-122.314
0
LINE
8
BLACK
6
CONTINUOUS
10
172.652
20
-122.314
11
172.615
21
-122.374
0
LINE
8
BLACK
6
CONTINUOUS
10
172.615
20
-122.374
11
172.585
21
-122.425
0
LINE
8
BLACK
6
CONTINUOUS
10
172.585
20
-122.425
11
172.577
21
-122.435
0
LINE
8
BLACK
6
CONTINUOUS
10
172.577
20
-122.435
11
172.566
21
-122.451
0
LINE
8
BLACK
6
CONTINUOUS
10
172.566
20
-122.451
11
172.521
21
-122.497
0
LINE
8
BLACK
6
CONTINUOUS
10
172.521
20
-122.497
11
172.484
21
-122.538
0
LINE
8
BLACK
6
CONTINUOUS
10
172.484
20
-122.538
11
172.469
21
-122.548
0
LINE
8
BLACK
6
CONTINUOUS
10
172.469
20
-122.548
11
172.451
21
-122.566
0
LINE
8
BLACK
6
CONTINUOUS
10
172.451
20
-122.566
11
172.402
21
-122.597
0
LINE
8
BLACK
6
CONTINUOUS
10
172.402
20
-122.597
11
172.362
21
-122.626
0
LINE
8
BLACK
6
CONTINUOUS
10
172.362
20
-122.626
11
172.34
21
-122.636
0
LINE
8
BLACK
6
CONTINUOUS
10
172.34
20
-122.636
11
172.314
21
-122.652
0
LINE
8
BLACK
6
CONTINUOUS
10
172.314
20
-122.652
11
172.264
21
-122.67
0
LINE
8
BLACK
6
CONTINUOUS
10
172.264
20
-122.67
11
172.224
21
-122.688
0
LINE
8
BLACK
6
CONTINUOUS
10
172.224
20
-122.688
11
172.195
21
-122.694
0
LINE
8
BLACK
6
CONTINUOUS
10
172.195
20
-122.694
11
172.161
21
-122.706
0
LINE
8
BLACK
6
CONTINUOUS
10
172.161
20
-122.706
11
172.114
21
-122.711
0
LINE
8
BLACK
6
CONTINUOUS
10
172.114
20
-122.711
11
172.076
21
-122.719
0
LINE
8
BLACK
6
CONTINUOUS
10
172.076
20
-122.719
11
172.041
21
-122.719
0
LINE
8
BLACK
6
CONTINUOUS
10
172.041
20
-122.719
11
172
21
-122.724
0
LINE
8
BLACK
6
CONTINUOUS
10
172
20
-122.724
11
171.959
21
-122.719
0
LINE
8
BLACK
6
CONTINUOUS
10
171.959
20
-122.719
11
171.924
21
-122.719
0
LINE
8
BLACK
6
CONTINUOUS
10
171.924
20
-122.719
11
171.886
21
-122.711
0
LINE
8
BLACK
6
CONTINUOUS
10
171.886
20
-122.711
11
171.839
21
-122.706
0
LINE
8
BLACK
6
CONTINUOUS
10
171.839
20
-122.706
11
171.805
21
-122.694
0
LINE
8
BLACK
6
CONTINUOUS
10
171.805
20
-122.694
11
171.776
21
-122.688
0
LINE
8
BLACK
6
CONTINUOUS
10
171.776
20
-122.688
11
171.736
21
-122.67
0
LINE
8
BLACK
6
CONTINUOUS
10
171.736
20
-122.67
11
171.686
21
-122.652
0
LINE
8
BLACK
6
CONTINUOUS
10
171.686
20
-122.652
11
171.66
21
-122.636
0
LINE
8
BLACK
6
CONTINUOUS
10
171.66
20
-122.636
11
171.638
21
-122.626
0
LINE
8
BLACK
6
CONTINUOUS
10
171.638
20
-122.626
11
171.598
21
-122.597
0
LINE
8
BLACK
6
CONTINUOUS
10
171.598
20
-122.597
11
171.549
21
-122.566
0
LINE
8
BLACK
6
CONTINUOUS
10
171.549
20
-122.566
11
171.531
21
-122.548
0
LINE
8
BLACK
6
CONTINUOUS
10
171.531
20
-122.548
11
171.516
21
-122.538
0
LINE
8
BLACK
6
CONTINUOUS
10
171.516
20
-122.538
11
171.479
21
-122.497
0
LINE
8
BLACK
6
CONTINUOUS
10
171.479
20
-122.497
11
171.434
21
-122.451
0
LINE
8
BLACK
6
CONTINUOUS
10
171.434
20
-122.451
11
171.423
21
-122.435
0
LINE
8
BLACK
6
CONTINUOUS
10
171.423
20
-122.435
11
171.415
21
-122.425
0
LINE
8
BLACK
6
CONTINUOUS
10
171.415
20
-122.425
11
171.385
21
-122.374
0
LINE
8
BLACK
6
CONTINUOUS
10
171.385
20
-122.374
11
171.348
21
-122.314
0
LINE
8
BLACK
6
CONTINUOUS
10
171.348
20
-122.314
11
171.343
21
-122.301
0
LINE
8
BLACK
6
CONTINUOUS
10
171.343
20
-122.301
11
171.339
21
-122.294
0
LINE
8
BLACK
6
CONTINUOUS
10
171.339
20
-122.294
11
171.32
21
-122.235
0
LINE
8
BLACK
6
CONTINUOUS
10
171.32
20
-122.235
11
171.294
21
-122.161
0
LINE
8
BLACK
6
CONTINUOUS
10
171.294
20
-122.161
11
171.293
21
-122.152
0
LINE
8
BLACK
6
CONTINUOUS
10
171.293
20
-122.152
11
171.293
21
-122.15
0
LINE
8
BLACK
6
CONTINUOUS
10
171.293
20
-122.15
11
171.286
21
-122.092
0
LINE
8
BLACK
6
CONTINUOUS
10
171.286
20
-122.092
11
171.276
21
-122
0
LINE
8
BLACK
6
CONTINUOUS
10
171.276
20
-122
11
171.286
21
-121.908
0
LINE
8
BLACK
6
CONTINUOUS
10
171.286
20
-121.908
11
171.293
21
-121.85
0
LINE
8
BLACK
6
CONTINUOUS
10
171.293
20
-121.85
11
171.293
21
-121.848
0
LINE
8
BLACK
6
CONTINUOUS
10
171.293
20
-121.848
11
171.294
21
-121.839
0
LINE
8
BLACK
6
CONTINUOUS
10
171.294
20
-121.839
11
171.32
21
-121.765
0
LINE
8
BLACK
6
CONTINUOUS
10
171.32
20
-121.765
11
171.339
21
-121.706
0
LINE
8
BLACK
6
CONTINUOUS
10
171.339
20
-121.706
11
171.343
21
-121.699
0
LINE
8
BLACK
6
CONTINUOUS
10
171.343
20
-121.699
11
171.348
21
-121.686
0
LINE
8
BLACK
6
CONTINUOUS
10
171.348
20
-121.686
11
171.385
21
-121.626
0
LINE
8
BLACK
6
CONTINUOUS
10
171.385
20
-121.626
11
171.415
21
-121.575
0
LINE
8
BLACK
6
CONTINUOUS
10
171.415
20
-121.575
11
171.423
21
-121.565
0
LINE
8
BLACK
6
CONTINUOUS
10
171.423
20
-121.565
11
171.434
21
-121.549
0
LINE
8
BLACK
6
CONTINUOUS
10
171.434
20
-121.549
11
171.479
21
-121.503
0
LINE
8
BLACK
6
CONTINUOUS
10
171.479
20
-121.503
11
171.516
21
-121.462
0
LINE
8
BLACK
6
CONTINUOUS
10
171.516
20
-121.462
11
171.531
21
-121.452
0
LINE
8
BLACK
6
CONTINUOUS
10
171.531
20
-121.452
11
171.549
21
-121.434
0
LINE
8
BLACK
6
CONTINUOUS
10
171.549
20
-121.434
11
171.598
21
-121.403
0
LINE
8
BLACK
6
CONTINUOUS
10
171.598
20
-121.403
11
171.638
21
-121.374
0
LINE
8
BLACK
6
CONTINUOUS
10
171.638
20
-121.374
11
171.66
21
-121.364
0
LINE
8
BLACK
6
CONTINUOUS
10
171.66
20
-121.364
11
171.686
21
-121.348
0
LINE
8
BLACK
6
CONTINUOUS
10
171.686
20
-121.348
11
171.736
21
-121.33
0
LINE
8
BLACK
6
CONTINUOUS
10
171.736
20
-121.33
11
171.776
21
-121.312
0
LINE
8
BLACK
6
CONTINUOUS
10
171.776
20
-121.312
11
171.805
21
-121.306
0
LINE
8
BLACK
6
CONTINUOUS
10
171.805
20
-121.306
11
171.839
21
-121.294
0
LINE
8
BLACK
6
CONTINUOUS
10
171.839
20
-121.294
11
171.886
21
-121.289
0
LINE
8
BLACK
6
CONTINUOUS
10
171.886
20
-121.289
11
171.924
21
-121.281
0
LINE
8
BLACK
6
CONTINUOUS
10
171.924
20
-121.281
11
171.959
21
-121.281
0
LINE
8
BLACK
6
CONTINUOUS
10
171.959
20
-121.281
11
172
21
-121.276
0
LINE
8
BLACK
6
CONTINUOUS
10
172
20
-121.276
11
172.041
21
-121.281
0
LINE
8
BLACK
6
CONTINUOUS
10
128.022
20
-121.281
11
128.056
21
-121.281
0
LINE
8
BLACK
6
CONTINUOUS
10
128.056
20
-121.281
11
128.095
21
-121.289
0
LINE
8
BLACK
6
CONTINUOUS
10
128.095
20
-121.289
11
128.141
21
-121.294
0
LINE
8
BLACK
6
CONTINUOUS
10
128.141
20
-121.294
11
128.176
21
-121.306
0
LINE
8
BLACK
6
CONTINUOUS
10
128.176
20
-121.306
11
128.204
21
-121.312
0
LINE
8
BLACK
6
CONTINUOUS
10
128.204
20
-121.312
11
128.245
21
-121.33
0
LINE
8
BLACK
6
CONTINUOUS
10
128.245
20
-121.33
11
128.295
21
-121.348
0
LINE
8
BLACK
6
CONTINUOUS
10
128.295
20
-121.348
11
128.32
21
-121.364
0
LINE
8
BLACK
6
CONTINUOUS
10
128.32
20
-121.364
11
128.342
21
-121.374
0
LINE
8
BLACK
6
CONTINUOUS
10
128.342
20
-121.374
11
128.382
21
-121.403
0
LINE
8
BLACK
6
CONTINUOUS
10
128.382
20
-121.403
11
128.432
21
-121.434
0
LINE
8
BLACK
6
CONTINUOUS
10
128.432
20
-121.434
11
128.45
21
-121.452
0
LINE
8
BLACK
6
CONTINUOUS
10
128.45
20
-121.452
11
128.464
21
-121.462
0
LINE
8
BLACK
6
CONTINUOUS
10
128.464
20
-121.462
11
128.501
21
-121.503
0
LINE
8
BLACK
6
CONTINUOUS
10
128.501
20
-121.503
11
128.546
21
-121.549
0
LINE
8
BLACK
6
CONTINUOUS
10
128.546
20
-121.549
11
128.557
21
-121.565
0
LINE
8
BLACK
6
CONTINUOUS
10
128.557
20
-121.565
11
128.566
21
-121.575
0
LINE
8
BLACK
6
CONTINUOUS
10
128.566
20
-121.575
11
128.595
21
-121.626
0
LINE
8
BLACK
6
CONTINUOUS
10
128.595
20
-121.626
11
128.633
21
-121.686
0
LINE
8
BLACK
6
CONTINUOUS
10
128.633
20
-121.686
11
128.637
21
-121.699
0
LINE
8
BLACK
6
CONTINUOUS
10
128.637
20
-121.699
11
128.641
21
-121.706
0
LINE
8
BLACK
6
CONTINUOUS
10
128.641
20
-121.706
11
128.661
21
-121.765
0
LINE
8
BLACK
6
CONTINUOUS
10
128.661
20
-121.765
11
128.686
21
-121.839
0
LINE
8
BLACK
6
CONTINUOUS
10
128.686
20
-121.839
11
128.687
21
-121.848
0
LINE
8
BLACK
6
CONTINUOUS
10
128.687
20
-121.848
11
128.688
21
-121.85
0
LINE
8
BLACK
6
CONTINUOUS
10
128.688
20
-121.85
11
128.694
21
-121.908
0
LINE
8
BLACK
6
CONTINUOUS
10
128.694
20
-121.908
11
128.704
21
-122
0
LINE
8
BLACK
6
CONTINUOUS
10
128.704
20
-122
11
128.694
21
-122.092
0
LINE
8
BLACK
6
CONTINUOUS
10
128.694
20
-122.092
11
128.688
21
-122.15
0
LINE
8
BLACK
6
CONTINUOUS
10
128.688
20
-122.15
11
128.687
21
-122.152
0
LINE
8
BLACK
6
CONTINUOUS
10
128.687
20
-122.152
11
128.686
21
-122.161
0
LINE
8
BLACK
6
CONTINUOUS
10
128.686
20
-122.161
11
128.661
21
-122.235
0
LINE
8
BLACK
6
CONTINUOUS
10
128.661
20
-122.235
11
128.641
21
-122.294
0
LINE
8
BLACK
6
CONTINUOUS
10
128.641
20
-122.294
11
128.637
21
-122.301
0
LINE
8
BLACK
6
CONTINUOUS
10
128.637
20
-122.301
11
128.633
21
-122.314
0
LINE
8
BLACK
6
CONTINUOUS
10
128.633
20
-122.314
11
128.595
21
-122.374
0
LINE
8
BLACK
6
CONTINUOUS
10
128.595
20
-122.374
11
128.566
21
-122.425
0
LINE
8
BLACK
6
CONTINUOUS
10
128.566
20
-122.425
11
128.557
21
-122.435
0
LINE
8
BLACK
6
CONTINUOUS
10
128.557
20
-122.435
11
128.546
21
-122.451
0
LINE
8
BLACK
6
CONTINUOUS
10
128.546
20
-122.451
11
128.501
21
-122.497
0
LINE
8
BLACK
6
CONTINUOUS
10
128.501
20
-122.497
11
128.464
21
-122.538
0
LINE
8
BLACK
6
CONTINUOUS
10
128.464
20
-122.538
11
128.45
21
-122.548
0
LINE
8
BLACK
6
CONTINUOUS
10
128.45
20
-122.548
11
128.432
21
-122.566
0
LINE
8
BLACK
6
CONTINUOUS
10
128.432
20
-122.566
11
128.382
21
-122.597
0
LINE
8
BLACK
6
CONTINUOUS
10
128.382
20
-122.597
11
128.342
21
-122.626
0
LINE
8
BLACK
6
CONTINUOUS
10
128.342
20
-122.626
11
128.32
21
-122.636
0
LINE
8
BLACK
6
CONTINUOUS
10
128.32
20
-122.636
11
128.295
21
-122.652
0
LINE
8
BLACK
6
CONTINUOUS
10
128.295
20
-122.652
11
128.245
21
-122.67
0
LINE
8
BLACK
6
CONTINUOUS
10
128.245
20
-122.67
11
128.204
21
-122.688
0
LINE
8
BLACK
6
CONTINUOUS
10
128.204
20
-122.688
11
128.176
21
-122.694
0
LINE
8
BLACK
6
CONTINUOUS
10
128.176
20
-122.694
11
128.141
21
-122.706
0
LINE
8
BLACK
6
CONTINUOUS
10
128.141
20
-122.706
11
128.095
21
-122.711
0
LINE
8
BLACK
6
CONTINUOUS
10
128.095
20
-122.711
11
128.056
21
-122.719
0
LINE
8
BLACK
6
CONTINUOUS
10
128.056
20
-122.719
11
128.022
21
-122.719
0
LINE
8
BLACK
6
CONTINUOUS
10
128.022
20
-122.719
11
127.98
21
-122.724
0
LINE
8
BLACK
6
CONTINUOUS
10
127.98
20
-122.724
11
127.939
21
-122.719
0
LINE
8
BLACK
6
CONTINUOUS
10
127.939
20
-122.719
11
127.905
21
-122.719
0
LINE
8
BLACK
6
CONTINUOUS
10
127.905
20
-122.719
11
127.866
21
-122.711
0
LINE
8
BLACK
6
CONTINUOUS
10
127.866
20
-122.711
11
127.819
21
-122.706
0
LINE
8
BLACK
6
CONTINUOUS
10
127.819
20
-122.706
11
127.785
21
-122.694
0
LINE
8
BLACK
6
CONTINUOUS
10
127.785
20
-122.694
11
127.757
21
-122.688
0
LINE
8
BLACK
6
CONTINUOUS
10
127.757
20
-122.688
11
127.716
21
-122.67
0
LINE
8
BLACK
6
CONTINUOUS
10
127.716
20
-122.67
11
127.666
21
-122.652
0
LINE
8
BLACK
6
CONTINUOUS
10
127.666
20
-122.652
11
127.64
21
-122.636
0
LINE
8
BLACK
6
CONTINUOUS
10
127.64
20
-122.636
11
127.619
21
-122.626
0
LINE
8
BLACK
6
CONTINUOUS
10
127.619
20
-122.626
11
127.578
21
-122.597
0
LINE
8
BLACK
6
CONTINUOUS
10
127.578
20
-122.597
11
127.529
21
-122.566
0
LINE
8
BLACK
6
CONTINUOUS
10
127.529
20
-122.566
11
127.511
21
-122.548
0
LINE
8
BLACK
6
CONTINUOUS
10
127.511
20
-122.548
11
127.496
21
-122.538
0
LINE
8
BLACK
6
CONTINUOUS
10
127.496
20
-122.538
11
127.46
21
-122.497
0
LINE
8
BLACK
6
CONTINUOUS
10
127.46
20
-122.497
11
127.414
21
-122.451
0
LINE
8
BLACK
6
CONTINUOUS
10
127.414
20
-122.451
11
127.404
21
-122.435
0
LINE
8
BLACK
6
CONTINUOUS
10
127.404
20
-122.435
11
127.395
21
-122.425
0
LINE
8
BLACK
6
CONTINUOUS
10
127.395
20
-122.425
11
127.366
21
-122.374
0
LINE
8
BLACK
6
CONTINUOUS
10
127.366
20
-122.374
11
127.328
21
-122.314
0
LINE
8
BLACK
6
CONTINUOUS
10
127.328
20
-122.314
11
127.323
21
-122.301
0
LINE
8
BLACK
6
CONTINUOUS
10
127.323
20
-122.301
11
127.32
21
-122.294
0
LINE
8
BLACK
6
CONTINUOUS
10
127.32
20
-122.294
11
127.3
21
-122.235
0
LINE
8
BLACK
6
CONTINUOUS
10
127.3
20
-122.235
11
127.275
21
-122.161
0
LINE
8
BLACK
6
CONTINUOUS
10
127.275
20
-122.161
11
127.274
21
-122.152
0
LINE
8
BLACK
6
CONTINUOUS
10
127.274
20
-122.152
11
127.273
21
-122.15
0
LINE
8
BLACK
6
CONTINUOUS
10
127.273
20
-122.15
11
127.267
21
-122.092
0
LINE
8
BLACK
6
CONTINUOUS
10
127.267
20
-122.092
11
127.256
21
-122
0
LINE
8
BLACK
6
CONTINUOUS
10
127.256
20
-122
11
127.267
21
-121.908
0
LINE
8
BLACK
6
CONTINUOUS
10
127.267
20
-121.908
11
127.273
21
-121.85
0
LINE
8
BLACK
6
CONTINUOUS
10
127.273
20
-121.85
11
127.274
21
-121.848
0
LINE
8
BLACK
6
CONTINUOUS
10
127.274
20
-121.848
11
127.275
21
-121.839
0
LINE
8
BLACK
6
CONTINUOUS
10
127.275
20
-121.839
11
127.3
21
-121.765
0
LINE
8
BLACK
6
CONTINUOUS
10
127.3
20
-121.765
11
127.32
21
-121.706
0
LINE
8
BLACK
6
CONTINUOUS
10
127.32
20
-121.706
11
127.323
21
-121.699
0
LINE
8
BLACK
6
CONTINUOUS
10
127.323
20
-121.699
11
127.328
21
-121.686
0
LINE
8
BLACK
6
CONTINUOUS
10
127.328
20
-121.686
11
127.366
21
-121.626
0
LINE
8
BLACK
6
CONTINUOUS
10
127.366
20
-121.626
11
127.395
21
-121.575
0
LINE
8
BLACK
6
CONTINUOUS
10
127.395
20
-121.575
11
127.404
21
-121.565
0
LINE
8
BLACK
6
CONTINUOUS
10
127.404
20
-121.565
11
127.414
21
-121.549
0
LINE
8
BLACK
6
CONTINUOUS
10
127.414
20
-121.549
11
127.46
21
-121.503
0
LINE
8
BLACK
6
CONTINUOUS
10
127.46
20
-121.503
11
127.496
21
-121.462
0
LINE
8
BLACK
6
CONTINUOUS
10
127.496
20
-121.462
11
127.511
21
-121.452
0
LINE
8
BLACK
6
CONTINUOUS
10
127.511
20
-121.452
11
127.529
21
-121.434
0
LINE
8
BLACK
6
CONTINUOUS
10
127.529
20
-121.434
11
127.578
21
-121.403
0
LINE
8
BLACK
6
CONTINUOUS
10
127.578
20
-121.403
11
127.619
21
-121.374
0
LINE
8
BLACK
6
CONTINUOUS
10
127.619
20
-121.374
11
127.64
21
-121.364
0
LINE
8
BLACK
6
CONTINUOUS
10
127.64
20
-121.364
11
127.666
21
-121.348
0
LINE
8
BLACK
6
CONTINUOUS
10
127.666
20
-121.348
11
127.716
21
-121.33
0
LINE
8
BLACK
6
CONTINUOUS
10
127.716
20
-121.33
11
127.757
21
-121.312
0
LINE
8
BLACK
6
CONTINUOUS
10
127.757
20
-121.312
11
127.785
21
-121.306
0
LINE
8
BLACK
6
CONTINUOUS
10
127.785
20
-121.306
11
127.819
21
-121.294
0
LINE
8
BLACK
6
CONTINUOUS
10
127.819
20
-121.294
11
127.866
21
-121.289
0
LINE
8
BLACK
6
CONTINUOUS
10
127.866
20
-121.289
11
127.905
21
-121.281
0
LINE
8
BLACK
6
CONTINUOUS
10
127.905
20
-121.281
11
127.939
21
-121.281
0
LINE
8
BLACK
6
CONTINUOUS
10
127.939
20
-121.281
11
127.98
21
-121.276
0
LINE
8
BLACK
6
CONTINUOUS
10
127.98
20
-121.276
11
128.022
21
-121.281
0
LINE
8
BLACK
6
CONTINUOUS
10
128.041
20
-77.2807
11
128.076
21
-77.2807
0
LINE
8
BLACK
6
CONTINUOUS
10
128.076
20
-77.2807
11
128.114
21
-77.2889
0
LINE
8
BLACK
6
CONTINUOUS
10
128.114
20
-77.2889
11
128.161
21
-77.2942
0
LINE
8
BLACK
6
CONTINUOUS
10
128.161
20
-77.2942
11
128.195
21
-77.3061
0
LINE
8
BLACK
6
CONTINUOUS
10
128.195
20
-77.3061
11
128.224
21
-77.3121
0
LINE
8
BLACK
6
CONTINUOUS
10
128.224
20
-77.3121
11
128.264
21
-77.3303
0
LINE
8
BLACK
6
CONTINUOUS
10
128.264
20
-77.3303
11
128.314
21
-77.3477
0
LINE
8
BLACK
6
CONTINUOUS
10
128.314
20
-77.3477
11
128.34
21
-77.364
0
LINE
8
BLACK
6
CONTINUOUS
10
128.34
20
-77.364
11
128.362
21
-77.3736
0
LINE
8
BLACK
6
CONTINUOUS
10
128.362
20
-77.3736
11
128.402
21
-77.4029
0
LINE
8
BLACK
6
CONTINUOUS
10
128.402
20
-77.4029
11
128.451
21
-77.434
0
LINE
8
BLACK
6
CONTINUOUS
10
128.451
20
-77.434
11
128.469
21
-77.4517
0
LINE
8
BLACK
6
CONTINUOUS
10
128.469
20
-77.4517
11
128.484
21
-77.4625
0
LINE
8
BLACK
6
CONTINUOUS
10
128.484
20
-77.4625
11
128.521
21
-77.5031
0
LINE
8
BLACK
6
CONTINUOUS
10
128.521
20
-77.5031
11
128.566
21
-77.5486
0
LINE
8
BLACK
6
CONTINUOUS
10
128.566
20
-77.5486
11
128.577
21
-77.5652
0
LINE
8
BLACK
6
CONTINUOUS
10
128.577
20
-77.5652
11
128.585
21
-77.5749
0
LINE
8
BLACK
6
CONTINUOUS
10
128.585
20
-77.5749
11
128.615
21
-77.6261
0
LINE
8
BLACK
6
CONTINUOUS
10
128.615
20
-77.6261
11
128.652
21
-77.6859
0
LINE
8
BLACK
6
CONTINUOUS
10
128.652
20
-77.6859
11
128.657
21
-77.6993
0
LINE
8
BLACK
6
CONTINUOUS
10
128.657
20
-77.6993
11
128.661
21
-77.7058
0
LINE
8
BLACK
6
CONTINUOUS
10
128.661
20
-77.7058
11
128.68
21
-77.7654
0
LINE
8
BLACK
6
CONTINUOUS
10
128.68
20
-77.7654
11
128.706
21
-77.8389
0
LINE
8
BLACK
6
CONTINUOUS
10
128.706
20
-77.8389
11
128.707
21
-77.8475
0
LINE
8
BLACK
6
CONTINUOUS
10
128.707
20
-77.8475
11
128.707
21
-77.8496
0
LINE
8
BLACK
6
CONTINUOUS
10
128.707
20
-77.8496
11
128.714
21
-77.9076
0
LINE
8
BLACK
6
CONTINUOUS
10
128.714
20
-77.9076
11
128.724
21
-78
0
LINE
8
BLACK
6
CONTINUOUS
10
128.724
20
-78
11
128.714
21
-78.0924
0
LINE
8
BLACK
6
CONTINUOUS
10
128.714
20
-78.0924
11
128.707
21
-78.1504
0
LINE
8
BLACK
6
CONTINUOUS
10
128.707
20
-78.1504
11
128.707
21
-78.1524
0
LINE
8
BLACK
6
CONTINUOUS
10
128.707
20
-78.1524
11
128.706
21
-78.1611
0
LINE
8
BLACK
6
CONTINUOUS
10
128.706
20
-78.1611
11
128.68
21
-78.2346
0
LINE
8
BLACK
6
CONTINUOUS
10
128.68
20
-78.2346
11
128.661
21
-78.2942
0
LINE
8
BLACK
6
CONTINUOUS
10
128.661
20
-78.2942
11
128.657
21
-78.3007
0
LINE
8
BLACK
6
CONTINUOUS
10
128.657
20
-78.3007
11
128.652
21
-78.3141
0
LINE
8
BLACK
6
CONTINUOUS
10
128.652
20
-78.3141
11
128.615
21
-78.3739
0
LINE
8
BLACK
6
CONTINUOUS
10
128.615
20
-78.3739
11
128.585
21
-78.4251
0
LINE
8
BLACK
6
CONTINUOUS
10
128.585
20
-78.4251
11
128.577
21
-78.4348
0
LINE
8
BLACK
6
CONTINUOUS
10
128.577
20
-78.4348
11
128.566
21
-78.4514
0
LINE
8
BLACK
6
CONTINUOUS
10
128.566
20
-78.4514
11
128.521
21
-78.4969
0
LINE
8
BLACK
6
CONTINUOUS
10
128.521
20
-78.4969
11
128.484
21
-78.5375
0
LINE
8
BLACK
6
CONTINUOUS
10
128.484
20
-78.5375
11
128.469
21
-78.5483
0
LINE
8
BLACK
6
CONTINUOUS
10
128.469
20
-78.5483
11
128.451
21
-78.566
0
LINE
8
BLACK
6
CONTINUOUS
10
128.451
20
-78.566
11
128.402
21
-78.5972
0
LINE
8
BLACK
6
CONTINUOUS
10
128.402
20
-78.5972
11
128.362
21
-78.6264
0
LINE
8
BLACK
6
CONTINUOUS
10
128.362
20
-78.6264
11
128.34
21
-78.636
0
LINE
8
BLACK
6
CONTINUOUS
10
128.34
20
-78.636
11
128.314
21
-78.6523
0
LINE
8
BLACK
6
CONTINUOUS
10
128.314
20
-78.6523
11
128.264
21
-78.6697
0
LINE
8
BLACK
6
CONTINUOUS
10
128.264
20
-78.6697
11
128.224
21
-78.6879
0
LINE
8
BLACK
6
CONTINUOUS
10
128.224
20
-78.6879
11
128.195
21
-78.6939
0
LINE
8
BLACK
6
CONTINUOUS
10
128.195
20
-78.6939
11
128.161
21
-78.7058
0
LINE
8
BLACK
6
CONTINUOUS
10
128.161
20
-78.7058
11
128.114
21
-78.7111
0
LINE
8
BLACK
6
CONTINUOUS
10
128.114
20
-78.7111
11
128.076
21
-78.7193
0
LINE
8
BLACK
6
CONTINUOUS
10
128.076
20
-78.7193
11
128.041
21
-78.7193
0
LINE
8
BLACK
6
CONTINUOUS
10
128.041
20
-78.7193
11
128
21
-78.724
0
LINE
8
BLACK
6
CONTINUOUS
10
128
20
-78.724
11
127.959
21
-78.7193
0
LINE
8
BLACK
6
CONTINUOUS
10
127.959
20
-78.7193
11
127.924
21
-78.7193
0
LINE
8
BLACK
6
CONTINUOUS
10
127.924
20
-78.7193
11
127.886
21
-78.7111
0
LINE
8
BLACK
6
CONTINUOUS
10
127.886
20
-78.7111
11
127.839
21
-78.7058
0
LINE
8
BLACK
6
CONTINUOUS
10
127.839
20
-78.7058
11
127.805
21
-78.6939
0
LINE
8
BLACK
6
CONTINUOUS
10
127.805
20
-78.6939
11
127.776
21
-78.6879
0
LINE
8
BLACK
6
CONTINUOUS
10
127.776
20
-78.6879
11
127.736
21
-78.6697
0
LINE
8
BLACK
6
CONTINUOUS
10
127.736
20
-78.6697
11
127.686
21
-78.6523
0
LINE
8
BLACK
6
CONTINUOUS
10
127.686
20
-78.6523
11
127.66
21
-78.636
0
LINE
8
BLACK
6
CONTINUOUS
10
127.66
20
-78.636
11
127.638
21
-78.6264
0
LINE
8
BLACK
6
CONTINUOUS
10
127.638
20
-78.6264
11
127.598
21
-78.5971
0
LINE
8
BLACK
6
CONTINUOUS
10
127.598
20
-78.5971
11
127.549
21
-78.566
0
LINE
8
BLACK
6
CONTINUOUS
10
127.549
20
-78.566
11
127.531
21
-78.5483
0
LINE
8
BLACK
6
CONTINUOUS
10
127.531
20
-78.5483
11
127.516
21
-78.5375
0
LINE
8
BLACK
6
CONTINUOUS
10
127.516
20
-78.5375
11
127.479
21
-78.4969
0
LINE
8
BLACK
6
CONTINUOUS
10
127.479
20
-78.4969
11
127.434
21
-78.4514
0
LINE
8
BLACK
6
CONTINUOUS
10
127.434
20
-78.4514
11
127.423
21
-78.4348
0
LINE
8
BLACK
6
CONTINUOUS
10
127.423
20
-78.4348
11
127.415
21
-78.4251
0
LINE
8
BLACK
6
CONTINUOUS
10
127.415
20
-78.4251
11
127.385
21
-78.3739
0
LINE
8
BLACK
6
CONTINUOUS
10
127.385
20
-78.3739
11
127.348
21
-78.3141
0
LINE
8
BLACK
6
CONTINUOUS
10
127.348
20
-78.3141
11
127.343
21
-78.3007
0
LINE
8
BLACK
6
CONTINUOUS
10
127.343
20
-78.3007
11
127.339
21
-78.2942
0
LINE
8
BLACK
6
CONTINUOUS
10
127.339
20
-78.2942
11
127.32
21
-78.2346
0
LINE
8
BLACK
6
CONTINUOUS
10
127.32
20
-78.2346
11
127.294
21
-78.1611
0
LINE
8
BLACK
6
CONTINUOUS
10
127.294
20
-78.1611
11
127.293
21
-78.1525
0
LINE
8
BLACK
6
CONTINUOUS
10
127.293
20
-78.1525
11
127.293
21
-78.1504
0
LINE
8
BLACK
6
CONTINUOUS
10
127.293
20
-78.1504
11
127.286
21
-78.0923
0
LINE
8
BLACK
6
CONTINUOUS
10
127.286
20
-78.0923
11
127.276
21
-78
0
LINE
8
BLACK
6
CONTINUOUS
10
127.276
20
-78
11
127.286
21
-77.9077
0
LINE
8
BLACK
6
CONTINUOUS
10
127.286
20
-77.9077
11
127.293
21
-77.8496
0
LINE
8
BLACK
6
CONTINUOUS
10
127.293
20
-77.8496
11
127.293
21
-77.8475
0
LINE
8
BLACK
6
CONTINUOUS
10
127.293
20
-77.8475
11
127.294
21
-77.8389
0
LINE
8
BLACK
6
CONTINUOUS
10
127.294
20
-77.8389
11
127.32
21
-77.7654
0
LINE
8
BLACK
6
CONTINUOUS
10
127.32
20
-77.7654
11
127.339
21
-77.7058
0
LINE
8
BLACK
6
CONTINUOUS
10
127.339
20
-77.7058
11
127.343
21
-77.6993
0
LINE
8
BLACK
6
CONTINUOUS
10
127.343
20
-77.6993
11
127.348
21
-77.6859
0
LINE
8
BLACK
6
CONTINUOUS
10
127.348
20
-77.6859
11
127.385
21
-77.6262
0
LINE
8
BLACK
6
CONTINUOUS
10
127.385
20
-77.6262
11
127.415
21
-77.5749
0
LINE
8
BLACK
6
CONTINUOUS
10
127.415
20
-77.5749
11
127.423
21
-77.5652
0
LINE
8
BLACK
6
CONTINUOUS
10
127.423
20
-77.5652
11
127.434
21
-77.5486
0
LINE
8
BLACK
6
CONTINUOUS
10
127.434
20
-77.5486
11
127.479
21
-77.5031
0
LINE
8
BLACK
6
CONTINUOUS
10
127.479
20
-77.5031
11
127.516
21
-77.4625
0
LINE
8
BLACK
6
CONTINUOUS
10
127.516
20
-77.4625
11
127.531
21
-77.4517
0
LINE
8
BLACK
6
CONTINUOUS
10
127.531
20
-77.4517
11
127.549
21
-77.434
0
LINE
8
BLACK
6
CONTINUOUS
10
127.549
20
-77.434
11
127.598
21
-77.4029
0
LINE
8
BLACK
6
CONTINUOUS
10
127.598
20
-77.4029
11
127.638
21
-77.3736
0
LINE
8
BLACK
6
CONTINUOUS
10
127.638
20
-77.3736
11
127.66
21
-77.364
0
LINE
8
BLACK
6
CONTINUOUS
10
127.66
20
-77.364
11
127.686
21
-77.3477
0
LINE
8
BLACK
6
CONTINUOUS
10
127.686
20
-77.3477
11
127.736
21
-77.3303
0
LINE
8
BLACK
6
CONTINUOUS
10
127.736
20
-77.3303
11
127.776
21
-77.3121
0
LINE
8
BLACK
6
CONTINUOUS
10
127.776
20
-77.3121
11
127.805
21
-77.3061
0
LINE
8
BLACK
6
CONTINUOUS
10
127.805
20
-77.3061
11
127.839
21
-77.2942
0
LINE
8
BLACK
6
CONTINUOUS
10
127.839
20
-77.2942
11
127.886
21
-77.2889
0
LINE
8
BLACK
6
CONTINUOUS
10
127.886
20
-77.2889
11
127.924
21
-77.2807
0
LINE
8
BLACK
6
CONTINUOUS
10
127.924
20
-77.2807
11
127.959
21
-77.2807
0
LINE
8
BLACK
6
CONTINUOUS
10
127.959
20
-77.2807
11
128
21
-77.276
0
LINE
8
BLACK
6
CONTINUOUS
10
128
20
-77.276
11
128.041
21
-77.2807
0
LINE
8
BLACK
6
CONTINUOUS
10
172.041
20
-77.2807
11
172.076
21
-77.2807
0
LINE
8
BLACK
6
CONTINUOUS
10
172.076
20
-77.2807
11
172.114
21
-77.2889
0
LINE
8
BLACK
6
CONTINUOUS
10
172.114
20
-77.2889
11
172.161
21
-77.2942
0
LINE
8
BLACK
6
CONTINUOUS
10
172.161
20
-77.2942
11
172.195
21
-77.3061
0
LINE
8
BLACK
6
CONTINUOUS
10
172.195
20
-77.3061
11
172.224
21
-77.3121
0
LINE
8
BLACK
6
CONTINUOUS
10
172.224
20
-77.3121
11
172.264
21
-77.3303
0
LINE
8
BLACK
6
CONTINUOUS
10
172.264
20
-77.3303
11
172.314
21
-77.3477
0
LINE
8
BLACK
6
CONTINUOUS
10
172.314
20
-77.3477
11
172.34
21
-77.364
0
LINE
8
BLACK
6
CONTINUOUS
10
172.34
20
-77.364
11
172.362
21
-77.3736
0
LINE
8
BLACK
6
CONTINUOUS
10
172.362
20
-77.3736
11
172.402
21
-77.4029
0
LINE
8
BLACK
6
CONTINUOUS
10
172.402
20
-77.4029
11
172.451
21
-77.434
0
LINE
8
BLACK
6
CONTINUOUS
10
172.451
20
-77.434
11
172.469
21
-77.4517
0
LINE
8
BLACK
6
CONTINUOUS
10
172.469
20
-77.4517
11
172.484
21
-77.4625
0
LINE
8
BLACK
6
CONTINUOUS
10
172.484
20
-77.4625
11
172.521
21
-77.5031
0
LINE
8
BLACK
6
CONTINUOUS
10
172.521
20
-77.5031
11
172.566
21
-77.5486
0
LINE
8
BLACK
6
CONTINUOUS
10
172.566
20
-77.5486
11
172.577
21
-77.5652
0
LINE
8
BLACK
6
CONTINUOUS
10
172.577
20
-77.5652
11
172.585
21
-77.5749
0
LINE
8
BLACK
6
CONTINUOUS
10
172.585
20
-77.5749
11
172.615
21
-77.6261
0
LINE
8
BLACK
6
CONTINUOUS
10
172.615
20
-77.6261
11
172.652
21
-77.6859
0
LINE
8
BLACK
6
CONTINUOUS
10
172.652
20
-77.6859
11
172.657
21
-77.6993
0
LINE
8
BLACK
6
CONTINUOUS
10
172.657
20
-77.6993
11
172.661
21
-77.7058
0
LINE
8
BLACK
6
CONTINUOUS
10
172.661
20
-77.7058
11
172.68
21
-77.7654
0
LINE
8
BLACK
6
CONTINUOUS
10
172.68
20
-77.7654
11
172.706
21
-77.8389
0
LINE
8
BLACK
6
CONTINUOUS
10
172.706
20
-77.8389
11
172.707
21
-77.8475
0
LINE
8
BLACK
6
CONTINUOUS
10
172.707
20
-77.8475
11
172.707
21
-77.8496
0
LINE
8
BLACK
6
CONTINUOUS
10
172.707
20
-77.8496
11
172.714
21
-77.9076
0
LINE
8
BLACK
6
CONTINUOUS
10
172.714
20
-77.9076
11
172.724
21
-78
0
LINE
8
BLACK
6
CONTINUOUS
10
172.724
20
-78
11
172.714
21
-78.0924
0
LINE
8
BLACK
6
CONTINUOUS
10
172.714
20
-78.0924
11
172.707
21
-78.1504
0
LINE
8
BLACK
6
CONTINUOUS
10
172.707
20
-78.1504
11
172.707
21
-78.1524
0
LINE
8
BLACK
6
CONTINUOUS
10
172.707
20
-78.1524
11
172.706
21
-78.1611
0
LINE
8
BLACK
6
CONTINUOUS
10
172.706
20
-78.1611
11
172.68
21
-78.2346
0
LINE
8
BLACK
6
CONTINUOUS
10
172.68
20
-78.2346
11
172.661
21
-78.2942
0
LINE
8
BLACK
6
CONTINUOUS
10
172.661
20
-78.2942
11
172.657
21
-78.3007
0
LINE
8
BLACK
6
CONTINUOUS
10
172.657
20
-78.3007
11
172.652
21
-78.3141
0
LINE
8
BLACK
6
CONTINUOUS
10
172.652
20
-78.3141
11
172.615
21
-78.3739
0
LINE
8
BLACK
6
CONTINUOUS
10
172.615
20
-78.3739
11
172.585
21
-78.4251
0
LINE
8
BLACK
6
CONTINUOUS
10
172.585
20
-78.4251
11
172.577
21
-78.4348
0
LINE
8
BLACK
6
CONTINUOUS
10
172.577
20
-78.4348
11
172.566
21
-78.4514
0
LINE
8
BLACK
6
CONTINUOUS
10
172.566
20
-78.4514
11
172.521
21
-78.4969
0
LINE
8
BLACK
6
CONTINUOUS
10
172.521
20
-78.4969
11
172.484
21
-78.5375
0
LINE
8
BLACK
6
CONTINUOUS
10
172.484
20
-78.5375
11
172.469
21
-78.5483
0
LINE
8
BLACK
6
CONTINUOUS
10
172.469
20
-78.5483
11
172.451
21
-78.566
0
LINE
8
BLACK
6
CONTINUOUS
10
172.451
20
-78.566
11
172.402
21
-78.5972
0
LINE
8
BLACK
6
CONTINUOUS
10
172.402
20
-78.5972
11
172.362
21
-78.6264
0
LINE
8
BLACK
6
CONTINUOUS
10
172.362
20
-78.6264
11
172.34
21
-78.636
0
LINE
8
BLACK
6
CONTINUOUS
10
172.34
20
-78.636
11
172.314
21
-78.6523
0
LINE
8
BLACK
6
CONTINUOUS
10
172.314
20
-78.6523
11
172.264
21
-78.6697
0
LINE
8
BLACK
6
CONTINUOUS
10
172.264
20
-78.6697
11
172.224
21
-78.6879
0
LINE
8
BLACK
6
CONTINUOUS
10
172.224
20
-78.6879
11
172.195
21
-78.6939
0
LINE
8
BLACK
6
CONTINUOUS
10
172.195
20
-78.6939
11
172.161
21
-78.7058
0
LINE
8
BLACK
6
CONTINUOUS
10
172.161
20
-78.7058
11
172.114
21
-78.7111
0
LINE
8
BLACK
6
CONTINUOUS
10
172.114
20
-78.7111
11
172.076
21
-78.7193
0
LINE
8
BLACK
6
CONTINUOUS
10
172.076
20
-78.7193
11
172.041
21
-78.7193
0
LINE
8
BLACK
6
CONTINUOUS
10
172.041
20
-78.7193
11
172
21
-78.724
0
LINE
8
BLACK
6
CONTINUOUS
10
172
20
-78.724
11
171.959
21
-78.7193
0
LINE
8
BLACK
6
CONTINUOUS
10
171.959
20
-78.7193
11
171.924
21
-78.7193
0
LINE
8
BLACK
6
CONTINUOUS
10
171.924
20
-78.7193
11
171.886
21
-78.7111
0
LINE
8
BLACK
6
CONTINUOUS
10
171.886
20
-78.7111
11
171.839
21
-78.7058
0
LINE
8
BLACK
6
CONTINUOUS
10
171.839
20
-78.7058
11
171.805
21
-78.6939
0
LINE
8
BLACK
6
CONTINUOUS
10
171.805
20
-78.6939
11
171.776
21
-78.6879
0
LINE
8
BLACK
6
CONTINUOUS
10
171.776
20
-78.6879
11
171.736
21
-78.6697
0
LINE
8
BLACK
6
CONTINUOUS
10
171.736
20
-78.6697
11
171.686
21
-78.6523
0
LINE
8
BLACK
6
CONTINUOUS
10
171.686
20
-78.6523
11
171.66
21
-78.636
0
LINE
8
BLACK
6
CONTINUOUS
10
171.66
20
-78.636
11
171.638
21
-78.6264
0
LINE
8
BLACK
6
CONTINUOUS
10
171.638
20
-78.6264
11
171.598
21
-78.5971
0
LINE
8
BLACK
6
CONTINUOUS
10
171.598
20
-78.5971
11
171.549
21
-78.566
0
LINE
8
BLACK
6
CONTINUOUS
10
171.549
20
-78.566
11
171.531
21
-78.5483
0
LINE
8
BLACK
6
CONTINUOUS
10
171.531
20
-78.5483
11
171.516
21
-78.5375
0
LINE
8
BLACK
6
CONTINUOUS
10
171.516
20
-78.5375
11
171.479
21
-78.4969
0
LINE
8
BLACK
6
CONTINUOUS
10
171.479
20
-78.4969
11
171.434
21
-78.4514
0
LINE
8
BLACK
6
CONTINUOUS
10
171.434
20
-78.4514
11
171.423
21
-78.4348
0
LINE
8
BLACK
6
CONTINUOUS
10
171.423
20
-78.4348
11
171.415
21
-78.4251
0
LINE
8
BLACK
6
CONTINUOUS
10
171.415
20
-78.4251
11
171.385
21
-78.3739
0
LINE
8
BLACK
6
CONTINUOUS
10
171.385
20
-78.3739
11
171.348
21
-78.3141
0
LINE
8
BLACK
6
CONTINUOUS
10
171.348
20
-78.3141
11
171.343
21
-78.3007
0
LINE
8
BLACK
6
CONTINUOUS
10
171.343
20
-78.3007
11
171.339
21
-78.2942
0
LINE
8
BLACK
6
CONTINUOUS
10
171.339
20
-78.2942
11
171.32
21
-78.2346
0
LINE
8
BLACK
6
CONTINUOUS
10
171.32
20
-78.2346
11
171.294
21
-78.1611
0
LINE
8
BLACK
6
CONTINUOUS
10
171.294
20
-78.1611
11
171.293
21
-78.1525
0
LINE
8
BLACK
6
CONTINUOUS
10
171.293
20
-78.1525
11
171.293
21
-78.1504
0
LINE
8
BLACK
6
CONTINUOUS
10
171.293
20
-78.1504
11
171.286
21
-78.0923
0
LINE
8
BLACK
6
CONTINUOUS
10
171.286
20
-78.0923
11
171.276
21
-78
0
LINE
8
BLACK
6
CONTINUOUS
10
171.276
20
-78
11
171.286
21
-77.9077
0
LINE
8
BLACK
6
CONTINUOUS
10
171.286
20
-77.9077
11
171.293
21
-77.8496
0
LINE
8
BLACK
6
CONTINUOUS
10
171.293
20
-77.8496
11
171.293
21
-77.8475
0
LINE
8
BLACK
6
CONTINUOUS
10
171.293
20
-77.8475
11
171.294
21
-77.8389
0
LINE
8
BLACK
6
CONTINUOUS
10
171.294
20
-77.8389
11
171.32
21
-77.7654
0
LINE
8
BLACK
6
CONTINUOUS
10
171.32
20
-77.7654
11
171.339
21
-77.7058
0
LINE
8
BLACK
6
CONTINUOUS
10
171.339
20
-77.7058
11
171.343
21
-77.6993
0
LINE
8
BLACK
6
CONTINUOUS
10
171.343
20
-77.6993
11
171.348
21
-77.6859
0
LINE
8
BLACK
6
CONTINUOUS
10
171.348
20
-77.6859
11
171.385
21
-77.6262
0
LINE
8
BLACK
6
CONTINUOUS
10
171.385
20
-77.6262
11
171.415
21
-77.5749
0
LINE
8
BLACK
6
CONTINUOUS
10
171.415
20
-77.5749
11
171.423
21
-77.5652
0
LINE
8
BLACK
6
CONTINUOUS
10
171.423
20
-77.5652
11
171.434
21
-77.5486
0
LINE
8
BLACK
6
CONTINUOUS
10
171.434
20
-77.5486
11
171.479
21
-77.5031
0
LINE
8
BLACK
6
CONTINUOUS
10
171.479
20
-77.5031
11
171.516
21
-77.4625
0
LINE
8
BLACK
6
CONTINUOUS
10
171.516
20
-77.4625
11
171.531
21
-77.4517
0
LINE
8
BLACK
6
CONTINUOUS
10
171.531
20
-77.4517
11
171.549
21
-77.434
0
LINE
8
BLACK
6
CONTINUOUS
10
171.549
20
-77.434
11
171.598
21
-77.4029
0
LINE
8
BLACK
6
CONTINUOUS
10
171.598
20
-77.4029
11
171.638
21
-77.3736
0
LINE
8
BLACK
6
CONTINUOUS
10
171.638
20
-77.3736
11
171.66
21
-77.364
0
LINE
8
BLACK
6
CONTINUOUS
10
171.66
20
-77.364
11
171.686
21
-77.3477
0
LINE
8
BLACK
6
CONTINUOUS
10
171.686
20
-77.3477
11
171.736
21
-77.3303
0
LINE
8
BLACK
6
CONTINUOUS
10
171.736
20
-77.3303
11
171.776
21
-77.3121
0
LINE
8
BLACK
6
CONTINUOUS
10
171.776
20
-77.3121
11
171.805
21
-77.3061
0
LINE
8
BLACK
6
CONTINUOUS
10
171.805
20
-77.3061
11
171.839
21
-77.2942
0
LINE
8
BLACK
6
CONTINUOUS
10
171.839
20
-77.2942
11
171.886
21
-77.2889
0
LINE
8
BLACK
6
CONTINUOUS
10
171.886
20
-77.2889
11
171.924
21
-77.2807
0
LINE
8
BLACK
6
CONTINUOUS
10
171.924
20
-77.2807
11
171.959
21
-77.2807
0
LINE
8
BLACK
6
CONTINUOUS
10
171.959
20
-77.2807
11
172
21
-77.276
0
LINE
8
BLACK
6
CONTINUOUS
10
172
20
-77.276
11
172.041
21
-77.2807
0
LINE
8
BLACK
6
CONTINUOUS
10
173.5
20
-75.0194
11
173.502
21
-75.0739
0
LINE
8
BLACK
6
CONTINUOUS
10
173.502
20
-75.0739
11
173.502
21
-75.0771
0
LINE
8
BLACK
6
CONTINUOUS
10
173.502
20
-75.0771
11
173.507
21
-75.1478
0
LINE
8
BLACK
6
CONTINUOUS
10
173.507
20
-75.1478
11
173.508
21
-75.1509
0
LINE
8
BLACK
6
CONTINUOUS
10
173.508
20
-75.1509
11
173.516
21
-75.22
0
LINE
8
BLACK
6
CONTINUOUS
10
173.516
20
-75.22
11
173.516
21
-75.2211
0
LINE
8
BLACK
6
CONTINUOUS
10
173.516
20
-75.2211
11
173.517
21
-75.2242
0
LINE
8
BLACK
6
CONTINUOUS
10
173.517
20
-75.2242
11
173.529
21
-75.2936
0
LINE
8
BLACK
6
CONTINUOUS
10
173.529
20
-75.2936
11
173.529
21
-75.2966
0
LINE
8
BLACK
6
CONTINUOUS
10
173.529
20
-75.2966
11
173.545
21
-75.3652
0
LINE
8
BLACK
6
CONTINUOUS
10
173.545
20
-75.3652
11
173.546
21
-75.3682
0
LINE
8
BLACK
6
CONTINUOUS
10
173.546
20
-75.3682
11
173.564
21
-75.4359
0
LINE
8
BLACK
6
CONTINUOUS
10
173.564
20
-75.4359
11
173.565
21
-75.4388
0
LINE
8
BLACK
6
CONTINUOUS
10
173.565
20
-75.4388
11
173.567
21
-75.4441
0
LINE
8
BLACK
6
CONTINUOUS
10
173.567
20
-75.4441
11
173.587
21
-75.5054
0
LINE
8
BLACK
6
CONTINUOUS
10
173.587
20
-75.5054
11
173.588
21
-75.5083
0
LINE
8
BLACK
6
CONTINUOUS
10
173.588
20
-75.5083
11
173.614
21
-75.5737
0
LINE
8
BLACK
6
CONTINUOUS
10
173.614
20
-75.5737
11
173.615
21
-75.5765
0
LINE
8
BLACK
6
CONTINUOUS
10
173.615
20
-75.5765
11
173.643
21
-75.6406
0
LINE
8
BLACK
6
CONTINUOUS
10
173.643
20
-75.6406
11
173.645
21
-75.6434
0
LINE
8
BLACK
6
CONTINUOUS
10
173.645
20
-75.6434
11
173.676
21
-75.7061
0
LINE
8
BLACK
6
CONTINUOUS
10
173.676
20
-75.7061
11
173.677
21
-75.7088
0
LINE
8
BLACK
6
CONTINUOUS
10
173.677
20
-75.7088
11
173.712
21
-75.7699
0
LINE
8
BLACK
6
CONTINUOUS
10
173.712
20
-75.7699
11
173.714
21
-75.7726
0
LINE
8
BLACK
6
CONTINUOUS
10
173.714
20
-75.7726
11
173.75
21
-75.8309
0
LINE
8
BLACK
6
CONTINUOUS
10
173.75
20
-75.8309
11
173.751
21
-75.832
0
LINE
8
BLACK
6
CONTINUOUS
10
173.751
20
-75.832
11
173.753
21
-75.8346
0
LINE
8
BLACK
6
CONTINUOUS
10
173.753
20
-75.8346
11
173.793
21
-75.8923
0
LINE
8
BLACK
6
CONTINUOUS
10
173.793
20
-75.8923
11
173.795
21
-75.8948
0
LINE
8
BLACK
6
CONTINUOUS
10
173.795
20
-75.8948
11
173.817
21
-75.9224
0
LINE
8
BLACK
6
CONTINUOUS
10
173.817
20
-75.9224
11
173.839
21
-75.9505
0
LINE
8
BLACK
6
CONTINUOUS
10
173.839
20
-75.9505
11
173.841
21
-75.9529
0
LINE
8
BLACK
6
CONTINUOUS
10
173.841
20
-75.9529
11
173.858
21
-75.973
0
LINE
8
BLACK
6
CONTINUOUS
10
173.858
20
-75.973
11
173.887
21
-76.0067
0
LINE
8
BLACK
6
CONTINUOUS
10
173.887
20
-76.0067
11
173.889
21
-76.009
0
LINE
8
BLACK
6
CONTINUOUS
10
173.889
20
-76.009
11
173.901
21
-76.0211
0
LINE
8
BLACK
6
CONTINUOUS
10
173.901
20
-76.0211
11
173.938
21
-76.0606
0
LINE
8
BLACK
6
CONTINUOUS
10
173.938
20
-76.0606
11
173.94
21
-76.0629
0
LINE
8
BLACK
6
CONTINUOUS
10
173.94
20
-76.0629
11
173.992
21
-76.112
0
LINE
8
BLACK
6
CONTINUOUS
10
173.992
20
-76.112
11
173.994
21
-76.1141
0
LINE
8
BLACK
6
CONTINUOUS
10
173.994
20
-76.1141
11
174.048
21
-76.1604
0
LINE
8
BLACK
6
CONTINUOUS
10
174.048
20
-76.1604
11
174.051
21
-76.1624
0
LINE
8
BLACK
6
CONTINUOUS
10
174.051
20
-76.1624
11
174.106
21
-76.2058
0
LINE
8
BLACK
6
CONTINUOUS
10
174.106
20
-76.2058
11
174.109
21
-76.2077
0
LINE
8
BLACK
6
CONTINUOUS
10
174.109
20
-76.2077
11
174.167
21
-76.2482
0
LINE
8
BLACK
6
CONTINUOUS
10
174.167
20
-76.2482
11
174.169
21
-76.2499
0
LINE
8
BLACK
6
CONTINUOUS
10
174.169
20
-76.2499
11
174.229
21
-76.2875
0
LINE
8
BLACK
6
CONTINUOUS
10
174.229
20
-76.2875
11
174.231
21
-76.2891
0
LINE
8
BLACK
6
CONTINUOUS
10
174.231
20
-76.2891
11
174.292
21
-76.3237
0
LINE
8
BLACK
6
CONTINUOUS
10
174.292
20
-76.3237
11
174.295
21
-76.3251
0
LINE
8
BLACK
6
CONTINUOUS
10
174.295
20
-76.3251
11
174.358
21
-76.3566
0
LINE
8
BLACK
6
CONTINUOUS
10
174.358
20
-76.3566
11
174.36
21
-76.3579
0
LINE
8
BLACK
6
CONTINUOUS
10
174.36
20
-76.3579
11
174.425
21
-76.3863
0
LINE
8
BLACK
6
CONTINUOUS
10
174.425
20
-76.3863
11
174.427
21
-76.3875
0
LINE
8
BLACK
6
CONTINUOUS
10
174.427
20
-76.3875
11
174.493
21
-76.4127
0
LINE
8
BLACK
6
CONTINUOUS
10
174.493
20
-76.4127
11
174.496
21
-76.4138
0
LINE
8
BLACK
6
CONTINUOUS
10
174.496
20
-76.4138
11
174.562
21
-76.4358
0
LINE
8
BLACK
6
CONTINUOUS
10
174.562
20
-76.4358
11
174.565
21
-76.4367
0
LINE
8
BLACK
6
CONTINUOUS
10
174.565
20
-76.4367
11
174.633
21
-76.4555
0
LINE
8
BLACK
6
CONTINUOUS
10
174.633
20
-76.4555
11
174.636
21
-76.4562
0
LINE
8
BLACK
6
CONTINUOUS
10
174.636
20
-76.4562
11
174.704
21
-76.4717
0
LINE
8
BLACK
6
CONTINUOUS
10
174.704
20
-76.4717
11
174.708
21
-76.4723
0
LINE
8
BLACK
6
CONTINUOUS
10
174.708
20
-76.4723
11
174.777
21
-76.4844
0
LINE
8
BLACK
6
CONTINUOUS
10
174.777
20
-76.4844
11
174.78
21
-76.4849
0
LINE
8
BLACK
6
CONTINUOUS
10
174.78
20
-76.4849
11
174.786
21
-76.4857
0
LINE
8
BLACK
6
CONTINUOUS
10
174.786
20
-76.4857
11
174.85
21
-76.4936
0
LINE
8
BLACK
6
CONTINUOUS
10
174.85
20
-76.4936
11
174.853
21
-76.4939
0
LINE
8
BLACK
6
CONTINUOUS
10
174.853
20
-76.4939
11
174.924
21
-76.4992
0
LINE
8
BLACK
6
CONTINUOUS
10
174.924
20
-76.4992
11
174.927
21
-76.4993
0
LINE
8
BLACK
6
CONTINUOUS
10
174.927
20
-76.4993
11
174.991
21
-76.5009
0
LINE
8
BLACK
6
CONTINUOUS
10
174.991
20
-76.5009
11
174.991
21
-76.5009
0
LINE
8
BLACK
6
CONTINUOUS
10
174.991
20
-76.5009
11
175
21
-76.5011
0
LINE
8
BLACK
6
CONTINUOUS
10
175
20
-76.5011
11
175
21
-78.0011
0
LINE
8
BLACK
6
CONTINUOUS
10
175
20
-78.0011
11
174.851
21
-77.9974
0
LINE
8
BLACK
6
CONTINUOUS
10
174.851
20
-77.9974
11
174.703
21
-77.9864
0
LINE
8
BLACK
6
CONTINUOUS
10
174.703
20
-77.9864
11
174.557
21
-77.9682
0
LINE
8
BLACK
6
CONTINUOUS
10
174.557
20
-77.9682
11
174.412
21
-77.9429
0
LINE
8
BLACK
6
CONTINUOUS
10
174.412
20
-77.9429
11
174.299
21
-77.9174
0
LINE
8
BLACK
6
CONTINUOUS
10
174.299
20
-77.9174
11
174.278
21
-77.9126
0
LINE
8
BLACK
6
CONTINUOUS
10
174.278
20
-77.9126
11
174.278
21
-77.9126
0
LINE
8
BLACK
6
CONTINUOUS
10
174.278
20
-77.9126
11
174.269
21
-77.9106
0
LINE
8
BLACK
6
CONTINUOUS
10
174.269
20
-77.9106
11
174.127
21
-77.8714
0
LINE
8
BLACK
6
CONTINUOUS
10
174.127
20
-77.8714
11
173.988
21
-77.8254
0
LINE
8
BLACK
6
CONTINUOUS
10
173.988
20
-77.8254
11
173.852
21
-77.7728
0
LINE
8
BLACK
6
CONTINUOUS
10
173.852
20
-77.7728
11
173.718
21
-77.7135
0
LINE
8
BLACK
6
CONTINUOUS
10
173.718
20
-77.7135
11
173.587
21
-77.6477
0
LINE
8
BLACK
6
CONTINUOUS
10
173.587
20
-77.6477
11
173.46
21
-77.5755
0
LINE
8
BLACK
6
CONTINUOUS
10
173.46
20
-77.5755
11
173.336
21
-77.4971
0
LINE
8
BLACK
6
CONTINUOUS
10
173.336
20
-77.4971
11
173.215
21
-77.4124
0
LINE
8
BLACK
6
CONTINUOUS
10
173.215
20
-77.4124
11
173.099
21
-77.3217
0
LINE
8
BLACK
6
CONTINUOUS
10
173.099
20
-77.3217
11
172.986
21
-77.225
0
LINE
8
BLACK
6
CONTINUOUS
10
172.986
20
-77.225
11
172.979
21
-77.2176
0
LINE
8
BLACK
6
CONTINUOUS
10
172.979
20
-77.2176
11
172.885
21
-77.1287
0
LINE
8
BLACK
6
CONTINUOUS
10
172.885
20
-77.1287
11
172.879
21
-77.1224
0
LINE
8
BLACK
6
CONTINUOUS
10
172.879
20
-77.1224
11
172.872
21
-77.1152
0
LINE
8
BLACK
6
CONTINUOUS
10
172.872
20
-77.1152
11
172.872
21
-77.1152
0
LINE
8
BLACK
6
CONTINUOUS
10
172.872
20
-77.1152
11
172.782
21
-77.0212
0
LINE
8
BLACK
6
CONTINUOUS
10
172.782
20
-77.0212
11
172.776
21
-77.0146
0
LINE
8
BLACK
6
CONTINUOUS
10
172.776
20
-77.0146
11
172.77
21
-77.007
0
LINE
8
BLACK
6
CONTINUOUS
10
172.77
20
-77.007
11
172.685
21
-76.9093
0
LINE
8
BLACK
6
CONTINUOUS
10
172.685
20
-76.9093
11
172.685
21
-76.9093
0
LINE
8
BLACK
6
CONTINUOUS
10
172.685
20
-76.9093
11
172.679
21
-76.9024
0
LINE
8
BLACK
6
CONTINUOUS
10
172.679
20
-76.9024
11
172.589
21
-76.7859
0
LINE
8
BLACK
6
CONTINUOUS
10
172.589
20
-76.7859
11
172.563
21
-76.7494
0
LINE
8
BLACK
6
CONTINUOUS
10
172.563
20
-76.7494
11
172.509
21
-76.673
0
LINE
8
BLACK
6
CONTINUOUS
10
172.509
20
-76.673
11
172.509
21
-76.6729
0
LINE
8
BLACK
6
CONTINUOUS
10
172.509
20
-76.6729
11
172.504
21
-76.6655
0
LINE
8
BLACK
6
CONTINUOUS
10
172.504
20
-76.6655
11
172.498
21
-76.6567
0
LINE
8
BLACK
6
CONTINUOUS
10
172.498
20
-76.6567
11
172.43
21
-76.5491
0
LINE
8
BLACK
6
CONTINUOUS
10
172.43
20
-76.5491
11
172.43
21
-76.5491
0
LINE
8
BLACK
6
CONTINUOUS
10
172.43
20
-76.5491
11
172.426
21
-76.5414
0
LINE
8
BLACK
6
CONTINUOUS
10
172.426
20
-76.5414
11
172.402
21
-76.4992
0
LINE
8
BLACK
6
CONTINUOUS
10
172.402
20
-76.4992
11
172.358
21
-76.4217
0
LINE
8
BLACK
6
CONTINUOUS
10
172.358
20
-76.4217
11
172.358
21
-76.4217
0
LINE
8
BLACK
6
CONTINUOUS
10
172.358
20
-76.4217
11
172.353
21
-76.4138
0
LINE
8
BLACK
6
CONTINUOUS
10
172.353
20
-76.4138
11
172.349
21
-76.4049
0
LINE
8
BLACK
6
CONTINUOUS
10
172.349
20
-76.4049
11
172.349
21
-76.4049
0
LINE
8
BLACK
6
CONTINUOUS
10
172.349
20
-76.4049
11
172.292
21
-76.2911
0
LINE
8
BLACK
6
CONTINUOUS
10
172.292
20
-76.2911
11
172.288
21
-76.283
0
LINE
8
BLACK
6
CONTINUOUS
10
172.288
20
-76.283
11
172.284
21
-76.2738
0
LINE
8
BLACK
6
CONTINUOUS
10
172.284
20
-76.2738
11
172.232
21
-76.1575
0
LINE
8
BLACK
6
CONTINUOUS
10
172.232
20
-76.1575
11
172.232
21
-76.1575
0
LINE
8
BLACK
6
CONTINUOUS
10
172.232
20
-76.1575
11
172.228
21
-76.1492
0
LINE
8
BLACK
6
CONTINUOUS
10
172.228
20
-76.1492
11
172.214
21
-76.113
0
LINE
8
BLACK
6
CONTINUOUS
10
172.214
20
-76.113
11
172.179
21
-76.0211
0
LINE
8
BLACK
6
CONTINUOUS
10
172.179
20
-76.0211
11
172.176
21
-76.0126
0
LINE
8
BLACK
6
CONTINUOUS
10
172.176
20
-76.0126
11
172.172
21
-76.0029
0
LINE
8
BLACK
6
CONTINUOUS
10
172.172
20
-76.0029
11
172.133
21
-75.8822
0
LINE
8
BLACK
6
CONTINUOUS
10
172.133
20
-75.8822
11
172.133
21
-75.8822
0
LINE
8
BLACK
6
CONTINUOUS
10
172.133
20
-75.8822
11
172.13
21
-75.8736
0
LINE
8
BLACK
6
CONTINUOUS
10
172.13
20
-75.8736
11
172.127
21
-75.8638
0
LINE
8
BLACK
6
CONTINUOUS
10
172.127
20
-75.8638
11
172.093
21
-75.7411
0
LINE
8
BLACK
6
CONTINUOUS
10
172.093
20
-75.7411
11
172.093
21
-75.7411
0
LINE
8
BLACK
6
CONTINUOUS
10
172.093
20
-75.7411
11
172.09
21
-75.7324
0
LINE
8
BLACK
6
CONTINUOUS
10
172.09
20
-75.7324
11
172.088
21
-75.7226
0
LINE
8
BLACK
6
CONTINUOUS
10
172.088
20
-75.7226
11
172.088
21
-75.7226
0
LINE
8
BLACK
6
CONTINUOUS
10
172.088
20
-75.7226
11
172.06
21
-75.598
0
LINE
8
BLACK
6
CONTINUOUS
10
172.06
20
-75.598
11
172.06
21
-75.598
0
LINE
8
BLACK
6
CONTINUOUS
10
172.06
20
-75.598
11
172.058
21
-75.5891
0
LINE
8
BLACK
6
CONTINUOUS
10
172.058
20
-75.5891
11
172.044
21
-75.5083
0
LINE
8
BLACK
6
CONTINUOUS
10
172.044
20
-75.5083
11
172.034
21
-75.4531
0
LINE
8
BLACK
6
CONTINUOUS
10
172.034
20
-75.4531
11
172.034
21
-75.4531
0
LINE
8
BLACK
6
CONTINUOUS
10
172.034
20
-75.4531
11
172.033
21
-75.4441
0
LINE
8
BLACK
6
CONTINUOUS
10
172.033
20
-75.4441
11
172.032
21
-75.4342
0
LINE
8
BLACK
6
CONTINUOUS
10
172.032
20
-75.4342
11
172.032
21
-75.4342
0
LINE
8
BLACK
6
CONTINUOUS
10
172.032
20
-75.4342
11
172.016
21
-75.3066
0
LINE
8
BLACK
6
CONTINUOUS
10
172.016
20
-75.3066
11
172.016
21
-75.3066
0
LINE
8
BLACK
6
CONTINUOUS
10
172.016
20
-75.3066
11
172.015
21
-75.2976
0
LINE
8
BLACK
6
CONTINUOUS
10
172.015
20
-75.2976
11
172.014
21
-75.2876
0
LINE
8
BLACK
6
CONTINUOUS
10
172.014
20
-75.2876
11
172.014
21
-75.2876
0
LINE
8
BLACK
6
CONTINUOUS
10
172.014
20
-75.2876
11
172.004
21
-75.1589
0
LINE
8
BLACK
6
CONTINUOUS
10
172.004
20
-75.1589
11
172.004
21
-75.1589
0
LINE
8
BLACK
6
CONTINUOUS
10
172.004
20
-75.1589
11
172.004
21
-75.1499
0
LINE
8
BLACK
6
CONTINUOUS
10
172.004
20
-75.1499
11
172.003
21
-75.1399
0
LINE
8
BLACK
6
CONTINUOUS
10
172.003
20
-75.1399
11
172.003
21
-75.1399
0
LINE
8
BLACK
6
CONTINUOUS
10
172.003
20
-75.1399
11
172
21
-75.0102
0
LINE
8
BLACK
6
CONTINUOUS
10
172
20
-75.0102
11
172
21
-75.0102
0
LINE
8
BLACK
6
CONTINUOUS
10
172
20
-75.0102
11
172
21
-75.0011
0
LINE
8
BLACK
6
CONTINUOUS
10
172
20
-75.0011
11
173.5
21
-75.0011
0
LINE
8
BLACK
6
CONTINUOUS
10
173.5
20
-75.0011
11
173.5
21
-75.0194
0
LINE
8
BLACK
6
CONTINUOUS
10
127.996
20
-75.1488
11
127.985
21
-75.2965
0
LINE
8
BLACK
6
CONTINUOUS
10
127.985
20
-75.2965
11
127.967
21
-75.443
0
LINE
8
BLACK
6
CONTINUOUS
10
127.967
20
-75.443
11
127.942
21
-75.588
0
LINE
8
BLACK
6
CONTINUOUS
10
127.942
20
-75.588
11
127.91
21
-75.7313
0
LINE
8
BLACK
6
CONTINUOUS
10
127.91
20
-75.7313
11
127.87
21
-75.8725
0
LINE
8
BLACK
6
CONTINUOUS
10
127.87
20
-75.8725
11
127.824
21
-76.0115
0
LINE
8
BLACK
6
CONTINUOUS
10
127.824
20
-76.0115
11
127.772
21
-76.148
0
LINE
8
BLACK
6
CONTINUOUS
10
127.772
20
-76.148
11
127.712
21
-76.2818
0
LINE
8
BLACK
6
CONTINUOUS
10
127.712
20
-76.2818
11
127.647
21
-76.4127
0
LINE
8
BLACK
6
CONTINUOUS
10
127.647
20
-76.4127
11
127.595
21
-76.5041
0
LINE
8
BLACK
6
CONTINUOUS
10
127.595
20
-76.5041
11
127.586
21
-76.5194
0
LINE
8
BLACK
6
CONTINUOUS
10
127.586
20
-76.5194
11
127.574
21
-76.5403
0
LINE
8
BLACK
6
CONTINUOUS
10
127.574
20
-76.5403
11
127.496
21
-76.6644
0
LINE
8
BLACK
6
CONTINUOUS
10
127.496
20
-76.6644
11
127.411
21
-76.7848
0
LINE
8
BLACK
6
CONTINUOUS
10
127.411
20
-76.7848
11
127.321
21
-76.9013
0
LINE
8
BLACK
6
CONTINUOUS
10
127.321
20
-76.9013
11
127.224
21
-77.0135
0
LINE
8
BLACK
6
CONTINUOUS
10
127.224
20
-77.0135
11
127.121
21
-77.1213
0
LINE
8
BLACK
6
CONTINUOUS
10
127.121
20
-77.1213
11
127.014
21
-77.2239
0
LINE
8
BLACK
6
CONTINUOUS
10
127.014
20
-77.2239
11
126.901
21
-77.3206
0
LINE
8
BLACK
6
CONTINUOUS
10
126.901
20
-77.3206
11
126.785
21
-77.4113
0
LINE
8
BLACK
6
CONTINUOUS
10
126.785
20
-77.4113
11
126.664
21
-77.496
0
LINE
8
BLACK
6
CONTINUOUS
10
126.664
20
-77.496
11
126.54
21
-77.5744
0
LINE
8
BLACK
6
CONTINUOUS
10
126.54
20
-77.5744
11
126.413
21
-77.6466
0
LINE
8
BLACK
6
CONTINUOUS
10
126.413
20
-77.6466
11
126.282
21
-77.7124
0
LINE
8
BLACK
6
CONTINUOUS
10
126.282
20
-77.7124
11
126.148
21
-77.7716
0
LINE
8
BLACK
6
CONTINUOUS
10
126.148
20
-77.7716
11
126.012
21
-77.8243
0
LINE
8
BLACK
6
CONTINUOUS
10
126.012
20
-77.8243
11
125.873
21
-77.8703
0
LINE
8
BLACK
6
CONTINUOUS
10
125.873
20
-77.8703
11
125.731
21
-77.9095
0
LINE
8
BLACK
6
CONTINUOUS
10
125.731
20
-77.9095
11
125.588
21
-77.9418
0
LINE
8
BLACK
6
CONTINUOUS
10
125.588
20
-77.9418
11
125.443
21
-77.9671
0
LINE
8
BLACK
6
CONTINUOUS
10
125.443
20
-77.9671
11
125.297
21
-77.9853
0
LINE
8
BLACK
6
CONTINUOUS
10
125.297
20
-77.9853
11
125.149
21
-77.9963
0
LINE
8
BLACK
6
CONTINUOUS
10
125.149
20
-77.9963
11
125
21
-78
0
LINE
8
BLACK
6
CONTINUOUS
10
125
20
-78
11
125
21
-76.5
0
LINE
8
BLACK
6
CONTINUOUS
10
125
20
-76.5
11
125.018
21
-76.4995
0
LINE
8
BLACK
6
CONTINUOUS
10
125.018
20
-76.4995
11
125.018
21
-76.4995
0
LINE
8
BLACK
6
CONTINUOUS
10
125.018
20
-76.4995
11
125.073
21
-76.4982
0
LINE
8
BLACK
6
CONTINUOUS
10
125.073
20
-76.4982
11
125.076
21
-76.498
0
LINE
8
BLACK
6
CONTINUOUS
10
125.076
20
-76.498
11
125.147
21
-76.4928
0
LINE
8
BLACK
6
CONTINUOUS
10
125.147
20
-76.4928
11
125.15
21
-76.4925
0
LINE
8
BLACK
6
CONTINUOUS
10
125.15
20
-76.4925
11
125.22
21
-76.4838
0
LINE
8
BLACK
6
CONTINUOUS
10
125.22
20
-76.4838
11
125.223
21
-76.4833
0
LINE
8
BLACK
6
CONTINUOUS
10
125.223
20
-76.4833
11
125.292
21
-76.4712
0
LINE
8
BLACK
6
CONTINUOUS
10
125.292
20
-76.4712
11
125.296
21
-76.4706
0
LINE
8
BLACK
6
CONTINUOUS
10
125.296
20
-76.4706
11
125.364
21
-76.4551
0
LINE
8
BLACK
6
CONTINUOUS
10
125.364
20
-76.4551
11
125.367
21
-76.4543
0
LINE
8
BLACK
6
CONTINUOUS
10
125.367
20
-76.4543
11
125.435
21
-76.4356
0
LINE
8
BLACK
6
CONTINUOUS
10
125.435
20
-76.4356
11
125.438
21
-76.4347
0
LINE
8
BLACK
6
CONTINUOUS
10
125.438
20
-76.4347
11
125.504
21
-76.4126
0
LINE
8
BLACK
6
CONTINUOUS
10
125.504
20
-76.4126
11
125.507
21
-76.4116
0
LINE
8
BLACK
6
CONTINUOUS
10
125.507
20
-76.4116
11
125.573
21
-76.3864
0
LINE
8
BLACK
6
CONTINUOUS
10
125.573
20
-76.3864
11
125.575
21
-76.3852
0
LINE
8
BLACK
6
CONTINUOUS
10
125.575
20
-76.3852
11
125.64
21
-76.3568
0
LINE
8
BLACK
6
CONTINUOUS
10
125.64
20
-76.3568
11
125.642
21
-76.3555
0
LINE
8
BLACK
6
CONTINUOUS
10
125.642
20
-76.3555
11
125.705
21
-76.324
0
LINE
8
BLACK
6
CONTINUOUS
10
125.705
20
-76.324
11
125.708
21
-76.3225
0
LINE
8
BLACK
6
CONTINUOUS
10
125.708
20
-76.3225
11
125.769
21
-76.288
0
LINE
8
BLACK
6
CONTINUOUS
10
125.769
20
-76.288
11
125.771
21
-76.2864
0
LINE
8
BLACK
6
CONTINUOUS
10
125.771
20
-76.2864
11
125.831
21
-76.2488
0
LINE
8
BLACK
6
CONTINUOUS
10
125.831
20
-76.2488
11
125.833
21
-76.2471
0
LINE
8
BLACK
6
CONTINUOUS
10
125.833
20
-76.2471
11
125.891
21
-76.2066
0
LINE
8
BLACK
6
CONTINUOUS
10
125.891
20
-76.2066
11
125.894
21
-76.2047
0
LINE
8
BLACK
6
CONTINUOUS
10
125.894
20
-76.2047
11
125.949
21
-76.1613
0
LINE
8
BLACK
6
CONTINUOUS
10
125.949
20
-76.1613
11
125.952
21
-76.1593
0
LINE
8
BLACK
6
CONTINUOUS
10
125.952
20
-76.1593
11
126.006
21
-76.113
0
LINE
8
BLACK
6
CONTINUOUS
10
126.006
20
-76.113
11
126.008
21
-76.1109
0
LINE
8
BLACK
6
CONTINUOUS
10
126.008
20
-76.1109
11
126.06
21
-76.0617
0
LINE
8
BLACK
6
CONTINUOUS
10
126.06
20
-76.0617
11
126.062
21
-76.0595
0
LINE
8
BLACK
6
CONTINUOUS
10
126.062
20
-76.0595
11
126.111
21
-76.0079
0
LINE
8
BLACK
6
CONTINUOUS
10
126.111
20
-76.0079
11
126.113
21
-76.0056
0
LINE
8
BLACK
6
CONTINUOUS
10
126.113
20
-76.0056
11
126.159
21
-75.9518
0
LINE
8
BLACK
6
CONTINUOUS
10
126.159
20
-75.9518
11
126.161
21
-75.9494
0
LINE
8
BLACK
6
CONTINUOUS
10
126.161
20
-75.9494
11
126.205
21
-75.8936
0
LINE
8
BLACK
6
CONTINUOUS
10
126.205
20
-75.8936
11
126.207
21
-75.8911
0
LINE
8
BLACK
6
CONTINUOUS
10
126.207
20
-75.8911
11
126.247
21
-75.8335
0
LINE
8
BLACK
6
CONTINUOUS
10
126.247
20
-75.8335
11
126.249
21
-75.8309
0
LINE
8
BLACK
6
CONTINUOUS
10
126.249
20
-75.8309
11
126.286
21
-75.7715
0
LINE
8
BLACK
6
CONTINUOUS
10
126.286
20
-75.7715
11
126.288
21
-75.7688
0
LINE
8
BLACK
6
CONTINUOUS
10
126.288
20
-75.7688
11
126.323
21
-75.7077
0
LINE
8
BLACK
6
CONTINUOUS
10
126.323
20
-75.7077
11
126.324
21
-75.7049
0
LINE
8
BLACK
6
CONTINUOUS
10
126.324
20
-75.7049
11
126.355
21
-75.6423
0
LINE
8
BLACK
6
CONTINUOUS
10
126.355
20
-75.6423
11
126.357
21
-75.6395
0
LINE
8
BLACK
6
CONTINUOUS
10
126.357
20
-75.6395
11
126.385
21
-75.5754
0
LINE
8
BLACK
6
CONTINUOUS
10
126.385
20
-75.5754
11
126.386
21
-75.5726
0
LINE
8
BLACK
6
CONTINUOUS
10
126.386
20
-75.5726
11
126.412
21
-75.5072
0
LINE
8
BLACK
6
CONTINUOUS
10
126.412
20
-75.5072
11
126.413
21
-75.5043
0
LINE
8
BLACK
6
CONTINUOUS
10
126.413
20
-75.5043
11
126.435
21
-75.4377
0
LINE
8
BLACK
6
CONTINUOUS
10
126.435
20
-75.4377
11
126.436
21
-75.4348
0
LINE
8
BLACK
6
CONTINUOUS
10
126.436
20
-75.4348
11
126.454
21
-75.3671
0
LINE
8
BLACK
6
CONTINUOUS
10
126.454
20
-75.3671
11
126.455
21
-75.3641
0
LINE
8
BLACK
6
CONTINUOUS
10
126.455
20
-75.3641
11
126.471
21
-75.2955
0
LINE
8
BLACK
6
CONTINUOUS
10
126.471
20
-75.2955
11
126.471
21
-75.2925
0
LINE
8
BLACK
6
CONTINUOUS
10
126.471
20
-75.2925
11
126.483
21
-75.223
0
LINE
8
BLACK
6
CONTINUOUS
10
126.483
20
-75.223
11
126.484
21
-75.22
0
LINE
8
BLACK
6
CONTINUOUS
10
126.484
20
-75.22
11
126.492
21
-75.1498
0
LINE
8
BLACK
6
CONTINUOUS
10
126.492
20
-75.1498
11
126.493
21
-75.1467
0
LINE
8
BLACK
6
CONTINUOUS
10
126.493
20
-75.1467
11
126.498
21
-75.0759
0
LINE
8
BLACK
6
CONTINUOUS
10
126.498
20
-75.0759
11
126.498
21
-75.0728
0
LINE
8
BLACK
6
CONTINUOUS
10
126.498
20
-75.0728
11
126.5
21
-75.0091
0
LINE
8
BLACK
6
CONTINUOUS
10
126.5
20
-75.0091
11
126.5
21
-75.0091
0
LINE
8
BLACK
6
CONTINUOUS
10
126.5
20
-75.0091
11
126.5
21
-75
0
LINE
8
BLACK
6
CONTINUOUS
10
126.5
20
-75
11
128
21
-75
0
LINE
8
BLACK
6
CONTINUOUS
10
128
20
-75
11
127.996
21
-75.1488
  0
ENDSEC
  0
EOF
