  0
SECTION
  2
HEADER
  9
$ANGBASE
  50
0.0
  9
$ANGDIR
  70
1
  9
$MEASUREMENT
  70
1
  0
ENDSEC
  0
SECTION
  2
TABLES
  0
TABLE
  2
LTYPE
  70
4
  0
LTYPE
  5
40F
  2
CONTINUOUS
  70
0
  3
Solid line
  72
65
  73
0
  40
0.0
  0
LTYPE
  5
410
  2
DASHDOT
 70
0
  3
Dash Dot ____ _ ____ _
 72
65
 73
4
 40
2.0
 49
1.25
 49
-0.25
 49
0.25
 49
-0.25
  0
LTYPE
  5
411
  2
DASHED
 70
0
  3
Dashed __ __ __ __ __
 72
65
 73
2
 40
0.75
 49
0.5
 49
-0.25
  0
LTYPE
  5
43B
  2
DOTTED
 70
0
  3
Dotted .  .  .  .
 72
65
 73
2
 40
0.2
 49
0.0
 49
-0.2
  0
ENDTAB
  0
TABLE
  2
STYLE
  70
4
  0
STYLE
  2
KICAD
  70
0
  40
0
  41
1
  42
1
  50
0
  71
0
  3
isocp.shx
  0
STYLE
  2
KICADB
  70
0
  40
0
  41
1
  42
1
  50
0
  71
0
  3
isocp.shx
  0
STYLE
  2
KICADI
  70
0
  40
0
  41
1
  42
1
  50
15
  71
0
  3
isocp.shx
  0
STYLE
  2
KICADBI
  70
0
  40
0
  41
1
  42
1
  50
15
  71
0
  3
isocp.shx
  0
ENDTAB
  0
TABLE
  2
LAYER
  70
1
  0
LAYER
  2
BLACK
  70
0
  62
7
  6
CONTINUOUS
  0
ENDTAB
  0
ENDSEC
  0
SECTION
  2
ENTITIES
0
LINE
8
BLACK
6
CONTINUOUS
10
149.039
20
-100.335
11
149.062
21
-100.338
0
LINE
8
BLACK
6
CONTINUOUS
10
149.062
20
-100.338
11
149.182
21
-100.398
0
LINE
8
BLACK
6
CONTINUOUS
10
149.182
20
-100.398
11
149.194
21
-100.409
0
LINE
8
BLACK
6
CONTINUOUS
10
149.194
20
-100.409
11
149.208
21
-100.417
0
LINE
8
BLACK
6
CONTINUOUS
10
149.208
20
-100.417
11
149.328
21
-100.537
0
LINE
8
BLACK
6
CONTINUOUS
10
149.328
20
-100.537
11
149.339
21
-100.557
0
LINE
8
BLACK
6
CONTINUOUS
10
149.339
20
-100.557
11
149.352
21
-100.576
0
LINE
8
BLACK
6
CONTINUOUS
10
149.352
20
-100.576
11
149.413
21
-100.757
0
LINE
8
BLACK
6
CONTINUOUS
10
149.413
20
-100.757
11
149.413
21
-100.773
0
LINE
8
BLACK
6
CONTINUOUS
10
149.413
20
-100.773
11
149.418
21
-100.789
0
LINE
8
BLACK
6
CONTINUOUS
10
149.418
20
-100.789
11
149.418
21
-100.909
0
LINE
8
BLACK
6
CONTINUOUS
10
149.418
20
-100.909
11
149.413
21
-100.924
0
LINE
8
BLACK
6
CONTINUOUS
10
149.413
20
-100.924
11
149.413
21
-100.94
0
LINE
8
BLACK
6
CONTINUOUS
10
149.413
20
-100.94
11
149.352
21
-101.121
0
LINE
8
BLACK
6
CONTINUOUS
10
149.352
20
-101.121
11
149.339
21
-101.14
0
LINE
8
BLACK
6
CONTINUOUS
10
149.339
20
-101.14
11
149.328
21
-101.16
0
LINE
8
BLACK
6
CONTINUOUS
10
149.328
20
-101.16
11
149.208
21
-101.28
0
LINE
8
BLACK
6
CONTINUOUS
10
149.208
20
-101.28
11
149.194
21
-101.288
0
LINE
8
BLACK
6
CONTINUOUS
10
149.194
20
-101.288
11
149.182
21
-101.299
0
LINE
8
BLACK
6
CONTINUOUS
10
149.182
20
-101.299
11
149.062
21
-101.359
0
LINE
8
BLACK
6
CONTINUOUS
10
149.062
20
-101.359
11
149.039
21
-101.362
0
LINE
8
BLACK
6
CONTINUOUS
10
149.039
20
-101.362
11
149.017
21
-101.37
0
LINE
8
BLACK
6
CONTINUOUS
10
149.017
20
-101.37
11
148.836
21
-101.37
0
LINE
8
BLACK
6
CONTINUOUS
10
148.836
20
-101.37
11
148.815
21
-101.362
0
LINE
8
BLACK
6
CONTINUOUS
10
148.815
20
-101.362
11
148.792
21
-101.359
0
LINE
8
BLACK
6
CONTINUOUS
10
148.792
20
-101.359
11
148.672
21
-101.299
0
LINE
8
BLACK
6
CONTINUOUS
10
148.672
20
-101.299
11
148.66
21
-101.288
0
LINE
8
BLACK
6
CONTINUOUS
10
148.66
20
-101.288
11
148.646
21
-101.28
0
LINE
8
BLACK
6
CONTINUOUS
10
148.646
20
-101.28
11
148.526
21
-101.16
0
LINE
8
BLACK
6
CONTINUOUS
10
148.526
20
-101.16
11
148.515
21
-101.14
0
LINE
8
BLACK
6
CONTINUOUS
10
148.515
20
-101.14
11
148.502
21
-101.121
0
LINE
8
BLACK
6
CONTINUOUS
10
148.502
20
-101.121
11
148.441
21
-100.94
0
LINE
8
BLACK
6
CONTINUOUS
10
148.441
20
-100.94
11
148.441
21
-100.924
0
LINE
8
BLACK
6
CONTINUOUS
10
148.441
20
-100.924
11
148.435
21
-100.909
0
LINE
8
BLACK
6
CONTINUOUS
10
148.435
20
-100.909
11
148.435
21
-100.789
0
LINE
8
BLACK
6
CONTINUOUS
10
148.435
20
-100.789
11
148.441
21
-100.773
0
LINE
8
BLACK
6
CONTINUOUS
10
148.441
20
-100.773
11
148.441
21
-100.757
0
LINE
8
BLACK
6
CONTINUOUS
10
148.441
20
-100.757
11
148.502
21
-100.576
0
LINE
8
BLACK
6
CONTINUOUS
10
148.502
20
-100.576
11
148.515
21
-100.557
0
LINE
8
BLACK
6
CONTINUOUS
10
148.515
20
-100.557
11
148.526
21
-100.537
0
LINE
8
BLACK
6
CONTINUOUS
10
148.526
20
-100.537
11
148.646
21
-100.417
0
LINE
8
BLACK
6
CONTINUOUS
10
148.646
20
-100.417
11
148.66
21
-100.409
0
LINE
8
BLACK
6
CONTINUOUS
10
148.66
20
-100.409
11
148.672
21
-100.398
0
LINE
8
BLACK
6
CONTINUOUS
10
148.672
20
-100.398
11
148.792
21
-100.338
0
LINE
8
BLACK
6
CONTINUOUS
10
148.792
20
-100.338
11
148.815
21
-100.335
0
LINE
8
BLACK
6
CONTINUOUS
10
148.815
20
-100.335
11
148.836
21
-100.328
0
LINE
8
BLACK
6
CONTINUOUS
10
148.836
20
-100.328
11
149.017
21
-100.328
0
LINE
8
BLACK
6
CONTINUOUS
10
149.017
20
-100.328
11
149.039
21
-100.335
0
LINE
8
BLACK
6
CONTINUOUS
10
148.86
20
-100.528
11
148.776
21
-100.57
0
LINE
8
BLACK
6
CONTINUOUS
10
148.776
20
-100.57
11
148.684
21
-100.662
0
LINE
8
BLACK
6
CONTINUOUS
10
148.684
20
-100.662
11
148.635
21
-100.805
0
LINE
8
BLACK
6
CONTINUOUS
10
148.635
20
-100.805
11
148.635
21
-100.892
0
LINE
8
BLACK
6
CONTINUOUS
10
148.635
20
-100.892
11
148.684
21
-101.035
0
LINE
8
BLACK
6
CONTINUOUS
10
148.684
20
-101.035
11
148.776
21
-101.127
0
LINE
8
BLACK
6
CONTINUOUS
10
148.776
20
-101.127
11
148.86
21
-101.17
0
LINE
8
BLACK
6
CONTINUOUS
10
148.86
20
-101.17
11
148.994
21
-101.17
0
LINE
8
BLACK
6
CONTINUOUS
10
148.994
20
-101.17
11
149.078
21
-101.127
0
LINE
8
BLACK
6
CONTINUOUS
10
149.078
20
-101.127
11
149.17
21
-101.035
0
LINE
8
BLACK
6
CONTINUOUS
10
149.17
20
-101.035
11
149.218
21
-100.892
0
LINE
8
BLACK
6
CONTINUOUS
10
149.218
20
-100.892
11
149.218
21
-100.805
0
LINE
8
BLACK
6
CONTINUOUS
10
149.218
20
-100.805
11
149.17
21
-100.662
0
LINE
8
BLACK
6
CONTINUOUS
10
149.17
20
-100.662
11
149.078
21
-100.57
0
LINE
8
BLACK
6
CONTINUOUS
10
149.078
20
-100.57
11
148.994
21
-100.528
0
LINE
8
BLACK
6
CONTINUOUS
10
148.994
20
-100.528
11
148.86
21
-100.528
0
LINE
8
BLACK
6
CONTINUOUS
10
150.116
20
-100.333
11
150.132
21
-100.333
0
LINE
8
BLACK
6
CONTINUOUS
10
150.132
20
-100.333
11
150.312
21
-100.393
0
LINE
8
BLACK
6
CONTINUOUS
10
150.312
20
-100.393
11
150.318
21
-100.397
0
LINE
8
BLACK
6
CONTINUOUS
10
150.318
20
-100.397
11
150.326
21
-100.398
0
LINE
8
BLACK
6
CONTINUOUS
10
150.326
20
-100.398
11
150.343
21
-100.415
0
LINE
8
BLACK
6
CONTINUOUS
10
150.343
20
-100.415
11
150.362
21
-100.429
0
LINE
8
BLACK
6
CONTINUOUS
10
150.362
20
-100.429
11
150.364
21
-100.437
0
LINE
8
BLACK
6
CONTINUOUS
10
150.364
20
-100.437
11
150.37
21
-100.442
0
LINE
8
BLACK
6
CONTINUOUS
10
150.37
20
-100.442
11
150.431
21
-100.562
0
LINE
8
BLACK
6
CONTINUOUS
10
150.431
20
-100.562
11
150.44
21
-100.623
0
LINE
8
BLACK
6
CONTINUOUS
10
150.44
20
-100.623
11
150.412
21
-100.678
0
LINE
8
BLACK
6
CONTINUOUS
10
150.412
20
-100.678
11
150.357
21
-100.706
0
LINE
8
BLACK
6
CONTINUOUS
10
150.357
20
-100.706
11
150.296
21
-100.697
0
LINE
8
BLACK
6
CONTINUOUS
10
150.296
20
-100.697
11
150.252
21
-100.653
0
LINE
8
BLACK
6
CONTINUOUS
10
150.252
20
-100.653
11
150.21
21
-100.569
0
LINE
8
BLACK
6
CONTINUOUS
10
150.21
20
-100.569
11
150.084
21
-100.528
0
LINE
8
BLACK
6
CONTINUOUS
10
150.084
20
-100.528
11
149.936
21
-100.528
0
LINE
8
BLACK
6
CONTINUOUS
10
149.936
20
-100.528
11
149.81
21
-100.569
0
LINE
8
BLACK
6
CONTINUOUS
10
149.81
20
-100.569
11
149.791
21
-100.608
0
LINE
8
BLACK
6
CONTINUOUS
10
149.791
20
-100.608
11
149.814
21
-100.654
0
LINE
8
BLACK
6
CONTINUOUS
10
149.814
20
-100.654
11
149.892
21
-100.693
0
LINE
8
BLACK
6
CONTINUOUS
10
149.892
20
-100.693
11
150.18
21
-100.75
0
LINE
8
BLACK
6
CONTINUOUS
10
150.18
20
-100.75
11
150.192
21
-100.757
0
LINE
8
BLACK
6
CONTINUOUS
10
150.192
20
-100.757
11
150.205
21
-100.759
0
LINE
8
BLACK
6
CONTINUOUS
10
150.205
20
-100.759
11
150.325
21
-100.819
0
LINE
8
BLACK
6
CONTINUOUS
10
150.325
20
-100.819
11
150.326
21
-100.82
0
LINE
8
BLACK
6
CONTINUOUS
10
150.326
20
-100.82
11
150.326
21
-100.82
0
LINE
8
BLACK
6
CONTINUOUS
10
150.326
20
-100.82
11
150.348
21
-100.841
0
LINE
8
BLACK
6
CONTINUOUS
10
150.348
20
-100.841
11
150.369
21
-100.862
0
LINE
8
BLACK
6
CONTINUOUS
10
150.369
20
-100.862
11
150.369
21
-100.863
0
LINE
8
BLACK
6
CONTINUOUS
10
150.369
20
-100.863
11
150.37
21
-100.864
0
LINE
8
BLACK
6
CONTINUOUS
10
150.37
20
-100.864
11
150.431
21
-100.985
0
LINE
8
BLACK
6
CONTINUOUS
10
150.431
20
-100.985
11
150.434
21
-101.007
0
LINE
8
BLACK
6
CONTINUOUS
10
150.434
20
-101.007
11
150.441
21
-101.03
0
LINE
8
BLACK
6
CONTINUOUS
10
150.441
20
-101.03
11
150.441
21
-101.09
0
LINE
8
BLACK
6
CONTINUOUS
10
150.441
20
-101.09
11
150.434
21
-101.112
0
LINE
8
BLACK
6
CONTINUOUS
10
150.434
20
-101.112
11
150.431
21
-101.135
0
LINE
8
BLACK
6
CONTINUOUS
10
150.431
20
-101.135
11
150.37
21
-101.255
0
LINE
8
BLACK
6
CONTINUOUS
10
150.37
20
-101.255
11
150.364
21
-101.26
0
LINE
8
BLACK
6
CONTINUOUS
10
150.364
20
-101.26
11
150.362
21
-101.268
0
LINE
8
BLACK
6
CONTINUOUS
10
150.362
20
-101.268
11
150.343
21
-101.282
0
LINE
8
BLACK
6
CONTINUOUS
10
150.343
20
-101.282
11
150.326
21
-101.299
0
LINE
8
BLACK
6
CONTINUOUS
10
150.326
20
-101.299
11
150.318
21
-101.3
0
LINE
8
BLACK
6
CONTINUOUS
10
150.318
20
-101.3
11
150.312
21
-101.304
0
LINE
8
BLACK
6
CONTINUOUS
10
150.312
20
-101.304
11
150.132
21
-101.364
0
LINE
8
BLACK
6
CONTINUOUS
10
150.132
20
-101.364
11
150.116
21
-101.365
0
LINE
8
BLACK
6
CONTINUOUS
10
150.116
20
-101.365
11
150.1
21
-101.37
0
LINE
8
BLACK
6
CONTINUOUS
10
150.1
20
-101.37
11
149.919
21
-101.37
0
LINE
8
BLACK
6
CONTINUOUS
10
149.919
20
-101.37
11
149.904
21
-101.365
0
LINE
8
BLACK
6
CONTINUOUS
10
149.904
20
-101.365
11
149.888
21
-101.364
0
LINE
8
BLACK
6
CONTINUOUS
10
149.888
20
-101.364
11
149.708
21
-101.304
0
LINE
8
BLACK
6
CONTINUOUS
10
149.708
20
-101.304
11
149.701
21
-101.3
0
LINE
8
BLACK
6
CONTINUOUS
10
149.701
20
-101.3
11
149.693
21
-101.298
0
LINE
8
BLACK
6
CONTINUOUS
10
149.693
20
-101.298
11
149.677
21
-101.282
0
LINE
8
BLACK
6
CONTINUOUS
10
149.677
20
-101.282
11
149.658
21
-101.268
0
LINE
8
BLACK
6
CONTINUOUS
10
149.658
20
-101.268
11
149.656
21
-101.26
0
LINE
8
BLACK
6
CONTINUOUS
10
149.656
20
-101.26
11
149.65
21
-101.254
0
LINE
8
BLACK
6
CONTINUOUS
10
149.65
20
-101.254
11
149.59
21
-101.134
0
LINE
8
BLACK
6
CONTINUOUS
10
149.59
20
-101.134
11
149.581
21
-101.073
0
LINE
8
BLACK
6
CONTINUOUS
10
149.581
20
-101.073
11
149.609
21
-101.018
0
LINE
8
BLACK
6
CONTINUOUS
10
149.609
20
-101.018
11
149.665
21
-100.991
0
LINE
8
BLACK
6
CONTINUOUS
10
149.665
20
-100.991
11
149.726
21
-101.001
0
LINE
8
BLACK
6
CONTINUOUS
10
149.726
20
-101.001
11
149.769
21
-101.045
0
LINE
8
BLACK
6
CONTINUOUS
10
149.769
20
-101.045
11
149.81
21
-101.128
0
LINE
8
BLACK
6
CONTINUOUS
10
149.81
20
-101.128
11
149.936
21
-101.17
0
LINE
8
BLACK
6
CONTINUOUS
10
149.936
20
-101.17
11
150.084
21
-101.17
0
LINE
8
BLACK
6
CONTINUOUS
10
150.084
20
-101.17
11
150.21
21
-101.128
0
LINE
8
BLACK
6
CONTINUOUS
10
150.21
20
-101.128
11
150.241
21
-101.066
0
LINE
8
BLACK
6
CONTINUOUS
10
150.241
20
-101.066
11
150.241
21
-101.053
0
LINE
8
BLACK
6
CONTINUOUS
10
150.241
20
-101.053
11
150.206
21
-100.983
0
LINE
8
BLACK
6
CONTINUOUS
10
150.206
20
-100.983
11
150.128
21
-100.944
0
LINE
8
BLACK
6
CONTINUOUS
10
150.128
20
-100.944
11
149.84
21
-100.887
0
LINE
8
BLACK
6
CONTINUOUS
10
149.84
20
-100.887
11
149.828
21
-100.88
0
LINE
8
BLACK
6
CONTINUOUS
10
149.828
20
-100.88
11
149.815
21
-100.878
0
LINE
8
BLACK
6
CONTINUOUS
10
149.815
20
-100.878
11
149.695
21
-100.818
0
LINE
8
BLACK
6
CONTINUOUS
10
149.695
20
-100.818
11
149.694
21
-100.817
0
LINE
8
BLACK
6
CONTINUOUS
10
149.694
20
-100.817
11
149.693
21
-100.817
0
LINE
8
BLACK
6
CONTINUOUS
10
149.693
20
-100.817
11
149.672
21
-100.796
0
LINE
8
BLACK
6
CONTINUOUS
10
149.672
20
-100.796
11
149.651
21
-100.775
0
LINE
8
BLACK
6
CONTINUOUS
10
149.651
20
-100.775
11
149.651
21
-100.774
0
LINE
8
BLACK
6
CONTINUOUS
10
149.651
20
-100.774
11
149.65
21
-100.773
0
LINE
8
BLACK
6
CONTINUOUS
10
149.65
20
-100.773
11
149.59
21
-100.652
0
LINE
8
BLACK
6
CONTINUOUS
10
149.59
20
-100.652
11
149.588
21
-100.637
0
LINE
8
BLACK
6
CONTINUOUS
10
149.588
20
-100.637
11
149.581
21
-100.624
0
LINE
8
BLACK
6
CONTINUOUS
10
149.581
20
-100.624
11
149.583
21
-100.607
0
LINE
8
BLACK
6
CONTINUOUS
10
149.583
20
-100.607
11
149.581
21
-100.591
0
LINE
8
BLACK
6
CONTINUOUS
10
149.581
20
-100.591
11
149.588
21
-100.578
0
LINE
8
BLACK
6
CONTINUOUS
10
149.588
20
-100.578
11
149.59
21
-100.563
0
LINE
8
BLACK
6
CONTINUOUS
10
149.59
20
-100.563
11
149.65
21
-100.443
0
LINE
8
BLACK
6
CONTINUOUS
10
149.65
20
-100.443
11
149.656
21
-100.437
0
LINE
8
BLACK
6
CONTINUOUS
10
149.656
20
-100.437
11
149.658
21
-100.429
0
LINE
8
BLACK
6
CONTINUOUS
10
149.658
20
-100.429
11
149.677
21
-100.415
0
LINE
8
BLACK
6
CONTINUOUS
10
149.677
20
-100.415
11
149.693
21
-100.399
0
LINE
8
BLACK
6
CONTINUOUS
10
149.693
20
-100.399
11
149.701
21
-100.397
0
LINE
8
BLACK
6
CONTINUOUS
10
149.701
20
-100.397
11
149.708
21
-100.393
0
LINE
8
BLACK
6
CONTINUOUS
10
149.708
20
-100.393
11
149.888
21
-100.333
0
LINE
8
BLACK
6
CONTINUOUS
10
149.888
20
-100.333
11
149.904
21
-100.333
0
LINE
8
BLACK
6
CONTINUOUS
10
149.904
20
-100.333
11
149.919
21
-100.328
0
LINE
8
BLACK
6
CONTINUOUS
10
149.919
20
-100.328
11
150.1
21
-100.328
0
LINE
8
BLACK
6
CONTINUOUS
10
150.1
20
-100.328
11
150.116
21
-100.333
0
LINE
8
BLACK
6
CONTINUOUS
10
151.205
20
-100.335
11
151.228
21
-100.338
0
LINE
8
BLACK
6
CONTINUOUS
10
151.228
20
-100.338
11
151.336
21
-100.392
0
LINE
8
BLACK
6
CONTINUOUS
10
151.336
20
-100.392
11
151.344
21
-100.369
0
LINE
8
BLACK
6
CONTINUOUS
10
151.344
20
-100.369
11
151.394
21
-100.332
0
LINE
8
BLACK
6
CONTINUOUS
10
151.394
20
-100.332
11
151.455
21
-100.332
0
LINE
8
BLACK
6
CONTINUOUS
10
151.455
20
-100.332
11
151.505
21
-100.369
0
LINE
8
BLACK
6
CONTINUOUS
10
151.505
20
-100.369
11
151.524
21
-100.428
0
LINE
8
BLACK
6
CONTINUOUS
10
151.524
20
-100.428
11
151.524
21
-100.608
0
LINE
8
BLACK
6
CONTINUOUS
10
151.524
20
-100.608
11
151.524
21
-100.608
0
LINE
8
BLACK
6
CONTINUOUS
10
151.524
20
-100.608
11
151.524
21
-101.09
0
LINE
8
BLACK
6
CONTINUOUS
10
151.524
20
-101.09
11
151.524
21
-101.27
0
LINE
8
BLACK
6
CONTINUOUS
10
151.524
20
-101.27
11
151.505
21
-101.328
0
LINE
8
BLACK
6
CONTINUOUS
10
151.505
20
-101.328
11
151.455
21
-101.365
0
LINE
8
BLACK
6
CONTINUOUS
10
151.455
20
-101.365
11
151.394
21
-101.365
0
LINE
8
BLACK
6
CONTINUOUS
10
151.394
20
-101.365
11
151.344
21
-101.328
0
LINE
8
BLACK
6
CONTINUOUS
10
151.344
20
-101.328
11
151.336
21
-101.305
0
LINE
8
BLACK
6
CONTINUOUS
10
151.336
20
-101.305
11
151.228
21
-101.359
0
LINE
8
BLACK
6
CONTINUOUS
10
151.228
20
-101.359
11
151.205
21
-101.362
0
LINE
8
BLACK
6
CONTINUOUS
10
151.205
20
-101.362
11
151.183
21
-101.37
0
LINE
8
BLACK
6
CONTINUOUS
10
151.183
20
-101.37
11
151.003
21
-101.37
0
LINE
8
BLACK
6
CONTINUOUS
10
151.003
20
-101.37
11
150.982
21
-101.362
0
LINE
8
BLACK
6
CONTINUOUS
10
150.982
20
-101.362
11
150.959
21
-101.359
0
LINE
8
BLACK
6
CONTINUOUS
10
150.959
20
-101.359
11
150.838
21
-101.299
0
LINE
8
BLACK
6
CONTINUOUS
10
150.838
20
-101.299
11
150.826
21
-101.288
0
LINE
8
BLACK
6
CONTINUOUS
10
150.826
20
-101.288
11
150.812
21
-101.28
0
LINE
8
BLACK
6
CONTINUOUS
10
150.812
20
-101.28
11
150.692
21
-101.16
0
LINE
8
BLACK
6
CONTINUOUS
10
150.692
20
-101.16
11
150.681
21
-101.14
0
LINE
8
BLACK
6
CONTINUOUS
10
150.681
20
-101.14
11
150.668
21
-101.121
0
LINE
8
BLACK
6
CONTINUOUS
10
150.668
20
-101.121
11
150.608
21
-100.94
0
LINE
8
BLACK
6
CONTINUOUS
10
150.608
20
-100.94
11
150.607
21
-100.924
0
LINE
8
BLACK
6
CONTINUOUS
10
150.607
20
-100.924
11
150.602
21
-100.909
0
LINE
8
BLACK
6
CONTINUOUS
10
150.602
20
-100.909
11
150.602
21
-100.789
0
LINE
8
BLACK
6
CONTINUOUS
10
150.602
20
-100.789
11
150.607
21
-100.773
0
LINE
8
BLACK
6
CONTINUOUS
10
150.607
20
-100.773
11
150.608
21
-100.757
0
LINE
8
BLACK
6
CONTINUOUS
10
150.608
20
-100.757
11
150.668
21
-100.576
0
LINE
8
BLACK
6
CONTINUOUS
10
150.668
20
-100.576
11
150.681
21
-100.557
0
LINE
8
BLACK
6
CONTINUOUS
10
150.681
20
-100.557
11
150.692
21
-100.537
0
LINE
8
BLACK
6
CONTINUOUS
10
150.692
20
-100.537
11
150.812
21
-100.417
0
LINE
8
BLACK
6
CONTINUOUS
10
150.812
20
-100.417
11
150.826
21
-100.409
0
LINE
8
BLACK
6
CONTINUOUS
10
150.826
20
-100.409
11
150.838
21
-100.398
0
LINE
8
BLACK
6
CONTINUOUS
10
150.838
20
-100.398
11
150.959
21
-100.338
0
LINE
8
BLACK
6
CONTINUOUS
10
150.959
20
-100.338
11
150.982
21
-100.335
0
LINE
8
BLACK
6
CONTINUOUS
10
150.982
20
-100.335
11
151.003
21
-100.328
0
LINE
8
BLACK
6
CONTINUOUS
10
151.003
20
-100.328
11
151.183
21
-100.328
0
LINE
8
BLACK
6
CONTINUOUS
10
151.183
20
-100.328
11
151.205
21
-100.335
0
LINE
8
BLACK
6
CONTINUOUS
10
151.027
20
-100.528
11
150.942
21
-100.57
0
LINE
8
BLACK
6
CONTINUOUS
10
150.942
20
-100.57
11
150.85
21
-100.662
0
LINE
8
BLACK
6
CONTINUOUS
10
150.85
20
-100.662
11
150.802
21
-100.805
0
LINE
8
BLACK
6
CONTINUOUS
10
150.802
20
-100.805
11
150.802
21
-100.892
0
LINE
8
BLACK
6
CONTINUOUS
10
150.802
20
-100.892
11
150.85
21
-101.036
0
LINE
8
BLACK
6
CONTINUOUS
10
150.85
20
-101.036
11
150.942
21
-101.127
0
LINE
8
BLACK
6
CONTINUOUS
10
150.942
20
-101.127
11
151.027
21
-101.17
0
LINE
8
BLACK
6
CONTINUOUS
10
151.027
20
-101.17
11
151.16
21
-101.17
0
LINE
8
BLACK
6
CONTINUOUS
10
151.16
20
-101.17
11
151.245
21
-101.127
0
LINE
8
BLACK
6
CONTINUOUS
10
151.245
20
-101.127
11
151.324
21
-101.048
0
LINE
8
BLACK
6
CONTINUOUS
10
151.324
20
-101.048
11
151.324
21
-100.649
0
LINE
8
BLACK
6
CONTINUOUS
10
151.324
20
-100.649
11
151.245
21
-100.57
0
LINE
8
BLACK
6
CONTINUOUS
10
151.245
20
-100.57
11
151.16
21
-100.528
0
LINE
8
BLACK
6
CONTINUOUS
10
151.16
20
-100.528
11
151.027
21
-100.528
0
LINE
8
BLACK
6
CONTINUOUS
10
152.83
20
-100.335
11
152.853
21
-100.338
0
LINE
8
BLACK
6
CONTINUOUS
10
152.853
20
-100.338
11
152.973
21
-100.398
0
LINE
8
BLACK
6
CONTINUOUS
10
152.973
20
-100.398
11
152.985
21
-100.409
0
LINE
8
BLACK
6
CONTINUOUS
10
152.985
20
-100.409
11
152.999
21
-100.417
0
LINE
8
BLACK
6
CONTINUOUS
10
152.999
20
-100.417
11
153.12
21
-100.537
0
LINE
8
BLACK
6
CONTINUOUS
10
153.12
20
-100.537
11
153.148
21
-100.591
0
LINE
8
BLACK
6
CONTINUOUS
10
153.148
20
-100.591
11
153.139
21
-100.653
0
LINE
8
BLACK
6
CONTINUOUS
10
153.139
20
-100.653
11
153.095
21
-100.696
0
LINE
8
BLACK
6
CONTINUOUS
10
153.095
20
-100.696
11
153.034
21
-100.706
0
LINE
8
BLACK
6
CONTINUOUS
10
153.034
20
-100.706
11
152.979
21
-100.679
0
LINE
8
BLACK
6
CONTINUOUS
10
152.979
20
-100.679
11
152.869
21
-100.57
0
LINE
8
BLACK
6
CONTINUOUS
10
152.869
20
-100.57
11
152.785
21
-100.528
0
LINE
8
BLACK
6
CONTINUOUS
10
152.785
20
-100.528
11
152.651
21
-100.528
0
LINE
8
BLACK
6
CONTINUOUS
10
152.651
20
-100.528
11
152.567
21
-100.57
0
LINE
8
BLACK
6
CONTINUOUS
10
152.567
20
-100.57
11
152.475
21
-100.662
0
LINE
8
BLACK
6
CONTINUOUS
10
152.475
20
-100.662
11
152.427
21
-100.805
0
LINE
8
BLACK
6
CONTINUOUS
10
152.427
20
-100.805
11
152.427
21
-100.892
0
LINE
8
BLACK
6
CONTINUOUS
10
152.427
20
-100.892
11
152.475
21
-101.036
0
LINE
8
BLACK
6
CONTINUOUS
10
152.475
20
-101.036
11
152.567
21
-101.127
0
LINE
8
BLACK
6
CONTINUOUS
10
152.567
20
-101.127
11
152.651
21
-101.17
0
LINE
8
BLACK
6
CONTINUOUS
10
152.651
20
-101.17
11
152.785
21
-101.17
0
LINE
8
BLACK
6
CONTINUOUS
10
152.785
20
-101.17
11
152.869
21
-101.127
0
LINE
8
BLACK
6
CONTINUOUS
10
152.869
20
-101.127
11
152.979
21
-101.019
0
LINE
8
BLACK
6
CONTINUOUS
10
152.979
20
-101.019
11
153.034
21
-100.991
0
LINE
8
BLACK
6
CONTINUOUS
10
153.034
20
-100.991
11
153.095
21
-101.001
0
LINE
8
BLACK
6
CONTINUOUS
10
153.095
20
-101.001
11
153.139
21
-101.045
0
LINE
8
BLACK
6
CONTINUOUS
10
153.139
20
-101.045
11
153.148
21
-101.106
0
LINE
8
BLACK
6
CONTINUOUS
10
153.148
20
-101.106
11
153.12
21
-101.161
0
LINE
8
BLACK
6
CONTINUOUS
10
153.12
20
-101.161
11
152.999
21
-101.281
0
LINE
8
BLACK
6
CONTINUOUS
10
152.999
20
-101.281
11
152.985
21
-101.288
0
LINE
8
BLACK
6
CONTINUOUS
10
152.985
20
-101.288
11
152.973
21
-101.299
0
LINE
8
BLACK
6
CONTINUOUS
10
152.973
20
-101.299
11
152.853
21
-101.359
0
LINE
8
BLACK
6
CONTINUOUS
10
152.853
20
-101.359
11
152.83
21
-101.362
0
LINE
8
BLACK
6
CONTINUOUS
10
152.83
20
-101.362
11
152.808
21
-101.37
0
LINE
8
BLACK
6
CONTINUOUS
10
152.808
20
-101.37
11
152.627
21
-101.37
0
LINE
8
BLACK
6
CONTINUOUS
10
152.627
20
-101.37
11
152.606
21
-101.362
0
LINE
8
BLACK
6
CONTINUOUS
10
152.606
20
-101.362
11
152.583
21
-101.359
0
LINE
8
BLACK
6
CONTINUOUS
10
152.583
20
-101.359
11
152.463
21
-101.299
0
LINE
8
BLACK
6
CONTINUOUS
10
152.463
20
-101.299
11
152.451
21
-101.288
0
LINE
8
BLACK
6
CONTINUOUS
10
152.451
20
-101.288
11
152.437
21
-101.28
0
LINE
8
BLACK
6
CONTINUOUS
10
152.437
20
-101.28
11
152.317
21
-101.16
0
LINE
8
BLACK
6
CONTINUOUS
10
152.317
20
-101.16
11
152.306
21
-101.14
0
LINE
8
BLACK
6
CONTINUOUS
10
152.306
20
-101.14
11
152.293
21
-101.121
0
LINE
8
BLACK
6
CONTINUOUS
10
152.293
20
-101.121
11
152.233
21
-100.94
0
LINE
8
BLACK
6
CONTINUOUS
10
152.233
20
-100.94
11
152.232
21
-100.924
0
LINE
8
BLACK
6
CONTINUOUS
10
152.232
20
-100.924
11
152.227
21
-100.909
0
LINE
8
BLACK
6
CONTINUOUS
10
152.227
20
-100.909
11
152.227
21
-100.789
0
LINE
8
BLACK
6
CONTINUOUS
10
152.227
20
-100.789
11
152.232
21
-100.773
0
LINE
8
BLACK
6
CONTINUOUS
10
152.232
20
-100.773
11
152.233
21
-100.757
0
LINE
8
BLACK
6
CONTINUOUS
10
152.233
20
-100.757
11
152.293
21
-100.576
0
LINE
8
BLACK
6
CONTINUOUS
10
152.293
20
-100.576
11
152.306
21
-100.557
0
LINE
8
BLACK
6
CONTINUOUS
10
152.306
20
-100.557
11
152.317
21
-100.537
0
LINE
8
BLACK
6
CONTINUOUS
10
152.317
20
-100.537
11
152.437
21
-100.417
0
LINE
8
BLACK
6
CONTINUOUS
10
152.437
20
-100.417
11
152.451
21
-100.409
0
LINE
8
BLACK
6
CONTINUOUS
10
152.451
20
-100.409
11
152.463
21
-100.398
0
LINE
8
BLACK
6
CONTINUOUS
10
152.463
20
-100.398
11
152.583
21
-100.338
0
LINE
8
BLACK
6
CONTINUOUS
10
152.583
20
-100.338
11
152.606
21
-100.335
0
LINE
8
BLACK
6
CONTINUOUS
10
152.606
20
-100.335
11
152.627
21
-100.328
0
LINE
8
BLACK
6
CONTINUOUS
10
152.627
20
-100.328
11
152.808
21
-100.328
0
LINE
8
BLACK
6
CONTINUOUS
10
152.808
20
-100.328
11
152.83
21
-100.335
0
LINE
8
BLACK
6
CONTINUOUS
10
147.294
20
-100.335
11
147.317
21
-100.338
0
LINE
8
BLACK
6
CONTINUOUS
10
147.317
20
-100.338
11
147.437
21
-100.398
0
LINE
8
BLACK
6
CONTINUOUS
10
147.437
20
-100.398
11
147.443
21
-100.404
0
LINE
8
BLACK
6
CONTINUOUS
10
147.443
20
-100.404
11
147.451
21
-100.406
0
LINE
8
BLACK
6
CONTINUOUS
10
147.451
20
-100.406
11
147.465
21
-100.425
0
LINE
8
BLACK
6
CONTINUOUS
10
147.465
20
-100.425
11
147.481
21
-100.441
0
LINE
8
BLACK
6
CONTINUOUS
10
147.481
20
-100.441
11
147.483
21
-100.45
0
LINE
8
BLACK
6
CONTINUOUS
10
147.483
20
-100.45
11
147.487
21
-100.456
0
LINE
8
BLACK
6
CONTINUOUS
10
147.487
20
-100.456
11
147.496
21
-100.483
0
LINE
8
BLACK
6
CONTINUOUS
10
147.496
20
-100.483
11
147.563
21
-100.417
0
LINE
8
BLACK
6
CONTINUOUS
10
147.563
20
-100.417
11
147.577
21
-100.409
0
LINE
8
BLACK
6
CONTINUOUS
10
147.577
20
-100.409
11
147.589
21
-100.398
0
LINE
8
BLACK
6
CONTINUOUS
10
147.589
20
-100.398
11
147.709
21
-100.338
0
LINE
8
BLACK
6
CONTINUOUS
10
147.709
20
-100.338
11
147.732
21
-100.335
0
LINE
8
BLACK
6
CONTINUOUS
10
147.732
20
-100.335
11
147.753
21
-100.328
0
LINE
8
BLACK
6
CONTINUOUS
10
147.753
20
-100.328
11
147.934
21
-100.328
0
LINE
8
BLACK
6
CONTINUOUS
10
147.934
20
-100.328
11
147.956
21
-100.335
0
LINE
8
BLACK
6
CONTINUOUS
10
147.956
20
-100.335
11
147.979
21
-100.338
0
LINE
8
BLACK
6
CONTINUOUS
10
147.979
20
-100.338
11
148.099
21
-100.398
0
LINE
8
BLACK
6
CONTINUOUS
10
148.099
20
-100.398
11
148.105
21
-100.404
0
LINE
8
BLACK
6
CONTINUOUS
10
148.105
20
-100.404
11
148.113
21
-100.406
0
LINE
8
BLACK
6
CONTINUOUS
10
148.113
20
-100.406
11
148.127
21
-100.425
0
LINE
8
BLACK
6
CONTINUOUS
10
148.127
20
-100.425
11
148.143
21
-100.441
0
LINE
8
BLACK
6
CONTINUOUS
10
148.143
20
-100.441
11
148.145
21
-100.45
0
LINE
8
BLACK
6
CONTINUOUS
10
148.145
20
-100.45
11
148.149
21
-100.456
0
LINE
8
BLACK
6
CONTINUOUS
10
148.149
20
-100.456
11
148.209
21
-100.637
0
LINE
8
BLACK
6
CONTINUOUS
10
148.209
20
-100.637
11
148.209
21
-100.653
0
LINE
8
BLACK
6
CONTINUOUS
10
148.209
20
-100.653
11
148.214
21
-100.669
0
LINE
8
BLACK
6
CONTINUOUS
10
148.214
20
-100.669
11
148.214
21
-101.27
0
LINE
8
BLACK
6
CONTINUOUS
10
148.214
20
-101.27
11
148.195
21
-101.328
0
LINE
8
BLACK
6
CONTINUOUS
10
148.195
20
-101.328
11
148.145
21
-101.365
0
LINE
8
BLACK
6
CONTINUOUS
10
148.145
20
-101.365
11
148.084
21
-101.365
0
LINE
8
BLACK
6
CONTINUOUS
10
148.084
20
-101.365
11
148.034
21
-101.328
0
LINE
8
BLACK
6
CONTINUOUS
10
148.034
20
-101.328
11
148.014
21
-101.27
0
LINE
8
BLACK
6
CONTINUOUS
10
148.014
20
-101.27
11
148.014
21
-100.685
0
LINE
8
BLACK
6
CONTINUOUS
10
148.014
20
-100.685
11
147.973
21
-100.558
0
LINE
8
BLACK
6
CONTINUOUS
10
147.973
20
-100.558
11
147.911
21
-100.528
0
LINE
8
BLACK
6
CONTINUOUS
10
147.911
20
-100.528
11
147.777
21
-100.528
0
LINE
8
BLACK
6
CONTINUOUS
10
147.777
20
-100.528
11
147.693
21
-100.57
0
LINE
8
BLACK
6
CONTINUOUS
10
147.693
20
-100.57
11
147.552
21
-100.71
0
LINE
8
BLACK
6
CONTINUOUS
10
147.552
20
-100.71
11
147.552
21
-101.27
0
LINE
8
BLACK
6
CONTINUOUS
10
147.552
20
-101.27
11
147.533
21
-101.328
0
LINE
8
BLACK
6
CONTINUOUS
10
147.533
20
-101.328
11
147.483
21
-101.365
0
LINE
8
BLACK
6
CONTINUOUS
10
147.483
20
-101.365
11
147.422
21
-101.365
0
LINE
8
BLACK
6
CONTINUOUS
10
147.422
20
-101.365
11
147.372
21
-101.328
0
LINE
8
BLACK
6
CONTINUOUS
10
147.372
20
-101.328
11
147.352
21
-101.27
0
LINE
8
BLACK
6
CONTINUOUS
10
147.352
20
-101.27
11
147.352
21
-100.685
0
LINE
8
BLACK
6
CONTINUOUS
10
147.352
20
-100.685
11
147.311
21
-100.558
0
LINE
8
BLACK
6
CONTINUOUS
10
147.311
20
-100.558
11
147.249
21
-100.528
0
LINE
8
BLACK
6
CONTINUOUS
10
147.249
20
-100.528
11
147.115
21
-100.528
0
LINE
8
BLACK
6
CONTINUOUS
10
147.115
20
-100.528
11
147.031
21
-100.57
0
LINE
8
BLACK
6
CONTINUOUS
10
147.031
20
-100.57
11
146.89
21
-100.71
0
LINE
8
BLACK
6
CONTINUOUS
10
146.89
20
-100.71
11
146.89
21
-101.27
0
LINE
8
BLACK
6
CONTINUOUS
10
146.89
20
-101.27
11
146.871
21
-101.328
0
LINE
8
BLACK
6
CONTINUOUS
10
146.871
20
-101.328
11
146.821
21
-101.365
0
LINE
8
BLACK
6
CONTINUOUS
10
146.821
20
-101.365
11
146.76
21
-101.365
0
LINE
8
BLACK
6
CONTINUOUS
10
146.76
20
-101.365
11
146.71
21
-101.328
0
LINE
8
BLACK
6
CONTINUOUS
10
146.71
20
-101.328
11
146.69
21
-101.27
0
LINE
8
BLACK
6
CONTINUOUS
10
146.69
20
-101.27
11
146.69
21
-100.669
0
LINE
8
BLACK
6
CONTINUOUS
10
146.69
20
-100.669
11
146.69
21
-100.428
0
LINE
8
BLACK
6
CONTINUOUS
10
146.69
20
-100.428
11
146.71
21
-100.369
0
LINE
8
BLACK
6
CONTINUOUS
10
146.71
20
-100.369
11
146.76
21
-100.332
0
LINE
8
BLACK
6
CONTINUOUS
10
146.76
20
-100.332
11
146.821
21
-100.332
0
LINE
8
BLACK
6
CONTINUOUS
10
146.821
20
-100.332
11
146.871
21
-100.369
0
LINE
8
BLACK
6
CONTINUOUS
10
146.871
20
-100.369
11
146.89
21
-100.427
0
LINE
8
BLACK
6
CONTINUOUS
10
146.89
20
-100.427
11
146.901
21
-100.417
0
LINE
8
BLACK
6
CONTINUOUS
10
146.901
20
-100.417
11
146.915
21
-100.409
0
LINE
8
BLACK
6
CONTINUOUS
10
146.915
20
-100.409
11
146.927
21
-100.398
0
LINE
8
BLACK
6
CONTINUOUS
10
146.927
20
-100.398
11
147.047
21
-100.338
0
LINE
8
BLACK
6
CONTINUOUS
10
147.047
20
-100.338
11
147.07
21
-100.335
0
LINE
8
BLACK
6
CONTINUOUS
10
147.07
20
-100.335
11
147.091
21
-100.328
0
LINE
8
BLACK
6
CONTINUOUS
10
147.091
20
-100.328
11
147.272
21
-100.328
0
LINE
8
BLACK
6
CONTINUOUS
10
147.272
20
-100.328
11
147.294
21
-100.335
0
LINE
8
BLACK
6
CONTINUOUS
10
151.986
20
-100.369
11
152.005
21
-100.428
0
LINE
8
BLACK
6
CONTINUOUS
10
152.005
20
-100.428
11
152.005
21
-101.27
0
LINE
8
BLACK
6
CONTINUOUS
10
152.005
20
-101.27
11
151.986
21
-101.328
0
LINE
8
BLACK
6
CONTINUOUS
10
151.986
20
-101.328
11
151.936
21
-101.365
0
LINE
8
BLACK
6
CONTINUOUS
10
151.936
20
-101.365
11
151.875
21
-101.365
0
LINE
8
BLACK
6
CONTINUOUS
10
151.875
20
-101.365
11
151.825
21
-101.328
0
LINE
8
BLACK
6
CONTINUOUS
10
151.825
20
-101.328
11
151.805
21
-101.27
0
LINE
8
BLACK
6
CONTINUOUS
10
151.805
20
-101.27
11
151.805
21
-100.428
0
LINE
8
BLACK
6
CONTINUOUS
10
151.805
20
-100.428
11
151.825
21
-100.369
0
LINE
8
BLACK
6
CONTINUOUS
10
151.825
20
-100.369
11
151.875
21
-100.332
0
LINE
8
BLACK
6
CONTINUOUS
10
151.875
20
-100.332
11
151.936
21
-100.332
0
LINE
8
BLACK
6
CONTINUOUS
10
151.936
20
-100.332
11
151.986
21
-100.369
0
LINE
8
BLACK
6
CONTINUOUS
10
151.935
20
-99.8538
11
151.95
21
-99.8561
0
LINE
8
BLACK
6
CONTINUOUS
10
151.95
20
-99.8561
11
151.962
21
-99.8677
0
LINE
8
BLACK
6
CONTINUOUS
10
151.962
20
-99.8677
11
151.977
21
-99.8754
0
LINE
8
BLACK
6
CONTINUOUS
10
151.977
20
-99.8754
11
152.037
21
-99.9364
0
LINE
8
BLACK
6
CONTINUOUS
10
152.037
20
-99.9364
11
152.044
21
-99.9502
0
LINE
8
BLACK
6
CONTINUOUS
10
152.044
20
-99.9502
11
152.055
21
-99.9611
0
LINE
8
BLACK
6
CONTINUOUS
10
152.055
20
-99.9611
11
152.057
21
-99.9772
0
LINE
8
BLACK
6
CONTINUOUS
10
152.057
20
-99.9772
11
152.064
21
-99.9917
0
LINE
8
BLACK
6
CONTINUOUS
10
152.064
20
-99.9917
11
152.062
21
-100.007
0
LINE
8
BLACK
6
CONTINUOUS
10
152.062
20
-100.007
11
152.064
21
-100.022
0
LINE
8
BLACK
6
CONTINUOUS
10
152.064
20
-100.022
11
152.057
21
-100.037
0
LINE
8
BLACK
6
CONTINUOUS
10
152.057
20
-100.037
11
152.054
21
-100.053
0
LINE
8
BLACK
6
CONTINUOUS
10
152.054
20
-100.053
11
152.043
21
-100.064
0
LINE
8
BLACK
6
CONTINUOUS
10
152.043
20
-100.064
11
152.036
21
-100.077
0
LINE
8
BLACK
6
CONTINUOUS
10
152.036
20
-100.077
11
151.976
21
-100.137
0
LINE
8
BLACK
6
CONTINUOUS
10
151.976
20
-100.137
11
151.962
21
-100.144
0
LINE
8
BLACK
6
CONTINUOUS
10
151.962
20
-100.144
11
151.951
21
-100.156
0
LINE
8
BLACK
6
CONTINUOUS
10
151.951
20
-100.156
11
151.935
21
-100.158
0
LINE
8
BLACK
6
CONTINUOUS
10
151.935
20
-100.158
11
151.921
21
-100.165
0
LINE
8
BLACK
6
CONTINUOUS
10
151.921
20
-100.165
11
151.905
21
-100.163
0
LINE
8
BLACK
6
CONTINUOUS
10
151.905
20
-100.163
11
151.89
21
-100.165
0
LINE
8
BLACK
6
CONTINUOUS
10
151.89
20
-100.165
11
151.876
21
-100.158
0
LINE
8
BLACK
6
CONTINUOUS
10
151.876
20
-100.158
11
151.86
21
-100.156
0
LINE
8
BLACK
6
CONTINUOUS
10
151.86
20
-100.156
11
151.849
21
-100.144
0
LINE
8
BLACK
6
CONTINUOUS
10
151.849
20
-100.144
11
151.835
21
-100.137
0
LINE
8
BLACK
6
CONTINUOUS
10
151.835
20
-100.137
11
151.775
21
-100.077
0
LINE
8
BLACK
6
CONTINUOUS
10
151.775
20
-100.077
11
151.768
21
-100.064
0
LINE
8
BLACK
6
CONTINUOUS
10
151.768
20
-100.064
11
151.757
21
-100.053
0
LINE
8
BLACK
6
CONTINUOUS
10
151.757
20
-100.053
11
151.754
21
-100.037
0
LINE
8
BLACK
6
CONTINUOUS
10
151.754
20
-100.037
11
151.747
21
-100.022
0
LINE
8
BLACK
6
CONTINUOUS
10
151.747
20
-100.022
11
151.749
21
-100.007
0
LINE
8
BLACK
6
CONTINUOUS
10
151.749
20
-100.007
11
151.747
21
-99.9917
0
LINE
8
BLACK
6
CONTINUOUS
10
151.747
20
-99.9917
11
151.754
21
-99.9772
0
LINE
8
BLACK
6
CONTINUOUS
10
151.754
20
-99.9772
11
151.756
21
-99.9611
0
LINE
8
BLACK
6
CONTINUOUS
10
151.756
20
-99.9611
11
151.767
21
-99.9502
0
LINE
8
BLACK
6
CONTINUOUS
10
151.767
20
-99.9502
11
151.774
21
-99.9364
0
LINE
8
BLACK
6
CONTINUOUS
10
151.774
20
-99.9364
11
151.834
21
-99.8754
0
LINE
8
BLACK
6
CONTINUOUS
10
151.834
20
-99.8754
11
151.849
21
-99.8677
0
LINE
8
BLACK
6
CONTINUOUS
10
151.849
20
-99.8677
11
151.861
21
-99.8561
0
LINE
8
BLACK
6
CONTINUOUS
10
151.861
20
-99.8561
11
151.876
21
-99.8538
0
LINE
8
BLACK
6
CONTINUOUS
10
151.876
20
-99.8538
11
151.889
21
-99.8469
0
LINE
8
BLACK
6
CONTINUOUS
10
151.889
20
-99.8469
11
151.905
21
-99.8494
0
LINE
8
BLACK
6
CONTINUOUS
10
151.905
20
-99.8494
11
151.922
21
-99.8469
0
LINE
8
BLACK
6
CONTINUOUS
10
151.922
20
-99.8469
11
151.935
21
-99.8538
0
LINE
8
BLACK
6
CONTINUOUS
10
148.749
20
-97.657
11
148.779
21
-97.6604
0
LINE
8
BLACK
6
CONTINUOUS
10
148.779
20
-97.6604
11
148.783
21
-97.6638
0
LINE
8
BLACK
6
CONTINUOUS
10
148.783
20
-97.6638
11
148.789
21
-97.6649
0
LINE
8
BLACK
6
CONTINUOUS
10
148.789
20
-97.6649
11
148.811
21
-97.6862
0
LINE
8
BLACK
6
CONTINUOUS
10
148.811
20
-97.6862
11
148.835
21
-97.7056
0
LINE
8
BLACK
6
CONTINUOUS
10
148.835
20
-97.7056
11
148.836
21
-97.7107
0
LINE
8
BLACK
6
CONTINUOUS
10
148.836
20
-97.7107
11
148.84
21
-97.7145
0
LINE
8
BLACK
6
CONTINUOUS
10
148.84
20
-97.7145
11
150
21
-99.744
0
LINE
8
BLACK
6
CONTINUOUS
10
150
20
-99.744
11
151.16
21
-97.7145
0
LINE
8
BLACK
6
CONTINUOUS
10
151.16
20
-97.7145
11
151.182
21
-97.686
0
LINE
8
BLACK
6
CONTINUOUS
10
151.182
20
-97.686
11
151.187
21
-97.6835
0
LINE
8
BLACK
6
CONTINUOUS
10
151.187
20
-97.6835
11
151.19
21
-97.679
0
LINE
8
BLACK
6
CONTINUOUS
10
151.19
20
-97.679
11
151.218
21
-97.6671
0
LINE
8
BLACK
6
CONTINUOUS
10
151.218
20
-97.6671
11
151.245
21
-97.6529
0
LINE
8
BLACK
6
CONTINUOUS
10
151.245
20
-97.6529
11
151.251
21
-97.6534
0
LINE
8
BLACK
6
CONTINUOUS
10
151.251
20
-97.6534
11
151.256
21
-97.6513
0
LINE
8
BLACK
6
CONTINUOUS
10
151.256
20
-97.6513
11
151.286
21
-97.6566
0
LINE
8
BLACK
6
CONTINUOUS
10
151.286
20
-97.6566
11
151.317
21
-97.6594
0
LINE
8
BLACK
6
CONTINUOUS
10
151.317
20
-97.6594
11
151.321
21
-97.6627
0
LINE
8
BLACK
6
CONTINUOUS
10
151.321
20
-97.6627
11
151.326
21
-97.6637
0
LINE
8
BLACK
6
CONTINUOUS
10
151.326
20
-97.6637
11
151.349
21
-97.6845
0
LINE
8
BLACK
6
CONTINUOUS
10
151.349
20
-97.6845
11
151.373
21
-97.7034
0
LINE
8
BLACK
6
CONTINUOUS
10
151.373
20
-97.7034
11
151.375
21
-97.7085
0
LINE
8
BLACK
6
CONTINUOUS
10
151.375
20
-97.7085
11
151.379
21
-97.7122
0
LINE
8
BLACK
6
CONTINUOUS
10
151.379
20
-97.7122
11
152.331
21
-99.2997
0
LINE
8
BLACK
6
CONTINUOUS
10
152.331
20
-99.2997
11
152.345
21
-99.333
0
LINE
8
BLACK
6
CONTINUOUS
10
152.345
20
-99.333
11
152.343
21
-99.4045
0
LINE
8
BLACK
6
CONTINUOUS
10
152.343
20
-99.4045
11
152.303
21
-99.4635
0
LINE
8
BLACK
6
CONTINUOUS
10
152.303
20
-99.4635
11
152.237
21
-99.4912
0
LINE
8
BLACK
6
CONTINUOUS
10
152.237
20
-99.4912
11
152.166
21
-99.4788
0
LINE
8
BLACK
6
CONTINUOUS
10
152.166
20
-99.4788
11
152.114
21
-99.4303
0
LINE
8
BLACK
6
CONTINUOUS
10
152.114
20
-99.4303
11
151.273
21
-98.0288
0
LINE
8
BLACK
6
CONTINUOUS
10
151.273
20
-98.0288
11
150.11
21
-100.063
0
LINE
8
BLACK
6
CONTINUOUS
10
150.11
20
-100.063
11
150.088
21
-100.092
0
LINE
8
BLACK
6
CONTINUOUS
10
150.088
20
-100.092
11
150.082
21
-100.095
0
LINE
8
BLACK
6
CONTINUOUS
10
150.082
20
-100.095
11
150.078
21
-100.1
0
LINE
8
BLACK
6
CONTINUOUS
10
150.078
20
-100.1
11
150.051
21
-100.111
0
LINE
8
BLACK
6
CONTINUOUS
10
150.051
20
-100.111
11
150.025
21
-100.125
0
LINE
8
BLACK
6
CONTINUOUS
10
150.025
20
-100.125
11
150.018
21
-100.124
0
LINE
8
BLACK
6
CONTINUOUS
10
150.018
20
-100.124
11
150.012
21
-100.126
0
LINE
8
BLACK
6
CONTINUOUS
10
150.012
20
-100.126
11
149.983
21
-100.121
0
LINE
8
BLACK
6
CONTINUOUS
10
149.983
20
-100.121
11
149.953
21
-100.118
0
LINE
8
BLACK
6
CONTINUOUS
10
149.953
20
-100.118
11
149.948
21
-100.114
0
LINE
8
BLACK
6
CONTINUOUS
10
149.948
20
-100.114
11
149.941
21
-100.113
0
LINE
8
BLACK
6
CONTINUOUS
10
149.941
20
-100.113
11
149.92
21
-100.092
0
LINE
8
BLACK
6
CONTINUOUS
10
149.92
20
-100.092
11
149.897
21
-100.074
0
LINE
8
BLACK
6
CONTINUOUS
10
149.897
20
-100.074
11
149.895
21
-100.068
0
LINE
8
BLACK
6
CONTINUOUS
10
149.895
20
-100.068
11
149.89
21
-100.063
0
LINE
8
BLACK
6
CONTINUOUS
10
149.89
20
-100.063
11
148.727
21
-98.0288
0
LINE
8
BLACK
6
CONTINUOUS
10
148.727
20
-98.0288
11
147.886
21
-99.4303
0
LINE
8
BLACK
6
CONTINUOUS
10
147.886
20
-99.4303
11
147.864
21
-99.4584
0
LINE
8
BLACK
6
CONTINUOUS
10
147.864
20
-99.4584
11
147.799
21
-99.4901
0
LINE
8
BLACK
6
CONTINUOUS
10
147.799
20
-99.4901
11
147.728
21
-99.4821
0
LINE
8
BLACK
6
CONTINUOUS
10
147.728
20
-99.4821
11
147.673
21
-99.4369
0
LINE
8
BLACK
6
CONTINUOUS
10
147.673
20
-99.4369
11
147.651
21
-99.3689
0
LINE
8
BLACK
6
CONTINUOUS
10
147.651
20
-99.3689
11
147.669
21
-99.2997
0
LINE
8
BLACK
6
CONTINUOUS
10
147.669
20
-99.2997
11
148.621
21
-97.7122
0
LINE
8
BLACK
6
CONTINUOUS
10
148.621
20
-97.7122
11
148.644
21
-97.6841
0
LINE
8
BLACK
6
CONTINUOUS
10
148.644
20
-97.6841
11
148.649
21
-97.6817
0
LINE
8
BLACK
6
CONTINUOUS
10
148.649
20
-97.6817
11
148.652
21
-97.6773
0
LINE
8
BLACK
6
CONTINUOUS
10
148.652
20
-97.6773
11
148.681
21
-97.666
0
LINE
8
BLACK
6
CONTINUOUS
10
148.681
20
-97.666
11
148.708
21
-97.6524
0
LINE
8
BLACK
6
CONTINUOUS
10
148.708
20
-97.6524
11
148.713
21
-97.653
0
LINE
8
BLACK
6
CONTINUOUS
10
148.713
20
-97.653
11
148.718
21
-97.651
0
LINE
8
BLACK
6
CONTINUOUS
10
148.718
20
-97.651
11
148.749
21
-97.657
0
LINE
8
BLACK
6
CONTINUOUS
10
151.275
20
-96.3081
11
151.297
21
-96.3061
0
LINE
8
BLACK
6
CONTINUOUS
10
151.297
20
-96.3061
11
151.32
21
-96.3145
0
LINE
8
BLACK
6
CONTINUOUS
10
151.32
20
-96.3145
11
151.343
21
-96.318
0
LINE
8
BLACK
6
CONTINUOUS
10
151.343
20
-96.318
11
151.361
21
-96.3301
0
LINE
8
BLACK
6
CONTINUOUS
10
151.361
20
-96.3301
11
151.382
21
-96.3377
0
LINE
8
BLACK
6
CONTINUOUS
10
151.382
20
-96.3377
11
151.398
21
-96.3551
0
LINE
8
BLACK
6
CONTINUOUS
10
151.398
20
-96.3551
11
151.418
21
-96.3686
0
LINE
8
BLACK
6
CONTINUOUS
10
151.418
20
-96.3686
11
151.429
21
-96.3873
0
LINE
8
BLACK
6
CONTINUOUS
10
151.429
20
-96.3873
11
151.444
21
-96.403
0
LINE
8
BLACK
6
CONTINUOUS
10
151.444
20
-96.403
11
153.349
21
-99.578
0
LINE
8
BLACK
6
CONTINUOUS
10
153.349
20
-99.578
11
153.377
21
-99.6639
0
LINE
8
BLACK
6
CONTINUOUS
10
153.377
20
-99.6639
11
153.365
21
-99.7535
0
LINE
8
BLACK
6
CONTINUOUS
10
153.365
20
-99.7535
11
153.316
21
-99.8291
0
LINE
8
BLACK
6
CONTINUOUS
10
153.316
20
-99.8291
11
153.238
21
-99.8756
0
LINE
8
BLACK
6
CONTINUOUS
10
153.238
20
-99.8756
11
153.148
21
-99.8839
0
LINE
8
BLACK
6
CONTINUOUS
10
153.148
20
-99.8839
11
153.063
21
-99.8523
0
LINE
8
BLACK
6
CONTINUOUS
10
153.063
20
-99.8523
11
153.001
21
-99.787
0
LINE
8
BLACK
6
CONTINUOUS
10
153.001
20
-99.787
11
151.26
21
-96.8855
0
LINE
8
BLACK
6
CONTINUOUS
10
151.26
20
-96.8855
11
150.153
21
-98.524
0
LINE
8
BLACK
6
CONTINUOUS
10
150.153
20
-98.524
11
150.14
21
-98.5358
0
LINE
8
BLACK
6
CONTINUOUS
10
150.14
20
-98.5358
11
150.132
21
-98.5507
0
LINE
8
BLACK
6
CONTINUOUS
10
150.132
20
-98.5507
11
150.108
21
-98.5663
0
LINE
8
BLACK
6
CONTINUOUS
10
150.108
20
-98.5663
11
150.087
21
-98.5858
0
LINE
8
BLACK
6
CONTINUOUS
10
150.087
20
-98.5858
11
150.071
21
-98.5909
0
LINE
8
BLACK
6
CONTINUOUS
10
150.071
20
-98.5909
11
150.056
21
-98.6005
0
LINE
8
BLACK
6
CONTINUOUS
10
150.056
20
-98.6005
11
150.028
21
-98.6043
0
LINE
8
BLACK
6
CONTINUOUS
10
150.028
20
-98.6043
11
150.001
21
-98.6128
0
LINE
8
BLACK
6
CONTINUOUS
10
150.001
20
-98.6128
11
149.984
21
-98.6103
0
LINE
8
BLACK
6
CONTINUOUS
10
149.984
20
-98.6103
11
149.966
21
-98.6126
0
LINE
8
BLACK
6
CONTINUOUS
10
149.966
20
-98.6126
11
149.939
21
-98.6038
0
LINE
8
BLACK
6
CONTINUOUS
10
149.939
20
-98.6038
11
149.911
21
-98.5997
0
LINE
8
BLACK
6
CONTINUOUS
10
149.911
20
-98.5997
11
149.897
21
-98.59
0
LINE
8
BLACK
6
CONTINUOUS
10
149.897
20
-98.59
11
149.88
21
-98.5846
0
LINE
8
BLACK
6
CONTINUOUS
10
149.88
20
-98.5846
11
149.86
21
-98.565
0
LINE
8
BLACK
6
CONTINUOUS
10
149.86
20
-98.565
11
149.836
21
-98.5491
0
LINE
8
BLACK
6
CONTINUOUS
10
149.836
20
-98.5491
11
149.828
21
-98.5341
0
LINE
8
BLACK
6
CONTINUOUS
10
149.828
20
-98.5341
11
149.815
21
-98.5221
0
LINE
8
BLACK
6
CONTINUOUS
10
149.815
20
-98.5221
11
148.738
21
-96.8889
0
LINE
8
BLACK
6
CONTINUOUS
10
148.738
20
-96.8889
11
146.999
21
-99.787
0
LINE
8
BLACK
6
CONTINUOUS
10
146.999
20
-99.787
11
146.937
21
-99.8523
0
LINE
8
BLACK
6
CONTINUOUS
10
146.937
20
-99.8523
11
146.852
21
-99.8839
0
LINE
8
BLACK
6
CONTINUOUS
10
146.852
20
-99.8839
11
146.762
21
-99.8756
0
LINE
8
BLACK
6
CONTINUOUS
10
146.762
20
-99.8756
11
146.684
21
-99.8291
0
LINE
8
BLACK
6
CONTINUOUS
10
146.684
20
-99.8291
11
146.635
21
-99.7535
0
LINE
8
BLACK
6
CONTINUOUS
10
146.635
20
-99.7535
11
146.623
21
-99.6639
0
LINE
8
BLACK
6
CONTINUOUS
10
146.623
20
-99.6639
11
146.651
21
-99.578
0
LINE
8
BLACK
6
CONTINUOUS
10
146.651
20
-99.578
11
148.556
21
-96.403
0
LINE
8
BLACK
6
CONTINUOUS
10
148.556
20
-96.403
11
148.572
21
-96.3865
0
LINE
8
BLACK
6
CONTINUOUS
10
148.572
20
-96.3865
11
148.583
21
-96.367
0
LINE
8
BLACK
6
CONTINUOUS
10
148.583
20
-96.367
11
148.602
21
-96.3543
0
LINE
8
BLACK
6
CONTINUOUS
10
148.602
20
-96.3543
11
148.618
21
-96.3377
0
LINE
8
BLACK
6
CONTINUOUS
10
148.618
20
-96.3377
11
148.64
21
-96.3298
0
LINE
8
BLACK
6
CONTINUOUS
10
148.64
20
-96.3298
11
148.659
21
-96.3172
0
LINE
8
BLACK
6
CONTINUOUS
10
148.659
20
-96.3172
11
148.682
21
-96.3141
0
LINE
8
BLACK
6
CONTINUOUS
10
148.682
20
-96.3141
11
148.703
21
-96.3061
0
LINE
8
BLACK
6
CONTINUOUS
10
148.703
20
-96.3061
11
148.726
21
-96.3082
0
LINE
8
BLACK
6
CONTINUOUS
10
148.726
20
-96.3082
11
148.748
21
-96.3051
0
LINE
8
BLACK
6
CONTINUOUS
10
148.748
20
-96.3051
11
148.77
21
-96.3123
0
LINE
8
BLACK
6
CONTINUOUS
10
148.77
20
-96.3123
11
148.793
21
-96.3144
0
LINE
8
BLACK
6
CONTINUOUS
10
148.793
20
-96.3144
11
148.813
21
-96.3261
0
LINE
8
BLACK
6
CONTINUOUS
10
148.813
20
-96.3261
11
148.834
21
-96.3331
0
LINE
8
BLACK
6
CONTINUOUS
10
148.834
20
-96.3331
11
148.851
21
-96.349
0
LINE
8
BLACK
6
CONTINUOUS
10
148.851
20
-96.349
11
148.871
21
-96.3609
0
LINE
8
BLACK
6
CONTINUOUS
10
148.871
20
-96.3609
11
148.883
21
-96.3799
0
LINE
8
BLACK
6
CONTINUOUS
10
148.883
20
-96.3799
11
148.9
21
-96.3956
0
LINE
8
BLACK
6
CONTINUOUS
10
148.9
20
-96.3956
11
149.987
21
-98.0442
0
LINE
8
BLACK
6
CONTINUOUS
10
149.987
20
-98.0442
11
151.102
21
-96.3938
0
LINE
8
BLACK
6
CONTINUOUS
10
151.102
20
-96.3938
11
151.117
21
-96.379
0
LINE
8
BLACK
6
CONTINUOUS
10
151.117
20
-96.379
11
151.129
21
-96.3609
0
LINE
8
BLACK
6
CONTINUOUS
10
151.129
20
-96.3609
11
151.15
21
-96.3485
0
LINE
8
BLACK
6
CONTINUOUS
10
151.15
20
-96.3485
11
151.168
21
-96.332
0
LINE
8
BLACK
6
CONTINUOUS
10
151.168
20
-96.332
11
151.188
21
-96.3255
0
LINE
8
BLACK
6
CONTINUOUS
10
151.188
20
-96.3255
11
151.207
21
-96.3144
0
LINE
8
BLACK
6
CONTINUOUS
10
151.207
20
-96.3144
11
151.231
21
-96.3122
0
LINE
8
BLACK
6
CONTINUOUS
10
151.231
20
-96.3122
11
151.254
21
-96.3049
0
LINE
8
BLACK
6
CONTINUOUS
10
151.254
20
-96.3049
11
151.275
21
-96.3081
  0
ENDSEC
  0
EOF
